<svg width="512" height="512" version="1.1" xmlns="http://www.w3.org/2000/svg" desc="Created with imagetracer.js version 1.2.6" ><path fill="rgb(247,95,63)" stroke="rgb(247,95,63)" stroke-width="1" opacity="1" d="M 204.5 102 L 310.5 102 L 321.5 104 L 329.5 107 L 345 118.5 Q 353.2 127.3 357 140.5 Q 359.8 149.2 358 162.5 Q 354 182.5 340.5 193 L 327.5 201 L 312.5 205 L 200.5 205 L 184.5 201 L 168 189.5 Q 159 180.5 155 166.5 L 154 161.5 L 154 145.5 Q 158.3 123.8 173.5 113 L 185.5 106 L 195.5 103 L 203.5 103 L 204.5 102 Z " /><path fill="rgb(50,50,50)" stroke="rgb(50,50,50)" stroke-width="1" opacity="0.6705882352941176" d="M 234.5 0 L 247 0.5 L 234.5 1 L 234.5 0 Z " /><path fill="rgb(50,50,50)" stroke="rgb(50,50,50)" stroke-width="1" opacity="0.6705882352941176" d="M 265.5 0 L 278 0.5 L 265.5 1 L 265.5 0 Z " /><path fill="rgb(50,50,50)" stroke="rgb(50,50,50)" stroke-width="1" opacity="0.6705882352941176" d="M 224.5 1 L 231 1.5 L 224.5 2 L 224.5 1 Z " /><path fill="rgb(50,50,50)" stroke="rgb(50,50,50)" stroke-width="1" opacity="0.6705882352941176" d="M 281.5 1 L 288 1.5 L 281.5 2 L 281.5 1 Z " /><path fill="rgb(50,50,50)" stroke="rgb(50,50,50)" stroke-width="1" opacity="0.6705882352941176" d="M 217.5 2 L 223 2.5 L 217.5 3 L 217.5 2 Z " /><path fill="rgb(50,50,50)" stroke="rgb(50,50,50)" stroke-width="1" opacity="0.6705882352941176" d="M 289.5 2 L 295 2.5 L 289.5 3 L 289.5 2 Z " /><path fill="rgb(50,50,50)" stroke="rgb(50,50,50)" stroke-width="1" opacity="0.6705882352941176" d="M 211.5 3 L 216 3.5 L 211.5 4 L 211.5 3 Z " /><path fill="rgb(50,50,50)" stroke="rgb(50,50,50)" stroke-width="1" opacity="0.6705882352941176" d="M 297.5 3 L 301 3.5 L 297.5 4 L 297.5 3 Z " /><path fill="rgb(50,50,50)" stroke="rgb(50,50,50)" stroke-width="1" opacity="0.6705882352941176" d="M 206.5 4 L 210 4.5 L 206.5 5 L 206.5 4 Z " /><path fill="rgb(50,50,50)" stroke="rgb(50,50,50)" stroke-width="1" opacity="0.6705882352941176" d="M 303.5 4 L 306 4.5 L 303.5 5 L 303.5 4 Z " /><path fill="rgb(50,50,50)" stroke="rgb(50,50,50)" stroke-width="1" opacity="0.6705882352941176" d="M 201.5 5 L 205 5.5 L 201.5 6 L 201.5 5 Z " /><path fill="rgb(50,50,50)" stroke="rgb(50,50,50)" stroke-width="1" opacity="0.6705882352941176" d="M 307.5 5 L 311 5.5 L 307.5 6 L 307.5 5 Z " /><path fill="rgb(50,50,50)" stroke="rgb(50,50,50)" stroke-width="1" opacity="0.6705882352941176" d="M 196.5 6 L 200 6.5 L 189.5 9 L 189.5 8 L 196.5 6 Z " /><path fill="rgb(50,50,50)" stroke="rgb(50,50,50)" stroke-width="1" opacity="0.6705882352941176" d="M 312.5 6 L 316 6.5 L 312.5 7 L 312.5 6 Z " /><path fill="rgb(50,50,50)" stroke="rgb(50,50,50)" stroke-width="1" opacity="0.6705882352941176" d="M 317.5 7 L 323 8.5 L 320.5 9 L 317.5 8 L 317.5 7 Z " /><path fill="rgb(50,50,50)" stroke="rgb(50,50,50)" stroke-width="1" opacity="0.6705882352941176" d="M 185.5 9 L 188 9.5 L 185.5 10 L 185.5 9 Z " /><path fill="rgb(50,50,50)" stroke="rgb(50,50,50)" stroke-width="1" opacity="0.6705882352941176" d="M 324.5 9 L 327 9.5 L 324.5 10 L 324.5 9 Z " /><path fill="rgb(50,50,50)" stroke="rgb(50,50,50)" stroke-width="1" opacity="0.6705882352941176" d="M 178.5 11 L 181 11.5 L 170.5 15 L 170.5 14 L 178.5 11 Z " /><path fill="rgb(50,50,50)" stroke="rgb(50,50,50)" stroke-width="1" opacity="0.6705882352941176" d="M 331.5 11 L 345 15.5 L 343.5 16 L 331.5 12 L 331.5 11 Z " /><path fill="rgb(50,50,50)" stroke="rgb(50,50,50)" stroke-width="1" opacity="0.6705882352941176" d="M 164.5 16 L 166 16.5 L 157.5 20 L 157.5 19 L 164.5 16 Z " /><path fill="rgb(50,50,50)" stroke="rgb(50,50,50)" stroke-width="1" opacity="0.6705882352941176" d="M 346.5 16 L 350 17.5 L 348.5 18 L 346.5 16 Z " /><path fill="rgb(50,50,50)" stroke="rgb(50,50,50)" stroke-width="1" opacity="0.6705882352941176" d="M 351.5 18 L 355 19.5 L 353.5 20 L 351.5 18 Z " /><path fill="rgb(50,50,50)" stroke="rgb(50,50,50)" stroke-width="1" opacity="0.6705882352941176" d="M 154.5 20 L 156 20.5 L 150.5 23 L 150.5 22 L 154.5 20 Z " /><path fill="rgb(50,50,50)" stroke="rgb(50,50,50)" stroke-width="1" opacity="0.6705882352941176" d="M 356.5 20 L 362 22.5 L 360.5 23 L 356.5 21 L 356.5 20 Z " /><path fill="rgb(50,50,50)" stroke="rgb(50,50,50)" stroke-width="1" opacity="0.6705882352941176" d="M 145.5 24 L 147 24.5 L 138.5 29 L 139.5 27 L 145.5 24 Z " /><path fill="rgb(50,50,50)" stroke="rgb(50,50,50)" stroke-width="1" opacity="0.6705882352941176" d="M 369.5 26 L 376 29.5 L 374.5 29 L 369.5 27 L 369.5 26 Z " /><path fill="rgb(50,50,50)" stroke="rgb(50,50,50)" stroke-width="1" opacity="0.6705882352941176" d="M 134.5 30 L 133.5 32 L 127.5 35 L 128.5 33 L 134.5 30 Z " /><path fill="rgb(50,50,50)" stroke="rgb(50,50,50)" stroke-width="1" opacity="0.6705882352941176" d="M 379.5 31 L 393 39.5 L 391.5 39 L 380.5 33 L 379.5 31 Z " /><path fill="rgb(50,50,50)" stroke="rgb(50,50,50)" stroke-width="1" opacity="0.6705882352941176" d="M 125.5 35 L 124.5 37 L 119.5 40 L 120.5 38 L 125.5 35 Z " /><path fill="rgb(50,50,50)" stroke="rgb(50,50,50)" stroke-width="1" opacity="0.6705882352941176" d="M 117.5 40 L 116.5 42 L 117.5 40 Z " /><path fill="rgb(50,50,50)" stroke="rgb(50,50,50)" stroke-width="1" opacity="0.6705882352941176" d="M 394.5 40 L 402 45.5 L 399.5 44 Q 394.9 42.8 394.5 40 Z " /><path fill="rgb(50,50,50)" stroke="rgb(50,50,50)" stroke-width="1" opacity="0.6705882352941176" d="M 114.5 42 L 113.5 44 L 110.5 46 L 112.5 43 L 114.5 42 Z " /><path fill="rgb(50,50,50)" stroke="rgb(50,50,50)" stroke-width="1" opacity="0.6705882352941176" d="M 108.5 46 L 106.5 49 Q 83.1 64.6 65 85.5 L 46.5 109 L 48 106.5 Q 64 82.5 85.5 64 L 108.5 46 Z " /><path fill="rgb(50,50,50)" stroke="rgb(50,50,50)" stroke-width="1" opacity="0.6705882352941176" d="M 403.5 46 L 409 50.5 L 406.5 49 L 403.5 46 Z " /><path fill="rgb(50,50,50)" stroke="rgb(50,50,50)" stroke-width="1" opacity="0.6705882352941176" d="M 410.5 51 Q 430.6 65.9 447 84.5 L 426.5 65 L 413.5 55 L 410.5 51 Z " /><path fill="rgb(50,50,50)" stroke="rgb(50,50,50)" stroke-width="1" opacity="0.6705882352941176" d="M 447.5 86 L 461 101.5 L 457 98.5 L 447.5 86 Z " /><path fill="rgb(50,50,50)" stroke="rgb(50,50,50)" stroke-width="1" opacity="0.6705882352941176" d="M 461.5 103 L 466 108.5 L 463 106.5 L 461.5 103 Z " /><path fill="rgb(50,50,50)" stroke="rgb(50,50,50)" stroke-width="1" opacity="0.6705882352941176" d="M 45.5 110 L 44 112.5 L 40.5 118 L 41 116.5 L 45.5 110 Z " /><path fill="rgb(50,50,50)" stroke="rgb(50,50,50)" stroke-width="1" opacity="0.6705882352941176" d="M 466.5 110 L 472 117.5 L 470 116.5 L 466.5 110 Z " /><path fill="rgb(50,50,50)" stroke="rgb(50,50,50)" stroke-width="1" opacity="0.6705882352941176" d="M 39.5 119 L 39 120.5 L 35.5 126 L 36 124.5 L 39.5 119 Z " /><path fill="rgb(50,50,50)" stroke="rgb(50,50,50)" stroke-width="1" opacity="0.6705882352941176" d="M 472.5 119 L 477 125.5 L 475 124.5 L 472.5 119 Z " /><path fill="rgb(50,50,50)" stroke="rgb(50,50,50)" stroke-width="1" opacity="0.6705882352941176" d="M 34.5 127 L 34 128.5 L 31.5 133 L 32 131.5 L 34.5 127 Z " /><path fill="rgb(50,50,50)" stroke="rgb(50,50,50)" stroke-width="1" opacity="0.6705882352941176" d="M 477.5 127 L 482 134.5 L 480 133.5 L 477.5 127 Z " /><path fill="rgb(50,50,50)" stroke="rgb(50,50,50)" stroke-width="1" opacity="0.6705882352941176" d="M 29.5 136 L 29 137.5 L 24.5 147 L 24 145.5 L 29.5 136 Z " /><path fill="rgb(50,50,50)" stroke="rgb(50,50,50)" stroke-width="1" opacity="0.6705882352941176" d="M 482.5 136 L 484 138.5 L 483 138.5 L 482.5 136 Z " /><path fill="rgb(50,50,50)" stroke="rgb(50,50,50)" stroke-width="1" opacity="0.6705882352941176" d="M 488.5 148 L 492 155.5 L 491 155.5 L 488.5 148 Z " /><path fill="rgb(50,50,50)" stroke="rgb(50,50,50)" stroke-width="1" opacity="0.6705882352941176" d="M 22.5 150 L 23 151.5 L 20.5 156 L 20 154.5 L 22.5 150 Z " /><path fill="rgb(50,50,50)" stroke="rgb(50,50,50)" stroke-width="1" opacity="0.6705882352941176" d="M 19.5 157 L 20 158.5 L 18.5 161 L 18 159.5 L 19.5 157 Z " /><path fill="rgb(50,50,50)" stroke="rgb(50,50,50)" stroke-width="1" opacity="0.6705882352941176" d="M 492.5 157 L 494 160.5 L 493 160.5 L 492.5 157 Z " /><path fill="rgb(50,50,50)" stroke="rgb(50,50,50)" stroke-width="1" opacity="0.6705882352941176" d="M 17.5 162 L 18 163.5 L 16.5 166 L 16 164.5 L 17.5 162 Z " /><path fill="rgb(50,50,50)" stroke="rgb(50,50,50)" stroke-width="1" opacity="0.6705882352941176" d="M 494.5 162 L 496 165.5 L 495 165.5 L 494.5 162 Z " /><path fill="rgb(50,50,50)" stroke="rgb(50,50,50)" stroke-width="1" opacity="0.6705882352941176" d="M 15.5 167 L 16 168.5 L 14.5 172 L 14 169.5 L 15.5 167 Z " /><path fill="rgb(50,50,50)" stroke="rgb(50,50,50)" stroke-width="1" opacity="0.6705882352941176" d="M 497.5 170 L 499 174.5 L 498 174.5 L 497.5 170 Z " /><path fill="rgb(50,50,50)" stroke="rgb(50,50,50)" stroke-width="1" opacity="0.6705882352941176" d="M 13.5 173 L 14 174.5 L 11.5 181 L 11 178.5 L 13.5 173 Z " /><path fill="rgb(50,50,50)" stroke="rgb(50,50,50)" stroke-width="1" opacity="0.6705882352941176" d="M 9.5 185 L 10 187.5 L 9 187.5 L 9.5 185 Z " /><path fill="rgb(50,50,50)" stroke="rgb(50,50,50)" stroke-width="1" opacity="0.6705882352941176" d="M 502.5 185 L 503 187.5 L 502 187.5 L 502.5 185 Z " /><path fill="rgb(50,50,50)" stroke="rgb(50,50,50)" stroke-width="1" opacity="0.6705882352941176" d="M 8.5 189 L 9 191.5 L 6.5 200 L 6 196.5 L 8.5 189 Z " /><path fill="rgb(50,50,50)" stroke="rgb(50,50,50)" stroke-width="1" opacity="0.6705882352941176" d="M 503.5 189 L 504 191.5 L 503 191.5 L 503.5 189 Z " /><path fill="rgb(50,50,50)" stroke="rgb(50,50,50)" stroke-width="1" opacity="0.6705882352941176" d="M 504.5 193 L 506 199.5 L 505 199.5 L 504.5 193 Z " /><path fill="rgb(50,50,50)" stroke="rgb(50,50,50)" stroke-width="1" opacity="0.6705882352941176" d="M 5.5 201 L 6 204.5 L 5 204.5 L 5.5 201 Z " /><path fill="rgb(50,50,50)" stroke="rgb(50,50,50)" stroke-width="1" opacity="0.6705882352941176" d="M 506.5 201 L 507 204.5 L 506 204.5 L 506.5 201 Z " /><path fill="rgb(50,50,50)" stroke="rgb(50,50,50)" stroke-width="1" opacity="0.6705882352941176" d="M 4.5 206 L 5 209.5 L 4 209.5 L 4.5 206 Z " /><path fill="rgb(50,50,50)" stroke="rgb(50,50,50)" stroke-width="1" opacity="0.6705882352941176" d="M 507.5 206 L 508 209.5 L 507 209.5 L 507.5 206 Z " /><path fill="rgb(50,50,50)" stroke="rgb(50,50,50)" stroke-width="1" opacity="0.6705882352941176" d="M 3.5 211 L 4 215.5 L 3 215.5 L 3.5 211 Z " /><path fill="rgb(50,50,50)" stroke="rgb(50,50,50)" stroke-width="1" opacity="0.6705882352941176" d="M 508.5 211 L 509 215.5 L 508 215.5 L 508.5 211 Z " /><path fill="rgb(50,50,50)" stroke="rgb(50,50,50)" stroke-width="1" opacity="0.6705882352941176" d="M 2.5 217 L 3 221.5 L 2 221.5 L 2.5 217 Z " /><path fill="rgb(50,50,50)" stroke="rgb(50,50,50)" stroke-width="1" opacity="0.6705882352941176" d="M 509.5 217 L 510 222.5 L 509 222.5 L 509.5 217 Z " /><path fill="rgb(50,50,50)" stroke="rgb(50,50,50)" stroke-width="1" opacity="0.6705882352941176" d="M 1.5 224 L 2 230.5 L 1 230.5 L 1.5 224 Z " /><path fill="rgb(50,50,50)" stroke="rgb(50,50,50)" stroke-width="1" opacity="0.6705882352941176" d="M 510.5 225 L 511 231.5 L 510 231.5 L 510.5 225 Z " /><path fill="rgb(50,50,50)" stroke="rgb(50,50,50)" stroke-width="1" opacity="0.6705882352941176" d="M 0.5 234 L 1 246.5 L 0 246.5 L 0.5 234 Z " /><path fill="rgb(50,50,50)" stroke="rgb(50,50,50)" stroke-width="1" opacity="0.6705882352941176" d="M 511.5 234 L 512 246.5 L 511 246.5 L 511.5 234 Z " /><path fill="rgb(50,50,50)" stroke="rgb(50,50,50)" stroke-width="1" opacity="0.6705882352941176" d="M 0.5 265 L 1 277.5 L 0 277.5 L 0.5 265 Z " /><path fill="rgb(50,50,50)" stroke="rgb(50,50,50)" stroke-width="1" opacity="0.6705882352941176" d="M 511.5 265 L 512 276.5 L 511 276.5 L 511.5 265 Z " /><path fill="rgb(50,50,50)" stroke="rgb(50,50,50)" stroke-width="1" opacity="0.6705882352941176" d="M 510.5 280 L 511 287.5 L 510 287.5 L 510.5 280 Z " /><path fill="rgb(50,50,50)" stroke="rgb(50,50,50)" stroke-width="1" opacity="0.6705882352941176" d="M 1.5 281 L 2 287.5 L 1 287.5 L 1.5 281 Z " /><path fill="rgb(50,50,50)" stroke="rgb(50,50,50)" stroke-width="1" opacity="0.6705882352941176" d="M 2.5 289 L 3 294.5 L 2 294.5 L 2.5 289 Z " /><path fill="rgb(50,50,50)" stroke="rgb(50,50,50)" stroke-width="1" opacity="0.6705882352941176" d="M 509.5 289 L 510 294.5 L 509 294.5 L 509.5 289 Z " /><path fill="rgb(50,50,50)" stroke="rgb(50,50,50)" stroke-width="1" opacity="0.6705882352941176" d="M 3.5 296 L 4 300.5 L 3 300.5 L 3.5 296 Z " /><path fill="rgb(50,50,50)" stroke="rgb(50,50,50)" stroke-width="1" opacity="0.6705882352941176" d="M 508.5 296 L 509 300.5 L 508 300.5 L 508.5 296 Z " /><path fill="rgb(50,50,50)" stroke="rgb(50,50,50)" stroke-width="1" opacity="0.6705882352941176" d="M 4.5 302 L 5 305.5 L 4 305.5 L 4.5 302 Z " /><path fill="rgb(50,50,50)" stroke="rgb(50,50,50)" stroke-width="1" opacity="0.6705882352941176" d="M 507.5 302 L 508 305.5 L 507 305.5 L 507.5 302 Z " /><path fill="rgb(50,50,50)" stroke="rgb(50,50,50)" stroke-width="1" opacity="0.6705882352941176" d="M 5.5 307 L 6 310.5 L 5 310.5 L 5.5 307 Z " /><path fill="rgb(50,50,50)" stroke="rgb(50,50,50)" stroke-width="1" opacity="0.6705882352941176" d="M 506.5 307 L 507 310.5 L 506 310.5 L 506.5 307 Z " /><path fill="rgb(50,50,50)" stroke="rgb(50,50,50)" stroke-width="1" opacity="0.6705882352941176" d="M 6.5 312 L 9 322.5 L 8 322.5 L 6.5 312 Z " /><path fill="rgb(50,50,50)" stroke="rgb(50,50,50)" stroke-width="1" opacity="0.6705882352941176" d="M 505.5 312 L 506 314.5 L 505 314.5 L 505.5 312 Z " /><path fill="rgb(50,50,50)" stroke="rgb(50,50,50)" stroke-width="1" opacity="0.6705882352941176" d="M 504.5 316 L 505 318.5 L 504 318.5 L 504.5 316 Z " /><path fill="rgb(50,50,50)" stroke="rgb(50,50,50)" stroke-width="1" opacity="0.6705882352941176" d="M 503.5 320 L 504 322.5 L 503 322.5 L 503.5 320 Z " /><path fill="rgb(50,50,50)" stroke="rgb(50,50,50)" stroke-width="1" opacity="0.6705882352941176" d="M 9.5 324 L 10 326.5 L 9 326.5 L 9.5 324 Z " /><path fill="rgb(50,50,50)" stroke="rgb(50,50,50)" stroke-width="1" opacity="0.6705882352941176" d="M 502.5 324 L 503 326.5 L 502 326.5 L 502.5 324 Z " /><path fill="rgb(50,50,50)" stroke="rgb(50,50,50)" stroke-width="1" opacity="0.6705882352941176" d="M 12.5 334 L 15 341.5 L 14 341.5 L 12.5 334 Z " /><path fill="rgb(50,50,50)" stroke="rgb(50,50,50)" stroke-width="1" opacity="0.6705882352941176" d="M 499.5 334 L 500 336.5 L 497.5 342 L 497 340.5 L 499.5 334 Z " /><path fill="rgb(50,50,50)" stroke="rgb(50,50,50)" stroke-width="1" opacity="0.6705882352941176" d="M 16.5 346 L 18 349.5 L 17 349.5 L 16.5 346 Z " /><path fill="rgb(50,50,50)" stroke="rgb(50,50,50)" stroke-width="1" opacity="0.6705882352941176" d="M 495.5 346 L 496 347.5 L 494.5 350 L 494 348.5 L 495.5 346 Z " /><path fill="rgb(50,50,50)" stroke="rgb(50,50,50)" stroke-width="1" opacity="0.6705882352941176" d="M 18.5 351 L 20 354.5 L 19 354.5 L 18.5 351 Z " /><path fill="rgb(50,50,50)" stroke="rgb(50,50,50)" stroke-width="1" opacity="0.6705882352941176" d="M 493.5 351 L 494 352.5 L 492.5 355 L 492 353.5 L 493.5 351 Z " /><path fill="rgb(50,50,50)" stroke="rgb(50,50,50)" stroke-width="1" opacity="0.6705882352941176" d="M 20.5 356 L 23 361.5 L 22 361.5 L 20.5 356 Z " /><path fill="rgb(50,50,50)" stroke="rgb(50,50,50)" stroke-width="1" opacity="0.6705882352941176" d="M 491.5 356 L 492 357.5 L 489.5 362 L 489 360.5 L 491.5 356 Z " /><path fill="rgb(50,50,50)" stroke="rgb(50,50,50)" stroke-width="1" opacity="0.6705882352941176" d="M 24.5 365 L 27 369.5 L 25 368.5 L 24.5 365 Z " /><path fill="rgb(50,50,50)" stroke="rgb(50,50,50)" stroke-width="1" opacity="0.6705882352941176" d="M 27.5 371 L 29 373.5 L 27 372.5 L 27.5 371 Z " /><path fill="rgb(50,50,50)" stroke="rgb(50,50,50)" stroke-width="1" opacity="0.6705882352941176" d="M 483.5 373 L 484 374.5 L 482 375.5 L 483.5 373 Z " /><path fill="rgb(50,50,50)" stroke="rgb(50,50,50)" stroke-width="1" opacity="0.6705882352941176" d="M 30.5 377 L 40 392.5 L 38 391.5 L 30.5 377 Z " /><path fill="rgb(50,50,50)" stroke="rgb(50,50,50)" stroke-width="1" opacity="0.6705882352941176" d="M 481.5 377 L 481 378.5 L 478.5 383 L 479 381.5 L 481.5 377 Z " /><path fill="rgb(50,50,50)" stroke="rgb(50,50,50)" stroke-width="1" opacity="0.6705882352941176" d="M 477.5 384 L 477 385.5 L 472.5 393 L 473 391.5 L 477.5 384 Z " /><path fill="rgb(50,50,50)" stroke="rgb(50,50,50)" stroke-width="1" opacity="0.6705882352941176" d="M 40.5 394 L 46 401.5 L 43 399.5 L 40.5 394 Z " /><path fill="rgb(50,50,50)" stroke="rgb(50,50,50)" stroke-width="1" opacity="0.6705882352941176" d="M 471.5 394 L 470.5 396 L 471.5 394 Z " /><path fill="rgb(50,50,50)" stroke="rgb(50,50,50)" stroke-width="1" opacity="0.6705882352941176" d="M 469.5 397 L 469 398.5 L 466.5 402 L 468 399.5 L 469.5 397 Z " /><path fill="rgb(50,50,50)" stroke="rgb(50,50,50)" stroke-width="1" opacity="0.6705882352941176" d="M 46.5 403 L 51 408.5 L 48 406.5 L 46.5 403 Z " /><path fill="rgb(50,50,50)" stroke="rgb(50,50,50)" stroke-width="1" opacity="0.6705882352941176" d="M 465.5 403 L 464 405.5 L 447.5 426 L 453 419.5 L 465.5 403 Z " /><path fill="rgb(50,50,50)" stroke="rgb(50,50,50)" stroke-width="1" opacity="0.6705882352941176" d="M 51.5 410 Q 66.6 429.9 85 446.5 L 64 426.5 L 51.5 410 Z " /><path fill="rgb(50,50,50)" stroke="rgb(50,50,50)" stroke-width="1" opacity="0.6705882352941176" d="M 446.5 427 L 427.5 447 L 446.5 427 Z " /><path fill="rgb(50,50,50)" stroke="rgb(50,50,50)" stroke-width="1" opacity="0.6705882352941176" d="M 86.5 447 Q 99.2 459.8 115 469.5 L 113.5 469 L 92.5 454 L 86.5 447 Z " /><path fill="rgb(50,50,50)" stroke="rgb(50,50,50)" stroke-width="1" opacity="0.6705882352941176" d="M 425.5 447 L 420.5 453 L 425.5 447 Z " /><path fill="rgb(50,50,50)" stroke="rgb(50,50,50)" stroke-width="1" opacity="0.6705882352941176" d="M 418.5 453 L 414.5 458 L 410.5 461 L 413.5 457 L 418.5 453 Z " /><path fill="rgb(50,50,50)" stroke="rgb(50,50,50)" stroke-width="1" opacity="0.6705882352941176" d="M 408.5 461 L 406.5 464 L 403.5 466 L 405.5 463 L 408.5 461 Z " /><path fill="rgb(50,50,50)" stroke="rgb(50,50,50)" stroke-width="1" opacity="0.6705882352941176" d="M 401.5 466 L 399.5 469 L 394.5 472 L 395.5 470 L 401.5 466 Z " /><path fill="rgb(50,50,50)" stroke="rgb(50,50,50)" stroke-width="1" opacity="0.6705882352941176" d="M 116.5 470 L 135 481.5 L 133.5 481 L 118.5 473 L 116.5 470 Z " /><path fill="rgb(50,50,50)" stroke="rgb(50,50,50)" stroke-width="1" opacity="0.6705882352941176" d="M 392.5 472 L 391.5 474 L 384.5 478 L 385.5 476 L 392.5 472 Z " /><path fill="rgb(50,50,50)" stroke="rgb(50,50,50)" stroke-width="1" opacity="0.6705882352941176" d="M 382.5 478 L 381.5 480 L 377.5 482 L 378.5 480 L 382.5 478 Z " /><path fill="rgb(50,50,50)" stroke="rgb(50,50,50)" stroke-width="1" opacity="0.6705882352941176" d="M 375.5 482 L 374.5 484 L 373 483.5 L 375.5 482 Z " /><path fill="rgb(50,50,50)" stroke="rgb(50,50,50)" stroke-width="1" opacity="0.6705882352941176" d="M 138.5 483 L 143 485.5 L 141.5 486 L 138.5 483 Z " /><path fill="rgb(50,50,50)" stroke="rgb(50,50,50)" stroke-width="1" opacity="0.6705882352941176" d="M 369.5 485 L 368.5 487 L 365.5 488 L 365.5 487 L 369.5 485 Z " /><path fill="rgb(50,50,50)" stroke="rgb(50,50,50)" stroke-width="1" opacity="0.6705882352941176" d="M 148.5 488 L 156 491.5 L 154.5 492 L 148.5 489 L 148.5 488 Z " /><path fill="rgb(50,50,50)" stroke="rgb(50,50,50)" stroke-width="1" opacity="0.6705882352941176" d="M 360.5 489 L 362 489.5 L 356.5 492 L 356.5 491 L 360.5 489 Z " /><path fill="rgb(50,50,50)" stroke="rgb(50,50,50)" stroke-width="1" opacity="0.6705882352941176" d="M 157.5 492 L 161 493.5 L 159.5 494 L 157.5 492 Z " /><path fill="rgb(50,50,50)" stroke="rgb(50,50,50)" stroke-width="1" opacity="0.6705882352941176" d="M 353.5 492 L 355 492.5 L 351.5 494 L 351.5 493 L 353.5 492 Z " /><path fill="rgb(50,50,50)" stroke="rgb(50,50,50)" stroke-width="1" opacity="0.6705882352941176" d="M 162.5 494 L 166 495.5 L 164.5 496 L 162.5 494 Z " /><path fill="rgb(50,50,50)" stroke="rgb(50,50,50)" stroke-width="1" opacity="0.6705882352941176" d="M 348.5 494 L 350 494.5 L 346.5 496 L 346.5 495 L 348.5 494 Z " /><path fill="rgb(50,50,50)" stroke="rgb(50,50,50)" stroke-width="1" opacity="0.6705882352941176" d="M 170.5 497 L 178 499.5 L 175.5 500 L 170.5 498 L 170.5 497 Z " /><path fill="rgb(50,50,50)" stroke="rgb(50,50,50)" stroke-width="1" opacity="0.6705882352941176" d="M 340.5 497 L 342 497.5 L 331.5 501 L 331.5 500 L 340.5 497 Z " /><path fill="rgb(50,50,50)" stroke="rgb(50,50,50)" stroke-width="1" opacity="0.6705882352941176" d="M 185.5 502 L 188 502.5 L 185.5 503 L 185.5 502 Z " /><path fill="rgb(50,50,50)" stroke="rgb(50,50,50)" stroke-width="1" opacity="0.6705882352941176" d="M 324.5 502 L 327 502.5 L 324.5 503 L 324.5 502 Z " /><path fill="rgb(50,50,50)" stroke="rgb(50,50,50)" stroke-width="1" opacity="0.6705882352941176" d="M 189.5 503 L 192 503.5 L 189.5 504 L 189.5 503 Z " /><path fill="rgb(50,50,50)" stroke="rgb(50,50,50)" stroke-width="1" opacity="0.6705882352941176" d="M 320.5 503 L 323 503.5 L 316.5 505 L 316.5 504 L 320.5 503 Z " /><path fill="rgb(50,50,50)" stroke="rgb(50,50,50)" stroke-width="1" opacity="0.6705882352941176" d="M 193.5 504 L 196 504.5 L 193.5 505 L 193.5 504 Z " /><path fill="rgb(50,50,50)" stroke="rgb(50,50,50)" stroke-width="1" opacity="0.6705882352941176" d="M 197.5 505 L 200 505.5 L 197.5 506 L 197.5 505 Z " /><path fill="rgb(50,50,50)" stroke="rgb(50,50,50)" stroke-width="1" opacity="0.6705882352941176" d="M 312.5 505 L 315 505.5 L 312.5 506 L 312.5 505 Z " /><path fill="rgb(50,50,50)" stroke="rgb(50,50,50)" stroke-width="1" opacity="0.6705882352941176" d="M 201.5 506 L 205 506.5 L 201.5 507 L 201.5 506 Z " /><path fill="rgb(50,50,50)" stroke="rgb(50,50,50)" stroke-width="1" opacity="0.6705882352941176" d="M 307.5 506 L 311 506.5 L 307.5 507 L 307.5 506 Z " /><path fill="rgb(50,50,50)" stroke="rgb(50,50,50)" stroke-width="1" opacity="0.6705882352941176" d="M 206.5 507 L 210 507.5 L 206.5 508 L 206.5 507 Z " /><path fill="rgb(50,50,50)" stroke="rgb(50,50,50)" stroke-width="1" opacity="0.6705882352941176" d="M 302.5 507 L 306 507.5 L 302.5 508 L 302.5 507 Z " /><path fill="rgb(50,50,50)" stroke="rgb(50,50,50)" stroke-width="1" opacity="0.6705882352941176" d="M 211.5 508 L 216 508.5 L 211.5 509 L 211.5 508 Z " /><path fill="rgb(50,50,50)" stroke="rgb(50,50,50)" stroke-width="1" opacity="0.6705882352941176" d="M 297.5 508 L 301 508.5 L 297.5 509 L 297.5 508 Z " /><path fill="rgb(50,50,50)" stroke="rgb(50,50,50)" stroke-width="1" opacity="0.6705882352941176" d="M 217.5 509 L 223 509.5 L 217.5 510 L 217.5 509 Z " /><path fill="rgb(50,50,50)" stroke="rgb(50,50,50)" stroke-width="1" opacity="0.6705882352941176" d="M 289.5 509 L 295 509.5 L 289.5 510 L 289.5 509 Z " /><path fill="rgb(50,50,50)" stroke="rgb(50,50,50)" stroke-width="1" opacity="0.6705882352941176" d="M 225.5 510 L 232 510.5 L 225.5 511 L 225.5 510 Z " /><path fill="rgb(50,50,50)" stroke="rgb(50,50,50)" stroke-width="1" opacity="0.6705882352941176" d="M 280.5 510 L 287 510.5 L 280.5 511 L 280.5 510 Z " /><path fill="rgb(50,50,50)" stroke="rgb(50,50,50)" stroke-width="1" opacity="0.6705882352941176" d="M 234.5 511 L 247 511.5 L 234.5 512 L 234.5 511 Z " /><path fill="rgb(50,50,50)" stroke="rgb(50,50,50)" stroke-width="1" opacity="0.6705882352941176" d="M 265.5 511 L 278 511.5 L 265.5 512 L 265.5 511 Z " /><path fill="rgb(0,0,0)" stroke="rgb(0,0,0)" stroke-width="1" opacity="0" d="M 0 0 L 234 0.5 L 217.5 2 L 192.5 7 L 172.5 13 L 145.5 24 Q 97.4 47.4 64 85.5 Q 37.3 115.3 20 154.5 L 14 169.5 L 6 196.5 L 2 217.5 L 0.5 234 L 0 0 Z " /><path fill="rgb(0,0,0)" stroke="rgb(0,0,0)" stroke-width="1" opacity="0" d="M 278.5 0 L 512 0 L 512 233.5 L 511 233.5 L 509 211.5 L 503 185.5 Q 495.4 159.6 484 137.5 Q 461.2 94.8 426.5 64 Q 396.7 37.3 357.5 20 L 319.5 7 L 294.5 2 L 278.5 1 L 278.5 0 Z " /><path fill="rgb(0,0,0)" stroke="rgb(0,0,0)" stroke-width="1" opacity="0" d="M 511.5 277 L 512 512 L 278 511.5 L 294.5 510 L 319.5 505 L 339.5 499 L 366.5 488 Q 413.8 464.8 447 427.5 Q 474.5 397.5 492 357.5 L 500 336.5 L 507 310.5 L 511 287.5 L 511.5 277 Z " /><path fill="rgb(0,0,0)" stroke="rgb(0,0,0)" stroke-width="1" opacity="0" d="M 0.5 278 L 2 294.5 L 7 319.5 L 13 339.5 L 24 366.5 Q 47.2 413.8 84.5 447 Q 114.4 474.6 154.5 492 L 175.5 500 L 201.5 507 L 234 511.5 L 0 512 L 0.5 278 Z " /><path fill="rgb(51,51,51)" stroke="rgb(51,51,51)" stroke-width="1" opacity="1" d="M 247.5 0 L 280.5 1 L 281.5 2 L 302.5 4 L 327.5 10 L 355.5 20 Q 410.2 43.8 447 85.5 Q 478 119.5 496 166.5 L 502 184.5 L 509 216.5 L 510 231.5 L 511 232.5 L 511 246.5 L 512 247.5 L 512 264.5 L 511 265.5 L 510 288.5 L 506 311.5 L 502 327.5 L 489 362.5 Q 465.5 412.5 426.5 447 Q 392.4 477.9 345.5 496 L 327.5 502 L 296.5 509 L 280.5 510 L 279.5 511 L 265.5 511 L 264.5 512 L 247.5 512 L 246.5 511 L 223.5 510 L 200.5 506 Q 171.5 499.5 147.5 488 Q 99.6 464.9 66 427.5 Q 34.4 393.1 16 345.5 L 10 327.5 L 3 295.5 L 2 281.5 L 1 280.5 L 0 247.5 L 1 246.5 L 2 222.5 L 6 200.5 L 10 184.5 L 23 149.5 Q 46.5 99.5 85.5 65 Q 116 37.5 156.5 20 Q 176.7 11.2 200.5 6 L 223.5 2 L 246.5 1 L 247.5 0 Z M 205 102 L 204 103 L 196 103 L 186 106 L 174 113 Q 158 124 154 146 L 154 162 L 155 167 Q 159 180 168 190 L 185 201 L 200 205 Q 184 206 175 214 L 161 229 L 155 242 L 153 253 L 155 271 L 163 287 L 178 300 L 197 308 Q 182 310 173 318 L 160 333 L 154 348 Q 156 353 153 355 Q 153 379 165 392 Q 177 406 200 410 L 211 410 L 220 408 L 236 400 Q 251 389 256 367 L 257 265 Q 259 279 266 288 L 282 301 L 294 306 L 306 307 L 307 308 L 325 305 Q 336 301 344 293 L 354 279 L 359 261 L 359 252 L 356 239 L 353 232 L 344 219 L 327 208 L 313 205 Q 330 202 341 193 Q 354 182 358 163 Q 360 149 357 141 Q 353 127 345 119 L 330 107 L 322 104 L 311 102 L 205 102 Z " /><path fill="rgb(51,51,51)" stroke="rgb(51,51,51)" stroke-width="1" opacity="1" d="M 256 205 L 297 205.5 Q 277.2 209.7 267 223.5 Q 258.9 232.4 256.5 247 L 256 205 Z " /><path fill="rgb(161,88,254)" stroke="rgb(161,88,254)" stroke-width="1" opacity="1" d="M 197.5 205 L 256 205 L 256 307 L 197.5 307 L 192.5 306 Q 174.9 301.1 165 288.5 L 156 272.5 L 154 264.5 L 154 247.5 Q 158.3 226.8 172.5 216 Q 182.3 207.8 197.5 205 Z " /><path fill="rgb(26,187,253)" stroke="rgb(26,187,253)" stroke-width="1" opacity="1" d="M 300.5 205 L 313.5 205 L 325.5 208 Q 338.9 213.1 347 223.5 Q 354 231.5 357 243.5 L 358 248.5 L 358 264.5 Q 353.8 285.3 339.5 296 L 319.5 306 L 300.5 307 Q 280.9 303.6 270 291.5 L 260 276.5 L 256 261.5 L 256 250.5 L 260 235.5 L 271 219 L 286.5 209 L 300.5 205 Z " /><path fill="rgb(10,206,130)" stroke="rgb(10,206,130)" stroke-width="1" opacity="1" d="M 201.5 307 L 256 307 L 256 363.5 Q 252.3 386.3 237.5 398 Q 229.7 404.7 218.5 408 L 213.5 409 L 195.5 409 Q 174.8 404.2 164 389.5 L 155 371.5 L 154 366.5 L 154 350.5 L 157 339.5 L 168 322 L 182.5 312 L 190.5 309 L 201.5 307 Z " /><path fill="rgb(54,96,105)" stroke="rgb(54,96,105)" stroke-width="1" opacity="1" d="M 297.5 205 L 300 205.5 L 297.5 206 L 297.5 205 Z " /><path fill="rgb(54,96,105)" stroke="rgb(54,96,105)" stroke-width="1" opacity="1" d="M 314.5 205 L 317 205.5 L 314.5 206 L 314.5 205 Z " /><path fill="rgb(54,96,105)" stroke="rgb(54,96,105)" stroke-width="1" opacity="1" d="M 281.5 211 L 280.5 213 L 281.5 211 Z " /><path fill="rgb(54,96,105)" stroke="rgb(54,96,105)" stroke-width="1" opacity="1" d="M 174.5 214 L 173.5 216 L 174.5 214 Z " /><path fill="rgb(54,96,105)" stroke="rgb(54,96,105)" stroke-width="1" opacity="1" d="M 337.5 214 L 338.5 216 L 337.5 214 Z " /><path fill="rgb(54,96,105)" stroke="rgb(54,96,105)" stroke-width="1" opacity="1" d="M 275.5 215 L 272.5 219 L 275.5 215 Z " /><path fill="rgb(54,96,105)" stroke="rgb(54,96,105)" stroke-width="1" opacity="1" d="M 270.5 220 L 267.5 224 L 270.5 220 Z " /><path fill="rgb(54,96,105)" stroke="rgb(54,96,105)" stroke-width="1" opacity="1" d="M 164.5 224 L 163.5 226 L 164.5 224 Z " /><path fill="rgb(54,96,105)" stroke="rgb(54,96,105)" stroke-width="1" opacity="1" d="M 347.5 224 L 348.5 226 L 347.5 224 Z " /><path fill="rgb(54,96,105)" stroke="rgb(54,96,105)" stroke-width="1" opacity="1" d="M 265.5 226 L 264.5 228 L 265.5 226 Z " /><path fill="rgb(54,96,105)" stroke="rgb(54,96,105)" stroke-width="1" opacity="1" d="M 263.5 229 L 262.5 231 L 263.5 229 Z " /><path fill="rgb(54,96,105)" stroke="rgb(54,96,105)" stroke-width="1" opacity="1" d="M 351.5 230 L 352.5 232 L 351.5 230 Z " /><path fill="rgb(54,96,105)" stroke="rgb(54,96,105)" stroke-width="1" opacity="1" d="M 357.5 245 L 358 247.5 L 357 247.5 L 357.5 245 Z " /><path fill="rgb(54,96,105)" stroke="rgb(54,96,105)" stroke-width="1" opacity="1" d="M 256.5 247 L 257 249.5 L 256 249.5 L 256.5 247 Z " /><path fill="rgb(54,96,105)" stroke="rgb(54,96,105)" stroke-width="1" opacity="1" d="M 358.5 251 L 359 260.5 L 358 260.5 L 358.5 251 Z " /><path fill="rgb(54,96,105)" stroke="rgb(54,96,105)" stroke-width="1" opacity="1" d="M 153.5 252 L 154 259.5 L 153 259.5 L 153.5 252 Z " /><path fill="rgb(54,96,105)" stroke="rgb(54,96,105)" stroke-width="1" opacity="1" d="M 256.5 262 L 257 264.5 L 256 264.5 L 256.5 262 Z " /><path fill="rgb(54,96,105)" stroke="rgb(54,96,105)" stroke-width="1" opacity="1" d="M 352.5 280 L 351.5 282 L 352.5 280 Z " /><path fill="rgb(54,96,105)" stroke="rgb(54,96,105)" stroke-width="1" opacity="1" d="M 262.5 281 L 263.5 283 L 262.5 281 Z " /><path fill="rgb(54,96,105)" stroke="rgb(54,96,105)" stroke-width="1" opacity="1" d="M 163.5 286 L 164.5 288 L 163.5 286 Z " /><path fill="rgb(54,96,105)" stroke="rgb(54,96,105)" stroke-width="1" opacity="1" d="M 348.5 286 L 347.5 288 L 348.5 286 Z " /><path fill="rgb(54,96,105)" stroke="rgb(54,96,105)" stroke-width="1" opacity="1" d="M 266.5 287 L 269.5 291 L 266.5 287 Z " /><path fill="rgb(54,96,105)" stroke="rgb(54,96,105)" stroke-width="1" opacity="1" d="M 344.5 291 L 343.5 293 L 344.5 291 Z " /><path fill="rgb(54,96,105)" stroke="rgb(54,96,105)" stroke-width="1" opacity="1" d="M 272.5 293 L 275.5 297 L 272.5 293 Z " /><path fill="rgb(54,96,105)" stroke="rgb(54,96,105)" stroke-width="1" opacity="1" d="M 173.5 296 L 174.5 298 L 173.5 296 Z " /><path fill="rgb(54,96,105)" stroke="rgb(54,96,105)" stroke-width="1" opacity="1" d="M 338.5 296 L 337.5 298 L 338.5 296 Z " /><path fill="rgb(54,96,105)" stroke="rgb(54,96,105)" stroke-width="1" opacity="1" d="M 195.5 306 L 201 307.5 L 197.5 308 L 195.5 306 Z " /><path fill="rgb(54,96,105)" stroke="rgb(54,96,105)" stroke-width="1" opacity="1" d="M 297.5 306 L 300 306.5 L 297.5 307 L 297.5 306 Z " /><path fill="rgb(54,96,105)" stroke="rgb(54,96,105)" stroke-width="1" opacity="1" d="M 306.5 307 L 309 307.5 L 306.5 308 L 306.5 307 Z " /><path fill="rgb(54,96,105)" stroke="rgb(54,96,105)" stroke-width="1" opacity="1" d="M 176.5 315 L 175.5 317 L 176.5 315 Z " /><path fill="rgb(54,96,105)" stroke="rgb(54,96,105)" stroke-width="1" opacity="1" d="M 172.5 318 L 169.5 322 L 172.5 318 Z " /><path fill="rgb(54,96,105)" stroke="rgb(54,96,105)" stroke-width="1" opacity="1" d="M 167.5 323 L 164.5 327 L 167.5 323 Z " /><path fill="rgb(54,96,105)" stroke="rgb(54,96,105)" stroke-width="1" opacity="1" d="M 154.5 347 L 155 349.5 L 154 349.5 L 154.5 347 Z " /><path fill="rgb(54,96,105)" stroke="rgb(54,96,105)" stroke-width="1" opacity="1" d="M 153.5 354 L 154 362.5 L 153 362.5 L 153.5 354 Z " /><path fill="rgb(54,96,105)" stroke="rgb(54,96,105)" stroke-width="1" opacity="1" d="M 255.5 364 L 256 366.5 L 255 366.5 L 255.5 364 Z " /><path fill="rgb(54,96,105)" stroke="rgb(54,96,105)" stroke-width="1" opacity="1" d="M 160.5 384 L 161.5 386 L 160.5 384 Z " /><path fill="rgb(54,96,105)" stroke="rgb(54,96,105)" stroke-width="1" opacity="1" d="M 162.5 387 L 163.5 389 L 162.5 387 Z " /><path fill="rgb(54,96,105)" stroke="rgb(54,96,105)" stroke-width="1" opacity="1" d="M 245.5 389 L 244.5 391 L 245.5 389 Z " /><path fill="rgb(54,96,105)" stroke="rgb(54,96,105)" stroke-width="1" opacity="1" d="M 165.5 391 L 171.5 398 L 165.5 391 Z " /><path fill="rgb(54,96,105)" stroke="rgb(54,96,105)" stroke-width="1" opacity="1" d="M 236.5 398 L 235.5 400 L 236.5 398 Z " /><path fill="rgb(54,96,105)" stroke="rgb(54,96,105)" stroke-width="1" opacity="1" d="M 174.5 399 L 175.5 401 L 174.5 399 Z " /><path fill="rgb(54,96,105)" stroke="rgb(54,96,105)" stroke-width="1" opacity="1" d="M 177.5 401 L 178.5 403 L 177.5 401 Z " /><path fill="rgb(54,96,105)" stroke="rgb(54,96,105)" stroke-width="1" opacity="1" d="M 199.5 409 L 211 409.5 L 199.5 410 L 199.5 409 Z " /></svg>