<svg width="2048" height="2048" version="1.1" xmlns="http://www.w3.org/2000/svg" desc="Created with imagetracer.js version 1.2.6" ><path fill="rgb(1,1,0)" stroke="rgb(1,1,0)" stroke-width="1" opacity="1" d="M 1549.5 929 L 1591.5 930 L 1592.5 931 L 1603.5 931 L 1604.5 932 L 1626.5 934 L 1659.5 941 L 1684.5 949 Q 1748.8 974.2 1790 1022.5 Q 1814.2 1049.8 1832 1083.5 L 1684.5 1179 L 1682.5 1179 Q 1667.3 1150.7 1645.5 1129 Q 1629.1 1112.9 1605.5 1104 L 1579.5 1098 L 1550.5 1097 L 1549.5 1098 L 1535.5 1099 L 1513.5 1106 Q 1495.8 1114.3 1484 1128.5 Q 1474.9 1139.4 1470 1154.5 L 1467 1168.5 L 1467 1193.5 Q 1473.3 1231.3 1498.5 1250 L 1521.5 1266 L 1562.5 1287 L 1665.5 1331 L 1728.5 1363 Q 1781.6 1391.9 1822 1433.5 Q 1860 1472.5 1878 1531.5 L 1887 1576.5 L 1888 1601.5 L 1889 1602.5 L 1889 1635.5 L 1888 1636.5 L 1887 1658.5 L 1883 1681.5 L 1876 1707.5 L 1868 1728.5 Q 1845.5 1778.5 1806.5 1812 Q 1760.9 1851.4 1695.5 1871 L 1668.5 1878 L 1640.5 1883 L 1634.5 1883 L 1633.5 1884 L 1605.5 1886 L 1604.5 1887 L 1559.5 1888 L 1558.5 1887 L 1535.5 1887 L 1534.5 1886 L 1512.5 1885 L 1511.5 1884 L 1504.5 1884 L 1503.5 1883 L 1473.5 1879 L 1433.5 1869 L 1392.5 1854 Q 1323 1823.5 1275 1771.5 L 1243 1731.5 L 1224 1700.5 L 1220 1690 L 1375.5 1600 Q 1394.8 1632.7 1420.5 1659 Q 1448.1 1687.9 1488.5 1704 L 1503.5 1709 L 1531.5 1715 L 1551.5 1716 L 1552.5 1717 L 1577.5 1717 L 1578.5 1716 L 1589.5 1716 L 1590.5 1715 L 1608.5 1713 L 1634.5 1705 Q 1659.6 1695.1 1676 1676.5 Q 1687.1 1664.1 1693 1646.5 L 1696 1632.5 L 1696 1609.5 L 1693 1594.5 L 1686 1577.5 Q 1676.6 1561.4 1662.5 1550 Q 1636 1529.5 1603.5 1515 L 1496.5 1469 L 1437.5 1440 Q 1406.5 1423 1379.5 1402 L 1344 1369.5 Q 1307.3 1331.2 1289 1274.5 L 1284 1255.5 L 1279 1226.5 L 1278 1204.5 L 1277 1203.5 L 1277 1165.5 L 1278 1164.5 L 1278 1154.5 L 1279 1153.5 L 1280 1139.5 L 1286 1112.5 Q 1292.6 1090.1 1302 1070.5 Q 1322.9 1029.4 1355.5 1000 Q 1391 967.5 1440.5 949 L 1461.5 942 L 1491.5 935 L 1509.5 933 L 1510.5 932 L 1517.5 932 L 1518.5 931 L 1548.5 930 L 1549.5 929 Z " /><path fill="rgb(1,1,0)" stroke="rgb(1,1,0)" stroke-width="1" opacity="1" d="M 923 940 L 1114.5 940 L 1115 940.5 L 1115 1624.5 L 1114 1625.5 L 1114 1638.5 L 1113 1639.5 L 1112 1656.5 L 1106 1689.5 L 1096 1723.5 L 1087 1745.5 Q 1065.6 1791.6 1029.5 1823 Q 990.4 1857.4 933.5 1874 L 898.5 1882 L 878.5 1884 L 877.5 1885 L 868.5 1885 L 867.5 1886 L 854.5 1886 L 853.5 1887 L 802.5 1887 L 801.5 1886 L 789.5 1886 L 788.5 1885 L 772.5 1884 L 740.5 1878 L 721.5 1873 L 686.5 1860 Q 628.4 1833.6 589 1788.5 Q 559.1 1755.4 540 1711.5 L 695.5 1617 L 723 1661.5 Q 735.3 1679.2 751.5 1693 Q 765.5 1704.5 784.5 1711 L 802.5 1715 L 827.5 1716 L 828.5 1715 L 848.5 1714 L 867.5 1709 Q 886.1 1702.1 898 1688.5 Q 910.1 1674.6 916 1654.5 L 921 1630.5 L 922 1609.5 L 923 1608.5 L 923 940 Z " /><path fill="rgb(246,223,23)" stroke="rgb(246,223,23)" stroke-width="1" opacity="1" d="M 1537.5 929 L 1549 929.5 L 1537.5 930 L 1537.5 929 Z " /><path fill="rgb(246,223,23)" stroke="rgb(246,223,23)" stroke-width="1" opacity="1" d="M 1570.5 929 L 1583 929.5 L 1570.5 930 L 1570.5 929 Z " /><path fill="rgb(246,223,23)" stroke="rgb(246,223,23)" stroke-width="1" opacity="1" d="M 1523.5 930 L 1529 930.5 L 1523.5 931 L 1523.5 930 Z " /><path fill="rgb(246,223,23)" stroke="rgb(246,223,23)" stroke-width="1" opacity="1" d="M 1592.5 930 L 1598 930.5 L 1592.5 931 L 1592.5 930 Z " /><path fill="rgb(246,223,23)" stroke="rgb(246,223,23)" stroke-width="1" opacity="1" d="M 1514.5 931 L 1518 931.5 L 1514.5 932 L 1514.5 931 Z " /><path fill="rgb(246,223,23)" stroke="rgb(246,223,23)" stroke-width="1" opacity="1" d="M 1604.5 931 L 1609 931.5 L 1604.5 932 L 1604.5 931 Z " /><path fill="rgb(246,223,23)" stroke="rgb(246,223,23)" stroke-width="1" opacity="1" d="M 1506.5 932 L 1510 932.5 L 1506.5 933 L 1506.5 932 Z " /><path fill="rgb(246,223,23)" stroke="rgb(246,223,23)" stroke-width="1" opacity="1" d="M 1613.5 932 L 1617 932.5 L 1613.5 933 L 1613.5 932 Z " /><path fill="rgb(246,223,23)" stroke="rgb(246,223,23)" stroke-width="1" opacity="1" d="M 1499.5 933 L 1503 933.5 L 1499.5 934 L 1499.5 933 Z " /><path fill="rgb(246,223,23)" stroke="rgb(246,223,23)" stroke-width="1" opacity="1" d="M 1620.5 933 L 1624 933.5 L 1620.5 934 L 1620.5 933 Z " /><path fill="rgb(246,223,23)" stroke="rgb(246,223,23)" stroke-width="1" opacity="1" d="M 1494.5 934 L 1497 934.5 L 1494.5 935 L 1494.5 934 Z " /><path fill="rgb(246,223,23)" stroke="rgb(246,223,23)" stroke-width="1" opacity="1" d="M 1627.5 934 L 1630 934.5 L 1627.5 935 L 1627.5 934 Z " /><path fill="rgb(246,223,23)" stroke="rgb(246,223,23)" stroke-width="1" opacity="1" d="M 1488.5 935 L 1491 935.5 L 1488.5 936 L 1488.5 935 Z " /><path fill="rgb(246,223,23)" stroke="rgb(246,223,23)" stroke-width="1" opacity="1" d="M 1633.5 935 L 1636 935.5 L 1633.5 936 L 1633.5 935 Z " /><path fill="rgb(246,223,23)" stroke="rgb(246,223,23)" stroke-width="1" opacity="1" d="M 1483.5 936 L 1486 936.5 L 1483.5 937 L 1483.5 936 Z " /><path fill="rgb(246,223,23)" stroke="rgb(246,223,23)" stroke-width="1" opacity="1" d="M 1638.5 936 L 1641 936.5 L 1638.5 937 L 1638.5 936 Z " /><path fill="rgb(246,223,23)" stroke="rgb(246,223,23)" stroke-width="1" opacity="1" d="M 1643.5 937 L 1646 937.5 L 1643.5 938 L 1643.5 937 Z " /><path fill="rgb(246,223,23)" stroke="rgb(246,223,23)" stroke-width="1" opacity="1" d="M 1474.5 938 L 1477 938.5 L 1474.5 939 L 1474.5 938 Z " /><path fill="rgb(246,223,23)" stroke="rgb(246,223,23)" stroke-width="1" opacity="1" d="M 1647.5 938 L 1650 938.5 L 1647.5 939 L 1647.5 938 Z " /><path fill="rgb(246,223,23)" stroke="rgb(246,223,23)" stroke-width="1" opacity="1" d="M 922.5 940 L 923 1608.5 L 922 1608.5 L 922.5 940 Z " /><path fill="rgb(246,223,23)" stroke="rgb(246,223,23)" stroke-width="1" opacity="1" d="M 1115.5 940 L 1116 1614.5 L 1115 1614.5 L 1115.5 940 Z " /><path fill="rgb(246,223,23)" stroke="rgb(246,223,23)" stroke-width="1" opacity="1" d="M 1433.5 951 L 1435 951.5 L 1431.5 953 L 1431.5 952 L 1433.5 951 Z " /><path fill="rgb(246,223,23)" stroke="rgb(246,223,23)" stroke-width="1" opacity="1" d="M 1426.5 954 L 1428 954.5 L 1424.5 956 L 1424.5 955 L 1426.5 954 Z " /><path fill="rgb(246,223,23)" stroke="rgb(246,223,23)" stroke-width="1" opacity="1" d="M 1699.5 955 L 1703 956.5 L 1701.5 957 L 1699.5 955 Z " /><path fill="rgb(246,223,23)" stroke="rgb(246,223,23)" stroke-width="1" opacity="1" d="M 1417.5 958 L 1419 958.5 L 1404.5 966 L 1405.5 964 L 1417.5 958 Z " /><path fill="rgb(246,223,23)" stroke="rgb(246,223,23)" stroke-width="1" opacity="1" d="M 1718.5 964 L 1722 966.5 L 1720.5 966 L 1718.5 964 Z " /><path fill="rgb(246,223,23)" stroke="rgb(246,223,23)" stroke-width="1" opacity="1" d="M 1400.5 967 L 1399.5 969 L 1397.5 970 L 1398.5 968 L 1400.5 967 Z " /><path fill="rgb(246,223,23)" stroke="rgb(246,223,23)" stroke-width="1" opacity="1" d="M 1725.5 968 L 1729 970.5 L 1727.5 970 L 1725.5 968 Z " /><path fill="rgb(246,223,23)" stroke="rgb(246,223,23)" stroke-width="1" opacity="1" d="M 1393.5 971 L 1392.5 973 L 1393.5 971 Z " /><path fill="rgb(246,223,23)" stroke="rgb(246,223,23)" stroke-width="1" opacity="1" d="M 1730.5 971 L 1731.5 973 L 1730.5 971 Z " /><path fill="rgb(246,223,23)" stroke="rgb(246,223,23)" stroke-width="1" opacity="1" d="M 1390.5 973 L 1389.5 975 L 1384.5 978 L 1385.5 976 L 1390.5 973 Z " /><path fill="rgb(246,223,23)" stroke="rgb(246,223,23)" stroke-width="1" opacity="1" d="M 1733.5 973 L 1741 978.5 L 1738.5 977 Q 1733.9 975.8 1733.5 973 Z " /><path fill="rgb(246,223,23)" stroke="rgb(246,223,23)" stroke-width="1" opacity="1" d="M 1382.5 978 L 1380.5 981 L 1377.5 983 L 1379.5 980 L 1382.5 978 Z " /><path fill="rgb(246,223,23)" stroke="rgb(246,223,23)" stroke-width="1" opacity="1" d="M 1742.5 979 L 1743.5 981 L 1742.5 979 Z " /><path fill="rgb(246,223,23)" stroke="rgb(246,223,23)" stroke-width="1" opacity="1" d="M 1745.5 981 L 1747.5 984 L 1745.5 981 Z " /><path fill="rgb(246,223,23)" stroke="rgb(246,223,23)" stroke-width="1" opacity="1" d="M 1375.5 983 L 1373.5 986 L 1375.5 983 Z " /><path fill="rgb(246,223,23)" stroke="rgb(246,223,23)" stroke-width="1" opacity="1" d="M 1749.5 984 L 1751.5 987 L 1749.5 984 Z " /><path fill="rgb(246,223,23)" stroke="rgb(246,223,23)" stroke-width="1" opacity="1" d="M 1371.5 986 L 1369.5 989 L 1371.5 986 Z " /><path fill="rgb(246,223,23)" stroke="rgb(246,223,23)" stroke-width="1" opacity="1" d="M 1753.5 987 L 1756.5 991 L 1753.5 987 Z " /><path fill="rgb(246,223,23)" stroke="rgb(246,223,23)" stroke-width="1" opacity="1" d="M 1367.5 989 L 1364.5 993 L 1367.5 989 Z " /><path fill="rgb(246,223,23)" stroke="rgb(246,223,23)" stroke-width="1" opacity="1" d="M 1758.5 991 L 1762.5 996 L 1758.5 991 Z " /><path fill="rgb(246,223,23)" stroke="rgb(246,223,23)" stroke-width="1" opacity="1" d="M 1362.5 993 L 1356.5 1000 L 1362.5 993 Z " /><path fill="rgb(246,223,23)" stroke="rgb(246,223,23)" stroke-width="1" opacity="1" d="M 1765.5 997 L 1789.5 1022 L 1765.5 997 Z " /><path fill="rgb(246,223,23)" stroke="rgb(246,223,23)" stroke-width="1" opacity="1" d="M 1354.5 1000 L 1338.5 1017 L 1354.5 1000 Z " /><path fill="rgb(246,223,23)" stroke="rgb(246,223,23)" stroke-width="1" opacity="1" d="M 1337.5 1018 L 1332.5 1024 L 1337.5 1018 Z " /><path fill="rgb(246,223,23)" stroke="rgb(246,223,23)" stroke-width="1" opacity="1" d="M 1790.5 1023 L 1795.5 1029 L 1790.5 1023 Z " /><path fill="rgb(246,223,23)" stroke="rgb(246,223,23)" stroke-width="1" opacity="1" d="M 1331.5 1025 L 1328.5 1029 L 1331.5 1025 Z " /><path fill="rgb(246,223,23)" stroke="rgb(246,223,23)" stroke-width="1" opacity="1" d="M 1327.5 1030 L 1325 1033.5 L 1322.5 1037 L 1324 1034.5 L 1327.5 1030 Z " /><path fill="rgb(246,223,23)" stroke="rgb(246,223,23)" stroke-width="1" opacity="1" d="M 1796.5 1030 L 1799.5 1034 L 1796.5 1030 Z " /><path fill="rgb(246,223,23)" stroke="rgb(246,223,23)" stroke-width="1" opacity="1" d="M 1800.5 1035 L 1807 1042.5 L 1803 1039.5 L 1800.5 1035 Z " /><path fill="rgb(246,223,23)" stroke="rgb(246,223,23)" stroke-width="1" opacity="1" d="M 1321.5 1038 L 1320 1040.5 L 1317.5 1044 L 1319 1041.5 L 1321.5 1038 Z " /><path fill="rgb(246,223,23)" stroke="rgb(246,223,23)" stroke-width="1" opacity="1" d="M 1807.5 1044 L 1812 1049.5 L 1809 1047.5 L 1807.5 1044 Z " /><path fill="rgb(246,223,23)" stroke="rgb(246,223,23)" stroke-width="1" opacity="1" d="M 1316.5 1045 L 1316 1046.5 L 1312.5 1052 L 1313 1050.5 L 1316.5 1045 Z " /><path fill="rgb(246,223,23)" stroke="rgb(246,223,23)" stroke-width="1" opacity="1" d="M 1812.5 1051 L 1822 1064.5 L 1820 1063.5 L 1812.5 1051 Z " /><path fill="rgb(246,223,23)" stroke="rgb(246,223,23)" stroke-width="1" opacity="1" d="M 1311.5 1053 L 1311 1054.5 L 1309.5 1057 L 1310 1055.5 L 1311.5 1053 Z " /><path fill="rgb(246,223,23)" stroke="rgb(246,223,23)" stroke-width="1" opacity="1" d="M 1307.5 1060 L 1307 1061.5 L 1302.5 1070 L 1303 1068.5 L 1307.5 1060 Z " /><path fill="rgb(246,223,23)" stroke="rgb(246,223,23)" stroke-width="1" opacity="1" d="M 1822.5 1066 L 1823.5 1068 L 1822.5 1066 Z " /><path fill="rgb(246,223,23)" stroke="rgb(246,223,23)" stroke-width="1" opacity="1" d="M 1824.5 1069 L 1827 1072.5 L 1825 1071.5 L 1824.5 1069 Z " /><path fill="rgb(246,223,23)" stroke="rgb(246,223,23)" stroke-width="1" opacity="1" d="M 1301.5 1071 L 1302 1072.5 L 1299.5 1077 L 1299 1075.5 L 1301.5 1071 Z " /><path fill="rgb(246,223,23)" stroke="rgb(246,223,23)" stroke-width="1" opacity="1" d="M 1827.5 1074 L 1830 1077.5 L 1828 1076.5 L 1827.5 1074 Z " /><path fill="rgb(246,223,23)" stroke="rgb(246,223,23)" stroke-width="1" opacity="1" d="M 1831.5 1081 L 1833 1083.5 L 1828.5 1087 L 1829.5 1085 L 1832 1083.5 L 1831.5 1081 Z " /><path fill="rgb(246,223,23)" stroke="rgb(246,223,23)" stroke-width="1" opacity="1" d="M 1296.5 1082 L 1297 1083.5 L 1295.5 1086 L 1295 1084.5 L 1296.5 1082 Z " /><path fill="rgb(246,223,23)" stroke="rgb(246,223,23)" stroke-width="1" opacity="1" d="M 1294.5 1087 L 1295 1088.5 L 1293.5 1091 L 1293 1089.5 L 1294.5 1087 Z " /><path fill="rgb(246,223,23)" stroke="rgb(246,223,23)" stroke-width="1" opacity="1" d="M 1826.5 1087 L 1825.5 1089 L 1826.5 1087 Z " /><path fill="rgb(246,223,23)" stroke="rgb(246,223,23)" stroke-width="1" opacity="1" d="M 1823.5 1089 L 1822.5 1091 L 1823.5 1089 Z " /><path fill="rgb(246,223,23)" stroke="rgb(246,223,23)" stroke-width="1" opacity="1" d="M 1820.5 1091 L 1819.5 1093 L 1817.5 1094 L 1818.5 1092 L 1820.5 1091 Z " /><path fill="rgb(246,223,23)" stroke="rgb(246,223,23)" stroke-width="1" opacity="1" d="M 1815.5 1094 L 1814.5 1096 L 1815.5 1094 Z " /><path fill="rgb(246,223,23)" stroke="rgb(246,223,23)" stroke-width="1" opacity="1" d="M 1812.5 1096 L 1811.5 1098 L 1812.5 1096 Z " /><path fill="rgb(246,223,23)" stroke="rgb(246,223,23)" stroke-width="1" opacity="1" d="M 1550.5 1097 L 1569 1097.5 L 1550.5 1098 L 1550.5 1097 Z " /><path fill="rgb(246,223,23)" stroke="rgb(246,223,23)" stroke-width="1" opacity="1" d="M 1541.5 1098 L 1545 1098.5 L 1541.5 1099 L 1541.5 1098 Z " /><path fill="rgb(246,223,23)" stroke="rgb(246,223,23)" stroke-width="1" opacity="1" d="M 1575.5 1098 L 1580 1098.5 L 1575.5 1099 L 1575.5 1098 Z " /><path fill="rgb(246,223,23)" stroke="rgb(246,223,23)" stroke-width="1" opacity="1" d="M 1809.5 1098 L 1808.5 1100 L 1803.5 1103 L 1804.5 1101 L 1809.5 1098 Z " /><path fill="rgb(246,223,23)" stroke="rgb(246,223,23)" stroke-width="1" opacity="1" d="M 1535.5 1099 L 1538 1099.5 L 1535.5 1100 L 1535.5 1099 Z " /><path fill="rgb(246,223,23)" stroke="rgb(246,223,23)" stroke-width="1" opacity="1" d="M 1583.5 1099 L 1586 1099.5 L 1583.5 1100 L 1583.5 1099 Z " /><path fill="rgb(246,223,23)" stroke="rgb(246,223,23)" stroke-width="1" opacity="1" d="M 1593.5 1101 L 1596 1101.5 L 1593.5 1102 L 1593.5 1101 Z " /><path fill="rgb(246,223,23)" stroke="rgb(246,223,23)" stroke-width="1" opacity="1" d="M 1801.5 1103 L 1800.5 1105 L 1801.5 1103 Z " /><path fill="rgb(246,223,23)" stroke="rgb(246,223,23)" stroke-width="1" opacity="1" d="M 1798.5 1105 L 1797.5 1107 L 1798.5 1105 Z " /><path fill="rgb(246,223,23)" stroke="rgb(246,223,23)" stroke-width="1" opacity="1" d="M 1513.5 1106 L 1515 1106.5 L 1506.5 1111 L 1507.5 1109 L 1513.5 1106 Z " /><path fill="rgb(246,223,23)" stroke="rgb(246,223,23)" stroke-width="1" opacity="1" d="M 1609.5 1106 L 1613 1107.5 L 1611.5 1108 L 1609.5 1106 Z " /><path fill="rgb(246,223,23)" stroke="rgb(246,223,23)" stroke-width="1" opacity="1" d="M 1795.5 1107 L 1794.5 1109 L 1789.5 1112 L 1790.5 1110 L 1795.5 1107 Z " /><path fill="rgb(246,223,23)" stroke="rgb(246,223,23)" stroke-width="1" opacity="1" d="M 1504.5 1111 L 1503.5 1113 L 1500.5 1115 L 1502.5 1112 L 1504.5 1111 Z " /><path fill="rgb(246,223,23)" stroke="rgb(246,223,23)" stroke-width="1" opacity="1" d="M 1622.5 1112 L 1626 1114.5 L 1624.5 1114 L 1622.5 1112 Z " /><path fill="rgb(246,223,23)" stroke="rgb(246,223,23)" stroke-width="1" opacity="1" d="M 1787.5 1112 L 1786.5 1114 L 1787.5 1112 Z " /><path fill="rgb(246,223,23)" stroke="rgb(246,223,23)" stroke-width="1" opacity="1" d="M 1784.5 1114 L 1783.5 1116 L 1784.5 1114 Z " /><path fill="rgb(246,223,23)" stroke="rgb(246,223,23)" stroke-width="1" opacity="1" d="M 1498.5 1115 L 1496.5 1118 L 1498.5 1115 Z " /><path fill="rgb(246,223,23)" stroke="rgb(246,223,23)" stroke-width="1" opacity="1" d="M 1627.5 1115 L 1628.5 1117 L 1627.5 1115 Z " /><path fill="rgb(246,223,23)" stroke="rgb(246,223,23)" stroke-width="1" opacity="1" d="M 1781.5 1116 L 1780.5 1118 L 1781.5 1116 Z " /><path fill="rgb(246,223,23)" stroke="rgb(246,223,23)" stroke-width="1" opacity="1" d="M 1630.5 1117 L 1631.5 1119 L 1630.5 1117 Z " /><path fill="rgb(246,223,23)" stroke="rgb(246,223,23)" stroke-width="1" opacity="1" d="M 1494.5 1118 L 1484.5 1129 L 1494.5 1118 Z " /><path fill="rgb(246,223,23)" stroke="rgb(246,223,23)" stroke-width="1" opacity="1" d="M 1778.5 1118 L 1777.5 1120 L 1775.5 1121 L 1776.5 1119 L 1778.5 1118 Z " /><path fill="rgb(246,223,23)" stroke="rgb(246,223,23)" stroke-width="1" opacity="1" d="M 1633.5 1119 L 1643 1127.5 L 1637.5 1123 L 1633.5 1119 Z " /><path fill="rgb(246,223,23)" stroke="rgb(246,223,23)" stroke-width="1" opacity="1" d="M 1773.5 1121 L 1772.5 1123 L 1773.5 1121 Z " /><path fill="rgb(246,223,23)" stroke="rgb(246,223,23)" stroke-width="1" opacity="1" d="M 1770.5 1123 L 1769.5 1125 L 1770.5 1123 Z " /><path fill="rgb(246,223,23)" stroke="rgb(246,223,23)" stroke-width="1" opacity="1" d="M 1767.5 1125 L 1766.5 1127 L 1761.5 1130 L 1762.5 1128 L 1767.5 1125 Z " /><path fill="rgb(246,223,23)" stroke="rgb(246,223,23)" stroke-width="1" opacity="1" d="M 1282.5 1126 L 1283 1128.5 L 1282 1128.5 L 1282.5 1126 Z " /><path fill="rgb(246,223,23)" stroke="rgb(246,223,23)" stroke-width="1" opacity="1" d="M 1645.5 1129 L 1650.5 1135 L 1645.5 1129 Z " /><path fill="rgb(246,223,23)" stroke="rgb(246,223,23)" stroke-width="1" opacity="1" d="M 1483.5 1130 L 1481.5 1133 L 1483.5 1130 Z " /><path fill="rgb(246,223,23)" stroke="rgb(246,223,23)" stroke-width="1" opacity="1" d="M 1759.5 1130 L 1758.5 1132 L 1759.5 1130 Z " /><path fill="rgb(246,223,23)" stroke="rgb(246,223,23)" stroke-width="1" opacity="1" d="M 1281.5 1131 L 1282 1133.5 L 1281 1133.5 L 1281.5 1131 Z " /><path fill="rgb(246,223,23)" stroke="rgb(246,223,23)" stroke-width="1" opacity="1" d="M 1756.5 1132 L 1755.5 1134 L 1756.5 1132 Z " /><path fill="rgb(246,223,23)" stroke="rgb(246,223,23)" stroke-width="1" opacity="1" d="M 1480.5 1134 L 1479.5 1136 L 1480.5 1134 Z " /><path fill="rgb(246,223,23)" stroke="rgb(246,223,23)" stroke-width="1" opacity="1" d="M 1753.5 1134 L 1752.5 1136 L 1747.5 1139 L 1748.5 1137 L 1753.5 1134 Z " /><path fill="rgb(246,223,23)" stroke="rgb(246,223,23)" stroke-width="1" opacity="1" d="M 1280.5 1136 L 1281 1138.5 L 1280 1138.5 L 1280.5 1136 Z " /><path fill="rgb(246,223,23)" stroke="rgb(246,223,23)" stroke-width="1" opacity="1" d="M 1651.5 1136 L 1657.5 1143 L 1651.5 1136 Z " /><path fill="rgb(246,223,23)" stroke="rgb(246,223,23)" stroke-width="1" opacity="1" d="M 1478.5 1137 L 1478 1138.5 L 1475.5 1143 L 1476 1141.5 L 1478.5 1137 Z " /><path fill="rgb(246,223,23)" stroke="rgb(246,223,23)" stroke-width="1" opacity="1" d="M 1745.5 1139 L 1744.5 1141 L 1745.5 1139 Z " /><path fill="rgb(246,223,23)" stroke="rgb(246,223,23)" stroke-width="1" opacity="1" d="M 1742.5 1141 L 1741.5 1143 L 1742.5 1141 Z " /><path fill="rgb(246,223,23)" stroke="rgb(246,223,23)" stroke-width="1" opacity="1" d="M 1279.5 1142 L 1280 1145.5 L 1279 1145.5 L 1279.5 1142 Z " /><path fill="rgb(246,223,23)" stroke="rgb(246,223,23)" stroke-width="1" opacity="1" d="M 1739.5 1143 L 1738.5 1145 L 1733.5 1148 L 1734.5 1146 L 1739.5 1143 Z " /><path fill="rgb(246,223,23)" stroke="rgb(246,223,23)" stroke-width="1" opacity="1" d="M 1474.5 1144 L 1475 1145.5 L 1473.5 1148 L 1473 1146.5 L 1474.5 1144 Z " /><path fill="rgb(246,223,23)" stroke="rgb(246,223,23)" stroke-width="1" opacity="1" d="M 1658.5 1144 L 1661.5 1148 L 1658.5 1144 Z " /><path fill="rgb(246,223,23)" stroke="rgb(246,223,23)" stroke-width="1" opacity="1" d="M 1731.5 1148 L 1730.5 1150 L 1731.5 1148 Z " /><path fill="rgb(246,223,23)" stroke="rgb(246,223,23)" stroke-width="1" opacity="1" d="M 1278.5 1149 L 1279 1153.5 L 1278 1153.5 L 1278.5 1149 Z " /><path fill="rgb(246,223,23)" stroke="rgb(246,223,23)" stroke-width="1" opacity="1" d="M 1662.5 1149 L 1664.5 1152 L 1662.5 1149 Z " /><path fill="rgb(246,223,23)" stroke="rgb(246,223,23)" stroke-width="1" opacity="1" d="M 1728.5 1150 L 1727.5 1152 L 1728.5 1150 Z " /><path fill="rgb(246,223,23)" stroke="rgb(246,223,23)" stroke-width="1" opacity="1" d="M 1725.5 1152 L 1724.5 1154 L 1722.5 1155 L 1723.5 1153 L 1725.5 1152 Z " /><path fill="rgb(246,223,23)" stroke="rgb(246,223,23)" stroke-width="1" opacity="1" d="M 1665.5 1153 L 1666.5 1155 L 1665.5 1153 Z " /><path fill="rgb(246,223,23)" stroke="rgb(246,223,23)" stroke-width="1" opacity="1" d="M 1720.5 1155 L 1719.5 1157 L 1720.5 1155 Z " /><path fill="rgb(246,223,23)" stroke="rgb(246,223,23)" stroke-width="1" opacity="1" d="M 1667.5 1156 L 1669.5 1159 L 1667.5 1156 Z " /><path fill="rgb(246,223,23)" stroke="rgb(246,223,23)" stroke-width="1" opacity="1" d="M 1717.5 1157 L 1716.5 1159 L 1717.5 1157 Z " /><path fill="rgb(246,223,23)" stroke="rgb(246,223,23)" stroke-width="1" opacity="1" d="M 1277.5 1159 L 1278 1164.5 L 1277 1164.5 L 1277.5 1159 Z " /><path fill="rgb(246,223,23)" stroke="rgb(246,223,23)" stroke-width="1" opacity="1" d="M 1714.5 1159 L 1713.5 1161 L 1714.5 1159 Z " /><path fill="rgb(246,223,23)" stroke="rgb(246,223,23)" stroke-width="1" opacity="1" d="M 1670.5 1160 L 1673 1163.5 L 1671 1162.5 L 1670.5 1160 Z " /><path fill="rgb(246,223,23)" stroke="rgb(246,223,23)" stroke-width="1" opacity="1" d="M 1711.5 1161 L 1710.5 1163 L 1708.5 1164 L 1709.5 1162 L 1711.5 1161 Z " /><path fill="rgb(246,223,23)" stroke="rgb(246,223,23)" stroke-width="1" opacity="1" d="M 1468.5 1162 L 1469 1164.5 L 1468 1164.5 L 1468.5 1162 Z " /><path fill="rgb(246,223,23)" stroke="rgb(246,223,23)" stroke-width="1" opacity="1" d="M 1706.5 1164 L 1705.5 1166 L 1706.5 1164 Z " /><path fill="rgb(246,223,23)" stroke="rgb(246,223,23)" stroke-width="1" opacity="1" d="M 1673.5 1165 L 1674.5 1167 L 1673.5 1165 Z " /><path fill="rgb(246,223,23)" stroke="rgb(246,223,23)" stroke-width="1" opacity="1" d="M 1703.5 1166 L 1702.5 1168 L 1703.5 1166 Z " /><path fill="rgb(246,223,23)" stroke="rgb(246,223,23)" stroke-width="1" opacity="1" d="M 1467.5 1168 L 1468 1171.5 L 1467 1171.5 L 1467.5 1168 Z " /><path fill="rgb(246,223,23)" stroke="rgb(246,223,23)" stroke-width="1" opacity="1" d="M 1675.5 1168 L 1676.5 1170 L 1675.5 1168 Z " /><path fill="rgb(246,223,23)" stroke="rgb(246,223,23)" stroke-width="1" opacity="1" d="M 1700.5 1168 L 1699.5 1170 L 1700.5 1168 Z " /><path fill="rgb(246,223,23)" stroke="rgb(246,223,23)" stroke-width="1" opacity="1" d="M 1697.5 1170 L 1696.5 1172 L 1694.5 1173 L 1695.5 1171 L 1697.5 1170 Z " /><path fill="rgb(246,223,23)" stroke="rgb(246,223,23)" stroke-width="1" opacity="1" d="M 1678.5 1173 L 1681 1176.5 L 1679 1175.5 L 1678.5 1173 Z " /><path fill="rgb(246,223,23)" stroke="rgb(246,223,23)" stroke-width="1" opacity="1" d="M 1692.5 1173 L 1691.5 1175 L 1692.5 1173 Z " /><path fill="rgb(246,223,23)" stroke="rgb(246,223,23)" stroke-width="1" opacity="1" d="M 1689.5 1175 L 1688.5 1177 L 1689.5 1175 Z " /><path fill="rgb(246,223,23)" stroke="rgb(246,223,23)" stroke-width="1" opacity="1" d="M 1276.5 1176 L 1277 1188.5 L 1276 1188.5 L 1276.5 1176 Z " /><path fill="rgb(246,223,23)" stroke="rgb(246,223,23)" stroke-width="1" opacity="1" d="M 1686.5 1177 L 1685.5 1179 L 1686.5 1177 Z " /><path fill="rgb(246,223,23)" stroke="rgb(246,223,23)" stroke-width="1" opacity="1" d="M 1681.5 1178 L 1684 1179.5 L 1682.5 1180 L 1681.5 1178 Z " /><path fill="rgb(246,223,23)" stroke="rgb(246,223,23)" stroke-width="1" opacity="1" d="M 1467.5 1189 L 1468 1193.5 L 1467 1193.5 L 1467.5 1189 Z " /><path fill="rgb(246,223,23)" stroke="rgb(246,223,23)" stroke-width="1" opacity="1" d="M 1468.5 1197 L 1469 1199.5 L 1468 1199.5 L 1468.5 1197 Z " /><path fill="rgb(246,223,23)" stroke="rgb(246,223,23)" stroke-width="1" opacity="1" d="M 1277.5 1204 L 1278 1212.5 L 1277 1212.5 L 1277.5 1204 Z " /><path fill="rgb(246,223,23)" stroke="rgb(246,223,23)" stroke-width="1" opacity="1" d="M 1472.5 1213 L 1474 1216.5 L 1473 1216.5 L 1472.5 1213 Z " /><path fill="rgb(246,223,23)" stroke="rgb(246,223,23)" stroke-width="1" opacity="1" d="M 1278.5 1217 L 1279 1222.5 L 1278 1222.5 L 1278.5 1217 Z " /><path fill="rgb(246,223,23)" stroke="rgb(246,223,23)" stroke-width="1" opacity="1" d="M 1478.5 1226 L 1479.5 1228 L 1478.5 1226 Z " /><path fill="rgb(246,223,23)" stroke="rgb(246,223,23)" stroke-width="1" opacity="1" d="M 1279.5 1227 L 1280 1230.5 L 1279 1230.5 L 1279.5 1227 Z " /><path fill="rgb(246,223,23)" stroke="rgb(246,223,23)" stroke-width="1" opacity="1" d="M 1480.5 1229 L 1481.5 1231 L 1480.5 1229 Z " /><path fill="rgb(246,223,23)" stroke="rgb(246,223,23)" stroke-width="1" opacity="1" d="M 1482.5 1232 L 1484.5 1235 L 1482.5 1232 Z " /><path fill="rgb(246,223,23)" stroke="rgb(246,223,23)" stroke-width="1" opacity="1" d="M 1280.5 1234 L 1281 1237.5 L 1280 1237.5 L 1280.5 1234 Z " /><path fill="rgb(246,223,23)" stroke="rgb(246,223,23)" stroke-width="1" opacity="1" d="M 1485.5 1236 L 1503 1252.5 L 1499.5 1250 L 1485.5 1236 Z " /><path fill="rgb(246,223,23)" stroke="rgb(246,223,23)" stroke-width="1" opacity="1" d="M 1281.5 1241 L 1282 1243.5 L 1281 1243.5 L 1281.5 1241 Z " /><path fill="rgb(246,223,23)" stroke="rgb(246,223,23)" stroke-width="1" opacity="1" d="M 1282.5 1246 L 1283 1248.5 L 1282 1248.5 L 1282.5 1246 Z " /><path fill="rgb(246,223,23)" stroke="rgb(246,223,23)" stroke-width="1" opacity="1" d="M 1283.5 1251 L 1284 1253.5 L 1283 1253.5 L 1283.5 1251 Z " /><path fill="rgb(246,223,23)" stroke="rgb(246,223,23)" stroke-width="1" opacity="1" d="M 1504.5 1253 L 1506.5 1256 L 1504.5 1253 Z " /><path fill="rgb(246,223,23)" stroke="rgb(246,223,23)" stroke-width="1" opacity="1" d="M 1508.5 1256 L 1509.5 1258 L 1508.5 1256 Z " /><path fill="rgb(246,223,23)" stroke="rgb(246,223,23)" stroke-width="1" opacity="1" d="M 1511.5 1258 L 1512.5 1260 L 1511.5 1258 Z " /><path fill="rgb(246,223,23)" stroke="rgb(246,223,23)" stroke-width="1" opacity="1" d="M 1514.5 1260 L 1515.5 1262 L 1514.5 1260 Z " /><path fill="rgb(246,223,23)" stroke="rgb(246,223,23)" stroke-width="1" opacity="1" d="M 1517.5 1262 L 1518.5 1264 L 1517.5 1262 Z " /><path fill="rgb(246,223,23)" stroke="rgb(246,223,23)" stroke-width="1" opacity="1" d="M 1520.5 1264 L 1526 1267.5 L 1524.5 1267 Q 1520.5 1266.5 1520.5 1264 Z " /><path fill="rgb(246,223,23)" stroke="rgb(246,223,23)" stroke-width="1" opacity="1" d="M 1529.5 1269 L 1533 1271.5 L 1531.5 1271 L 1529.5 1269 Z " /><path fill="rgb(246,223,23)" stroke="rgb(246,223,23)" stroke-width="1" opacity="1" d="M 1558.5 1284 L 1564 1286.5 L 1562.5 1287 L 1558.5 1285 L 1558.5 1284 Z " /><path fill="rgb(246,223,23)" stroke="rgb(246,223,23)" stroke-width="1" opacity="1" d="M 1569.5 1289 L 1573 1290.5 L 1571.5 1291 L 1569.5 1289 Z " /><path fill="rgb(246,223,23)" stroke="rgb(246,223,23)" stroke-width="1" opacity="1" d="M 1578.5 1293 L 1582 1294.5 L 1580.5 1295 L 1578.5 1293 Z " /><path fill="rgb(246,223,23)" stroke="rgb(246,223,23)" stroke-width="1" opacity="1" d="M 1297.5 1297 L 1299 1300.5 L 1298 1300.5 L 1297.5 1297 Z " /><path fill="rgb(246,223,23)" stroke="rgb(246,223,23)" stroke-width="1" opacity="1" d="M 1302.5 1308 L 1308 1318.5 L 1306 1317.5 L 1302 1309.5 L 1302.5 1308 Z " /><path fill="rgb(246,223,23)" stroke="rgb(246,223,23)" stroke-width="1" opacity="1" d="M 1620.5 1311 L 1624 1312.5 L 1622.5 1313 L 1620.5 1311 Z " /><path fill="rgb(246,223,23)" stroke="rgb(246,223,23)" stroke-width="1" opacity="1" d="M 1627.5 1314 L 1631 1315.5 L 1629.5 1316 L 1627.5 1314 Z " /><path fill="rgb(246,223,23)" stroke="rgb(246,223,23)" stroke-width="1" opacity="1" d="M 1309.5 1322 L 1312 1325.5 L 1310 1324.5 L 1309.5 1322 Z " /><path fill="rgb(246,223,23)" stroke="rgb(246,223,23)" stroke-width="1" opacity="1" d="M 1313.5 1329 L 1314.5 1331 L 1313.5 1329 Z " /><path fill="rgb(246,223,23)" stroke="rgb(246,223,23)" stroke-width="1" opacity="1" d="M 1661.5 1329 L 1665 1330.5 L 1663.5 1331 L 1661.5 1329 Z " /><path fill="rgb(246,223,23)" stroke="rgb(246,223,23)" stroke-width="1" opacity="1" d="M 1315.5 1332 L 1318 1335.5 L 1316 1334.5 L 1315.5 1332 Z " /><path fill="rgb(246,223,23)" stroke="rgb(246,223,23)" stroke-width="1" opacity="1" d="M 1674.5 1335 L 1682 1338.5 L 1680.5 1339 L 1674.5 1336 L 1674.5 1335 Z " /><path fill="rgb(246,223,23)" stroke="rgb(246,223,23)" stroke-width="1" opacity="1" d="M 1318.5 1337 L 1319.5 1339 L 1318.5 1337 Z " /><path fill="rgb(246,223,23)" stroke="rgb(246,223,23)" stroke-width="1" opacity="1" d="M 1320.5 1340 L 1325 1345.5 L 1322 1343.5 L 1320.5 1340 Z " /><path fill="rgb(246,223,23)" stroke="rgb(246,223,23)" stroke-width="1" opacity="1" d="M 1325.5 1347 L 1327.5 1350 L 1325.5 1347 Z " /><path fill="rgb(246,223,23)" stroke="rgb(246,223,23)" stroke-width="1" opacity="1" d="M 1705.5 1350 L 1713 1354.5 L 1711.5 1354 Q 1705.9 1353.2 1705.5 1350 Z " /><path fill="rgb(246,223,23)" stroke="rgb(246,223,23)" stroke-width="1" opacity="1" d="M 1328.5 1351 L 1330.5 1354 L 1328.5 1351 Z " /><path fill="rgb(246,223,23)" stroke="rgb(246,223,23)" stroke-width="1" opacity="1" d="M 1331.5 1355 L 1335.5 1360 L 1331.5 1355 Z " /><path fill="rgb(246,223,23)" stroke="rgb(246,223,23)" stroke-width="1" opacity="1" d="M 1720.5 1358 L 1724 1360.5 L 1722.5 1360 L 1720.5 1358 Z " /><path fill="rgb(246,223,23)" stroke="rgb(246,223,23)" stroke-width="1" opacity="1" d="M 1336.5 1361 L 1343.5 1369 L 1336.5 1361 Z " /><path fill="rgb(246,223,23)" stroke="rgb(246,223,23)" stroke-width="1" opacity="1" d="M 1729.5 1363 L 1733 1365.5 L 1731.5 1365 L 1729.5 1363 Z " /><path fill="rgb(246,223,23)" stroke="rgb(246,223,23)" stroke-width="1" opacity="1" d="M 1736.5 1367 L 1737.5 1369 L 1736.5 1367 Z " /><path fill="rgb(246,223,23)" stroke="rgb(246,223,23)" stroke-width="1" opacity="1" d="M 1344.5 1370 L 1358.5 1385 L 1344.5 1370 Z " /><path fill="rgb(246,223,23)" stroke="rgb(246,223,23)" stroke-width="1" opacity="1" d="M 1741.5 1370 L 1742.5 1372 L 1741.5 1370 Z " /><path fill="rgb(246,223,23)" stroke="rgb(246,223,23)" stroke-width="1" opacity="1" d="M 1746.5 1373 L 1747.5 1375 L 1746.5 1373 Z " /><path fill="rgb(246,223,23)" stroke="rgb(246,223,23)" stroke-width="1" opacity="1" d="M 1749.5 1375 L 1753 1377.5 L 1751.5 1377 L 1749.5 1375 Z " /><path fill="rgb(246,223,23)" stroke="rgb(246,223,23)" stroke-width="1" opacity="1" d="M 1754.5 1378 L 1755.5 1380 L 1754.5 1378 Z " /><path fill="rgb(246,223,23)" stroke="rgb(246,223,23)" stroke-width="1" opacity="1" d="M 1757.5 1380 L 1758.5 1382 L 1757.5 1380 Z " /><path fill="rgb(246,223,23)" stroke="rgb(246,223,23)" stroke-width="1" opacity="1" d="M 1760.5 1382 L 1761.5 1384 L 1760.5 1382 Z " /><path fill="rgb(246,223,23)" stroke="rgb(246,223,23)" stroke-width="1" opacity="1" d="M 1763.5 1384 L 1764.5 1386 L 1763.5 1384 Z " /><path fill="rgb(246,223,23)" stroke="rgb(246,223,23)" stroke-width="1" opacity="1" d="M 1360.5 1385 L 1367.5 1393 L 1360.5 1385 Z " /><path fill="rgb(246,223,23)" stroke="rgb(246,223,23)" stroke-width="1" opacity="1" d="M 1766.5 1386 L 1767.5 1388 L 1766.5 1386 Z " /><path fill="rgb(246,223,23)" stroke="rgb(246,223,23)" stroke-width="1" opacity="1" d="M 1769.5 1388 L 1771.5 1391 L 1769.5 1388 Z " /><path fill="rgb(246,223,23)" stroke="rgb(246,223,23)" stroke-width="1" opacity="1" d="M 1773.5 1391 L 1774.5 1393 L 1773.5 1391 Z " /><path fill="rgb(246,223,23)" stroke="rgb(246,223,23)" stroke-width="1" opacity="1" d="M 1369.5 1393 L 1373.5 1398 L 1369.5 1393 Z " /><path fill="rgb(246,223,23)" stroke="rgb(246,223,23)" stroke-width="1" opacity="1" d="M 1776.5 1393 L 1778.5 1396 L 1776.5 1393 Z " /><path fill="rgb(246,223,23)" stroke="rgb(246,223,23)" stroke-width="1" opacity="1" d="M 1780.5 1396 L 1782.5 1399 L 1780.5 1396 Z " /><path fill="rgb(246,223,23)" stroke="rgb(246,223,23)" stroke-width="1" opacity="1" d="M 1375.5 1398 L 1378.5 1402 L 1375.5 1398 Z " /><path fill="rgb(246,223,23)" stroke="rgb(246,223,23)" stroke-width="1" opacity="1" d="M 1784.5 1399 L 1793 1406.5 L 1788.5 1403 L 1784.5 1399 Z " /><path fill="rgb(246,223,23)" stroke="rgb(246,223,23)" stroke-width="1" opacity="1" d="M 1380.5 1402 L 1387 1407.5 L 1384.5 1406 L 1380.5 1402 Z " /><path fill="rgb(246,223,23)" stroke="rgb(246,223,23)" stroke-width="1" opacity="1" d="M 1794.5 1407 L 1798.5 1412 L 1794.5 1407 Z " /><path fill="rgb(246,223,23)" stroke="rgb(246,223,23)" stroke-width="1" opacity="1" d="M 1388.5 1408 L 1390.5 1411 L 1388.5 1408 Z " /><path fill="rgb(246,223,23)" stroke="rgb(246,223,23)" stroke-width="1" opacity="1" d="M 1392.5 1411 L 1401 1417.5 L 1398.5 1416 Q 1393.5 1414.5 1392.5 1411 Z " /><path fill="rgb(246,223,23)" stroke="rgb(246,223,23)" stroke-width="1" opacity="1" d="M 1800.5 1412 L 1808.5 1421 L 1800.5 1412 Z " /><path fill="rgb(246,223,23)" stroke="rgb(246,223,23)" stroke-width="1" opacity="1" d="M 1402.5 1418 L 1403.5 1420 L 1402.5 1418 Z " /><path fill="rgb(246,223,23)" stroke="rgb(246,223,23)" stroke-width="1" opacity="1" d="M 1405.5 1420 L 1406.5 1422 L 1405.5 1420 Z " /><path fill="rgb(246,223,23)" stroke="rgb(246,223,23)" stroke-width="1" opacity="1" d="M 1408.5 1422 L 1415 1426.5 L 1413.5 1426 Q 1408.9 1424.8 1408.5 1422 Z " /><path fill="rgb(246,223,23)" stroke="rgb(246,223,23)" stroke-width="1" opacity="1" d="M 1811.5 1422 L 1819.5 1431 L 1811.5 1422 Z " /><path fill="rgb(246,223,23)" stroke="rgb(246,223,23)" stroke-width="1" opacity="1" d="M 1416.5 1427 L 1420 1429.5 L 1418.5 1429 L 1416.5 1427 Z " /><path fill="rgb(246,223,23)" stroke="rgb(246,223,23)" stroke-width="1" opacity="1" d="M 1421.5 1430 L 1422.5 1432 L 1421.5 1430 Z " /><path fill="rgb(246,223,23)" stroke="rgb(246,223,23)" stroke-width="1" opacity="1" d="M 1426.5 1433 L 1430 1435.5 L 1428.5 1435 L 1426.5 1433 Z " /><path fill="rgb(246,223,23)" stroke="rgb(246,223,23)" stroke-width="1" opacity="1" d="M 1822.5 1434 L 1829.5 1442 L 1822.5 1434 Z " /><path fill="rgb(246,223,23)" stroke="rgb(246,223,23)" stroke-width="1" opacity="1" d="M 1433.5 1437 L 1437 1439.5 L 1435.5 1439 L 1433.5 1437 Z " /><path fill="rgb(246,223,23)" stroke="rgb(246,223,23)" stroke-width="1" opacity="1" d="M 1442.5 1442 L 1452 1447.5 L 1450.5 1447 L 1443.5 1444 L 1442.5 1442 Z " /><path fill="rgb(246,223,23)" stroke="rgb(246,223,23)" stroke-width="1" opacity="1" d="M 1830.5 1443 L 1834.5 1448 L 1830.5 1443 Z " /><path fill="rgb(246,223,23)" stroke="rgb(246,223,23)" stroke-width="1" opacity="1" d="M 1835.5 1449 L 1841 1455.5 L 1838 1453.5 L 1835.5 1449 Z " /><path fill="rgb(246,223,23)" stroke="rgb(246,223,23)" stroke-width="1" opacity="1" d="M 1841.5 1457 L 1843.5 1460 L 1841.5 1457 Z " /><path fill="rgb(246,223,23)" stroke="rgb(246,223,23)" stroke-width="1" opacity="1" d="M 1473.5 1458 L 1481 1461.5 L 1479.5 1462 L 1473.5 1459 L 1473.5 1458 Z " /><path fill="rgb(246,223,23)" stroke="rgb(246,223,23)" stroke-width="1" opacity="1" d="M 1844.5 1461 L 1850 1468.5 L 1848 1467.5 L 1844.5 1461 Z " /><path fill="rgb(246,223,23)" stroke="rgb(246,223,23)" stroke-width="1" opacity="1" d="M 1486.5 1464 L 1492 1466.5 L 1490.5 1467 L 1486.5 1465 L 1486.5 1464 Z " /><path fill="rgb(246,223,23)" stroke="rgb(246,223,23)" stroke-width="1" opacity="1" d="M 1850.5 1470 L 1851.5 1472 L 1850.5 1470 Z " /><path fill="rgb(246,223,23)" stroke="rgb(246,223,23)" stroke-width="1" opacity="1" d="M 1504.5 1472 L 1508 1473.5 L 1506.5 1474 L 1504.5 1472 Z " /><path fill="rgb(246,223,23)" stroke="rgb(246,223,23)" stroke-width="1" opacity="1" d="M 1852.5 1473 L 1855 1476.5 L 1853 1475.5 L 1852.5 1473 Z " /><path fill="rgb(246,223,23)" stroke="rgb(246,223,23)" stroke-width="1" opacity="1" d="M 1511.5 1475 L 1515 1476.5 L 1513.5 1477 L 1511.5 1475 Z " /><path fill="rgb(246,223,23)" stroke="rgb(246,223,23)" stroke-width="1" opacity="1" d="M 1518.5 1478 L 1522 1479.5 L 1520.5 1480 L 1518.5 1478 Z " /><path fill="rgb(246,223,23)" stroke="rgb(246,223,23)" stroke-width="1" opacity="1" d="M 1856.5 1480 L 1859 1483.5 L 1857 1482.5 L 1856.5 1480 Z " /><path fill="rgb(246,223,23)" stroke="rgb(246,223,23)" stroke-width="1" opacity="1" d="M 1525.5 1481 L 1529 1482.5 L 1527.5 1483 L 1525.5 1481 Z " /><path fill="rgb(246,223,23)" stroke="rgb(246,223,23)" stroke-width="1" opacity="1" d="M 1532.5 1484 L 1536 1485.5 L 1534.5 1486 L 1532.5 1484 Z " /><path fill="rgb(246,223,23)" stroke="rgb(246,223,23)" stroke-width="1" opacity="1" d="M 1539.5 1487 L 1543 1488.5 L 1541.5 1489 L 1539.5 1487 Z " /><path fill="rgb(246,223,23)" stroke="rgb(246,223,23)" stroke-width="1" opacity="1" d="M 1546.5 1490 L 1550 1491.5 L 1548.5 1492 L 1546.5 1490 Z " /><path fill="rgb(246,223,23)" stroke="rgb(246,223,23)" stroke-width="1" opacity="1" d="M 1553.5 1493 L 1557 1494.5 L 1555.5 1495 L 1553.5 1493 Z " /><path fill="rgb(246,223,23)" stroke="rgb(246,223,23)" stroke-width="1" opacity="1" d="M 1562.5 1497 L 1566 1498.5 L 1564.5 1499 L 1562.5 1497 Z " /><path fill="rgb(246,223,23)" stroke="rgb(246,223,23)" stroke-width="1" opacity="1" d="M 1865.5 1497 L 1867 1500.5 L 1866 1500.5 L 1865.5 1497 Z " /><path fill="rgb(246,223,23)" stroke="rgb(246,223,23)" stroke-width="1" opacity="1" d="M 1571.5 1501 L 1575 1502.5 L 1573.5 1503 L 1571.5 1501 Z " /><path fill="rgb(246,223,23)" stroke="rgb(246,223,23)" stroke-width="1" opacity="1" d="M 1868.5 1504 L 1870 1507.5 L 1869 1507.5 L 1868.5 1504 Z " /><path fill="rgb(246,223,23)" stroke="rgb(246,223,23)" stroke-width="1" opacity="1" d="M 1589.5 1509 L 1593 1510.5 L 1591.5 1511 L 1589.5 1509 Z " /><path fill="rgb(246,223,23)" stroke="rgb(246,223,23)" stroke-width="1" opacity="1" d="M 1602.5 1515 L 1614 1520.5 L 1612.5 1521 L 1602.5 1516 L 1602.5 1515 Z " /><path fill="rgb(246,223,23)" stroke="rgb(246,223,23)" stroke-width="1" opacity="1" d="M 1615.5 1521 L 1627 1527.5 L 1625.5 1527 L 1616.5 1523 L 1615.5 1521 Z " /><path fill="rgb(246,223,23)" stroke="rgb(246,223,23)" stroke-width="1" opacity="1" d="M 1630.5 1529 L 1634 1531.5 L 1632.5 1531 L 1630.5 1529 Z " /><path fill="rgb(246,223,23)" stroke="rgb(246,223,23)" stroke-width="1" opacity="1" d="M 1637.5 1533 L 1641 1535.5 L 1639.5 1535 L 1637.5 1533 Z " /><path fill="rgb(246,223,23)" stroke="rgb(246,223,23)" stroke-width="1" opacity="1" d="M 1642.5 1536 L 1653 1543.5 L 1650.5 1542 L 1643.5 1538 L 1642.5 1536 Z " /><path fill="rgb(246,223,23)" stroke="rgb(246,223,23)" stroke-width="1" opacity="1" d="M 1879.5 1536 L 1880 1538.5 L 1879 1538.5 L 1879.5 1536 Z " /><path fill="rgb(246,223,23)" stroke="rgb(246,223,23)" stroke-width="1" opacity="1" d="M 1880.5 1540 L 1881 1542.5 L 1880 1542.5 L 1880.5 1540 Z " /><path fill="rgb(246,223,23)" stroke="rgb(246,223,23)" stroke-width="1" opacity="1" d="M 1654.5 1544 L 1677 1564.5 L 1662.5 1551 Q 1656.4 1548.3 1654.5 1544 Z " /><path fill="rgb(246,223,23)" stroke="rgb(246,223,23)" stroke-width="1" opacity="1" d="M 1882.5 1549 L 1883 1551.5 L 1882 1551.5 L 1882.5 1549 Z " /><path fill="rgb(246,223,23)" stroke="rgb(246,223,23)" stroke-width="1" opacity="1" d="M 1883.5 1554 L 1884 1556.5 L 1883 1556.5 L 1883.5 1554 Z " /><path fill="rgb(246,223,23)" stroke="rgb(246,223,23)" stroke-width="1" opacity="1" d="M 1884.5 1559 L 1885 1561.5 L 1884 1561.5 L 1884.5 1559 Z " /><path fill="rgb(246,223,23)" stroke="rgb(246,223,23)" stroke-width="1" opacity="1" d="M 1885.5 1565 L 1886 1568.5 L 1885 1568.5 L 1885.5 1565 Z " /><path fill="rgb(246,223,23)" stroke="rgb(246,223,23)" stroke-width="1" opacity="1" d="M 1677.5 1566 L 1679.5 1569 L 1677.5 1566 Z " /><path fill="rgb(246,223,23)" stroke="rgb(246,223,23)" stroke-width="1" opacity="1" d="M 1680.5 1570 L 1684 1574.5 L 1682 1573.5 L 1680.5 1570 Z " /><path fill="rgb(246,223,23)" stroke="rgb(246,223,23)" stroke-width="1" opacity="1" d="M 1886.5 1573 L 1887 1575.5 L 1886 1575.5 L 1886.5 1573 Z " /><path fill="rgb(246,223,23)" stroke="rgb(246,223,23)" stroke-width="1" opacity="1" d="M 1684.5 1576 L 1689 1584.5 L 1688 1584.5 L 1684.5 1576 Z " /><path fill="rgb(246,223,23)" stroke="rgb(246,223,23)" stroke-width="1" opacity="1" d="M 1887.5 1581 L 1888 1586.5 L 1887 1586.5 L 1887.5 1581 Z " /><path fill="rgb(246,223,23)" stroke="rgb(246,223,23)" stroke-width="1" opacity="1" d="M 1888.5 1593 L 1889 1601.5 L 1888 1601.5 L 1888.5 1593 Z " /><path fill="rgb(246,223,23)" stroke="rgb(246,223,23)" stroke-width="1" opacity="1" d="M 1370.5 1602 L 1369.5 1604 L 1367.5 1605 L 1368.5 1603 L 1370.5 1602 Z " /><path fill="rgb(246,223,23)" stroke="rgb(246,223,23)" stroke-width="1" opacity="1" d="M 1377.5 1602 L 1378.5 1604 L 1377.5 1602 Z " /><path fill="rgb(246,223,23)" stroke="rgb(246,223,23)" stroke-width="1" opacity="1" d="M 1694.5 1603 L 1695 1605.5 L 1694 1605.5 L 1694.5 1603 Z " /><path fill="rgb(246,223,23)" stroke="rgb(246,223,23)" stroke-width="1" opacity="1" d="M 1365.5 1605 L 1364.5 1607 L 1362.5 1608 L 1363.5 1606 L 1365.5 1605 Z " /><path fill="rgb(246,223,23)" stroke="rgb(246,223,23)" stroke-width="1" opacity="1" d="M 1379.5 1605 L 1380.5 1607 L 1379.5 1605 Z " /><path fill="rgb(246,223,23)" stroke="rgb(246,223,23)" stroke-width="1" opacity="1" d="M 1381.5 1608 L 1384 1611.5 L 1382 1610.5 L 1381.5 1608 Z " /><path fill="rgb(246,223,23)" stroke="rgb(246,223,23)" stroke-width="1" opacity="1" d="M 1358.5 1609 L 1357.5 1611 L 1355.5 1612 L 1356.5 1610 L 1358.5 1609 Z " /><path fill="rgb(246,223,23)" stroke="rgb(246,223,23)" stroke-width="1" opacity="1" d="M 1695.5 1609 L 1696 1614.5 L 1695 1614.5 L 1695.5 1609 Z " /><path fill="rgb(246,223,23)" stroke="rgb(246,223,23)" stroke-width="1" opacity="1" d="M 1353.5 1612 L 1352.5 1614 L 1350.5 1615 L 1351.5 1613 L 1353.5 1612 Z " /><path fill="rgb(246,223,23)" stroke="rgb(246,223,23)" stroke-width="1" opacity="1" d="M 1384.5 1613 L 1389 1618.5 L 1386 1616.5 L 1384.5 1613 Z " /><path fill="rgb(246,223,23)" stroke="rgb(246,223,23)" stroke-width="1" opacity="1" d="M 695.5 1616 Q 697.8 1615.3 697 1617.5 L 697.5 1619 Q 696 1615.5 694.5 1618 L 692.5 1619 L 693.5 1617 L 695.5 1616 Z " /><path fill="rgb(246,223,23)" stroke="rgb(246,223,23)" stroke-width="1" opacity="1" d="M 1346.5 1616 L 1345.5 1618 L 1343.5 1619 L 1344.5 1617 L 1346.5 1616 Z " /><path fill="rgb(246,223,23)" stroke="rgb(246,223,23)" stroke-width="1" opacity="1" d="M 921.5 1617 L 922 1622.5 L 921 1622.5 L 921.5 1617 Z " /><path fill="rgb(246,223,23)" stroke="rgb(246,223,23)" stroke-width="1" opacity="1" d="M 690.5 1619 L 689.5 1621 L 687.5 1622 L 688.5 1620 L 690.5 1619 Z " /><path fill="rgb(246,223,23)" stroke="rgb(246,223,23)" stroke-width="1" opacity="1" d="M 1339.5 1620 L 1338.5 1622 L 1336.5 1623 L 1337.5 1621 L 1339.5 1620 Z " /><path fill="rgb(246,223,23)" stroke="rgb(246,223,23)" stroke-width="1" opacity="1" d="M 1389.5 1620 L 1390.5 1622 L 1389.5 1620 Z " /><path fill="rgb(246,223,23)" stroke="rgb(246,223,23)" stroke-width="1" opacity="1" d="M 685.5 1622 L 684.5 1624 L 682.5 1625 L 683.5 1623 L 685.5 1622 Z " /><path fill="rgb(246,223,23)" stroke="rgb(246,223,23)" stroke-width="1" opacity="1" d="M 699.5 1622 L 702 1625.5 L 700 1624.5 L 699.5 1622 Z " /><path fill="rgb(246,223,23)" stroke="rgb(246,223,23)" stroke-width="1" opacity="1" d="M 1334.5 1623 L 1333.5 1625 L 1331.5 1626 L 1332.5 1624 L 1334.5 1623 Z " /><path fill="rgb(246,223,23)" stroke="rgb(246,223,23)" stroke-width="1" opacity="1" d="M 1391.5 1623 L 1392.5 1625 L 1391.5 1623 Z " /><path fill="rgb(246,223,23)" stroke="rgb(246,223,23)" stroke-width="1" opacity="1" d="M 680.5 1625 L 679.5 1627 L 677.5 1628 L 678.5 1626 L 680.5 1625 Z " /><path fill="rgb(246,223,23)" stroke="rgb(246,223,23)" stroke-width="1" opacity="1" d="M 1114.5 1625 L 1115 1632.5 L 1114 1632.5 L 1114.5 1625 Z " /><path fill="rgb(246,223,23)" stroke="rgb(246,223,23)" stroke-width="1" opacity="1" d="M 1393.5 1626 L 1395.5 1629 L 1393.5 1626 Z " /><path fill="rgb(246,223,23)" stroke="rgb(246,223,23)" stroke-width="1" opacity="1" d="M 920.5 1627 L 921 1630.5 L 920 1630.5 L 920.5 1627 Z " /><path fill="rgb(246,223,23)" stroke="rgb(246,223,23)" stroke-width="1" opacity="1" d="M 1327.5 1627 L 1326.5 1629 L 1324.5 1630 L 1325.5 1628 L 1327.5 1627 Z " /><path fill="rgb(246,223,23)" stroke="rgb(246,223,23)" stroke-width="1" opacity="1" d="M 675.5 1628 L 674.5 1630 L 675.5 1628 Z " /><path fill="rgb(246,223,23)" stroke="rgb(246,223,23)" stroke-width="1" opacity="1" d="M 1695.5 1628 L 1696 1632.5 L 1695 1632.5 L 1695.5 1628 Z " /><path fill="rgb(246,223,23)" stroke="rgb(246,223,23)" stroke-width="1" opacity="1" d="M 703.5 1629 L 706 1632.5 L 704 1631.5 L 703.5 1629 Z " /><path fill="rgb(246,223,23)" stroke="rgb(246,223,23)" stroke-width="1" opacity="1" d="M 1322.5 1630 L 1321.5 1632 L 1319.5 1633 L 1320.5 1631 L 1322.5 1630 Z " /><path fill="rgb(246,223,23)" stroke="rgb(246,223,23)" stroke-width="1" opacity="1" d="M 1396.5 1630 L 1398.5 1633 L 1396.5 1630 Z " /><path fill="rgb(246,223,23)" stroke="rgb(246,223,23)" stroke-width="1" opacity="1" d="M 670.5 1631 L 669.5 1633 L 670.5 1631 Z " /><path fill="rgb(246,223,23)" stroke="rgb(246,223,23)" stroke-width="1" opacity="1" d="M 665.5 1634 L 664.5 1636 L 665.5 1634 Z " /><path fill="rgb(246,223,23)" stroke="rgb(246,223,23)" stroke-width="1" opacity="1" d="M 919.5 1634 L 920 1636.5 L 919 1636.5 L 919.5 1634 Z " /><path fill="rgb(246,223,23)" stroke="rgb(246,223,23)" stroke-width="1" opacity="1" d="M 1315.5 1634 L 1314.5 1636 L 1312.5 1637 L 1313.5 1635 L 1315.5 1634 Z " /><path fill="rgb(246,223,23)" stroke="rgb(246,223,23)" stroke-width="1" opacity="1" d="M 1399.5 1634 L 1402.5 1638 L 1399.5 1634 Z " /><path fill="rgb(246,223,23)" stroke="rgb(246,223,23)" stroke-width="1" opacity="1" d="M 662.5 1636 L 661.5 1638 L 659.5 1639 L 660.5 1637 L 662.5 1636 Z " /><path fill="rgb(246,223,23)" stroke="rgb(246,223,23)" stroke-width="1" opacity="1" d="M 707.5 1636 L 708.5 1638 L 707.5 1636 Z " /><path fill="rgb(246,223,23)" stroke="rgb(246,223,23)" stroke-width="1" opacity="1" d="M 1694.5 1636 L 1695 1638.5 L 1694 1638.5 L 1694.5 1636 Z " /><path fill="rgb(246,223,23)" stroke="rgb(246,223,23)" stroke-width="1" opacity="1" d="M 1888.5 1636 L 1889 1643.5 L 1888 1643.5 L 1888.5 1636 Z " /><path fill="rgb(246,223,23)" stroke="rgb(246,223,23)" stroke-width="1" opacity="1" d="M 1308.5 1638 L 1307.5 1640 L 1308.5 1638 Z " /><path fill="rgb(246,223,23)" stroke="rgb(246,223,23)" stroke-width="1" opacity="1" d="M 657.5 1639 L 656.5 1641 L 654.5 1642 L 655.5 1640 L 657.5 1639 Z " /><path fill="rgb(246,223,23)" stroke="rgb(246,223,23)" stroke-width="1" opacity="1" d="M 1113.5 1639 L 1114 1643.5 L 1113 1643.5 L 1113.5 1639 Z " /><path fill="rgb(246,223,23)" stroke="rgb(246,223,23)" stroke-width="1" opacity="1" d="M 1403.5 1639 L 1407.5 1644 L 1403.5 1639 Z " /><path fill="rgb(246,223,23)" stroke="rgb(246,223,23)" stroke-width="1" opacity="1" d="M 918.5 1640 L 919 1642.5 L 918 1642.5 L 918.5 1640 Z " /><path fill="rgb(246,223,23)" stroke="rgb(246,223,23)" stroke-width="1" opacity="1" d="M 710.5 1641 L 711.5 1643 L 710.5 1641 Z " /><path fill="rgb(246,223,23)" stroke="rgb(246,223,23)" stroke-width="1" opacity="1" d="M 1303.5 1641 L 1302.5 1643 L 1300.5 1644 L 1301.5 1642 L 1303.5 1641 Z " /><path fill="rgb(246,223,23)" stroke="rgb(246,223,23)" stroke-width="1" opacity="1" d="M 652.5 1642 L 651.5 1644 L 649.5 1645 L 650.5 1643 L 652.5 1642 Z " /><path fill="rgb(246,223,23)" stroke="rgb(246,223,23)" stroke-width="1" opacity="1" d="M 712.5 1644 L 715 1647.5 L 713 1646.5 L 712.5 1644 Z " /><path fill="rgb(246,223,23)" stroke="rgb(246,223,23)" stroke-width="1" opacity="1" d="M 647.5 1645 L 646.5 1647 L 644.5 1648 L 645.5 1646 L 647.5 1645 Z " /><path fill="rgb(246,223,23)" stroke="rgb(246,223,23)" stroke-width="1" opacity="1" d="M 1296.5 1645 L 1295.5 1647 L 1293.5 1648 L 1294.5 1646 L 1296.5 1645 Z " /><path fill="rgb(246,223,23)" stroke="rgb(246,223,23)" stroke-width="1" opacity="1" d="M 1408.5 1645 L 1417.5 1655 L 1408.5 1645 Z " /><path fill="rgb(246,223,23)" stroke="rgb(246,223,23)" stroke-width="1" opacity="1" d="M 642.5 1648 L 641.5 1650 L 639.5 1651 L 640.5 1649 L 642.5 1648 Z " /><path fill="rgb(246,223,23)" stroke="rgb(246,223,23)" stroke-width="1" opacity="1" d="M 1291.5 1648 L 1290.5 1650 L 1288.5 1651 L 1289.5 1649 L 1291.5 1648 Z " /><path fill="rgb(246,223,23)" stroke="rgb(246,223,23)" stroke-width="1" opacity="1" d="M 715.5 1649 L 716.5 1651 L 715.5 1649 Z " /><path fill="rgb(246,223,23)" stroke="rgb(246,223,23)" stroke-width="1" opacity="1" d="M 1112.5 1649 L 1113 1652.5 L 1112 1652.5 L 1112.5 1649 Z " /><path fill="rgb(246,223,23)" stroke="rgb(246,223,23)" stroke-width="1" opacity="1" d="M 1887.5 1649 L 1888 1653.5 L 1887 1653.5 L 1887.5 1649 Z " /><path fill="rgb(246,223,23)" stroke="rgb(246,223,23)" stroke-width="1" opacity="1" d="M 637.5 1651 L 636.5 1653 L 637.5 1651 Z " /><path fill="rgb(246,223,23)" stroke="rgb(246,223,23)" stroke-width="1" opacity="1" d="M 717.5 1652 L 718.5 1654 L 717.5 1652 Z " /><path fill="rgb(246,223,23)" stroke="rgb(246,223,23)" stroke-width="1" opacity="1" d="M 1284.5 1652 L 1283.5 1654 L 1281.5 1655 L 1282.5 1653 L 1284.5 1652 Z " /><path fill="rgb(246,223,23)" stroke="rgb(246,223,23)" stroke-width="1" opacity="1" d="M 632.5 1654 L 631.5 1656 L 632.5 1654 Z " /><path fill="rgb(246,223,23)" stroke="rgb(246,223,23)" stroke-width="1" opacity="1" d="M 719.5 1655 L 720.5 1657 L 719.5 1655 Z " /><path fill="rgb(246,223,23)" stroke="rgb(246,223,23)" stroke-width="1" opacity="1" d="M 1277.5 1656 L 1276.5 1658 L 1277.5 1656 Z " /><path fill="rgb(246,223,23)" stroke="rgb(246,223,23)" stroke-width="1" opacity="1" d="M 627.5 1657 L 626.5 1659 L 627.5 1657 Z " /><path fill="rgb(246,223,23)" stroke="rgb(246,223,23)" stroke-width="1" opacity="1" d="M 1111.5 1657 L 1112 1660.5 L 1111 1660.5 L 1111.5 1657 Z " /><path fill="rgb(246,223,23)" stroke="rgb(246,223,23)" stroke-width="1" opacity="1" d="M 1419.5 1657 L 1420.5 1659 L 1419.5 1657 Z " /><path fill="rgb(246,223,23)" stroke="rgb(246,223,23)" stroke-width="1" opacity="1" d="M 721.5 1658 L 722.5 1660 L 721.5 1658 Z " /><path fill="rgb(246,223,23)" stroke="rgb(246,223,23)" stroke-width="1" opacity="1" d="M 624.5 1659 L 623.5 1661 L 621.5 1662 L 622.5 1660 L 624.5 1659 Z " /><path fill="rgb(246,223,23)" stroke="rgb(246,223,23)" stroke-width="1" opacity="1" d="M 1272.5 1659 L 1271.5 1661 L 1269.5 1662 L 1270.5 1660 L 1272.5 1659 Z " /><path fill="rgb(246,223,23)" stroke="rgb(246,223,23)" stroke-width="1" opacity="1" d="M 1886.5 1659 L 1887 1661.5 L 1886 1661.5 L 1886.5 1659 Z " /><path fill="rgb(246,223,23)" stroke="rgb(246,223,23)" stroke-width="1" opacity="1" d="M 1686.5 1660 L 1686 1661.5 L 1684.5 1664 L 1685 1662.5 L 1686.5 1660 Z " /><path fill="rgb(246,223,23)" stroke="rgb(246,223,23)" stroke-width="1" opacity="1" d="M 723.5 1661 L 725.5 1664 L 723.5 1661 Z " /><path fill="rgb(246,223,23)" stroke="rgb(246,223,23)" stroke-width="1" opacity="1" d="M 619.5 1662 L 618.5 1664 L 616.5 1665 L 617.5 1663 L 619.5 1662 Z " /><path fill="rgb(246,223,23)" stroke="rgb(246,223,23)" stroke-width="1" opacity="1" d="M 1425.5 1662 L 1433.5 1671 L 1425.5 1662 Z " /><path fill="rgb(246,223,23)" stroke="rgb(246,223,23)" stroke-width="1" opacity="1" d="M 1110.5 1663 L 1111 1666.5 L 1110 1666.5 L 1110.5 1663 Z " /><path fill="rgb(246,223,23)" stroke="rgb(246,223,23)" stroke-width="1" opacity="1" d="M 1265.5 1663 L 1264.5 1665 L 1262.5 1666 L 1263.5 1664 L 1265.5 1663 Z " /><path fill="rgb(246,223,23)" stroke="rgb(246,223,23)" stroke-width="1" opacity="1" d="M 614.5 1665 L 613.5 1667 L 611.5 1668 L 612.5 1666 L 614.5 1665 Z " /><path fill="rgb(246,223,23)" stroke="rgb(246,223,23)" stroke-width="1" opacity="1" d="M 726.5 1665 L 728.5 1668 L 726.5 1665 Z " /><path fill="rgb(246,223,23)" stroke="rgb(246,223,23)" stroke-width="1" opacity="1" d="M 1683.5 1665 L 1683 1666.5 L 1680.5 1670 L 1682 1667.5 L 1683.5 1665 Z " /><path fill="rgb(246,223,23)" stroke="rgb(246,223,23)" stroke-width="1" opacity="1" d="M 1260.5 1666 L 1259.5 1668 L 1257.5 1669 L 1258.5 1667 L 1260.5 1666 Z " /><path fill="rgb(246,223,23)" stroke="rgb(246,223,23)" stroke-width="1" opacity="1" d="M 1885.5 1666 L 1886 1668.5 L 1885 1668.5 L 1885.5 1666 Z " /><path fill="rgb(246,223,23)" stroke="rgb(246,223,23)" stroke-width="1" opacity="1" d="M 609.5 1668 L 608.5 1670 L 606.5 1671 L 607.5 1669 L 609.5 1668 Z " /><path fill="rgb(246,223,23)" stroke="rgb(246,223,23)" stroke-width="1" opacity="1" d="M 729.5 1669 L 732.5 1673 L 729.5 1669 Z " /><path fill="rgb(246,223,23)" stroke="rgb(246,223,23)" stroke-width="1" opacity="1" d="M 1109.5 1670 L 1110 1672.5 L 1109 1672.5 L 1109.5 1670 Z " /><path fill="rgb(246,223,23)" stroke="rgb(246,223,23)" stroke-width="1" opacity="1" d="M 1253.5 1670 L 1252.5 1672 L 1250.5 1673 L 1251.5 1671 L 1253.5 1670 Z " /><path fill="rgb(246,223,23)" stroke="rgb(246,223,23)" stroke-width="1" opacity="1" d="M 604.5 1671 L 603.5 1673 L 601.5 1674 L 602.5 1672 L 604.5 1671 Z " /><path fill="rgb(246,223,23)" stroke="rgb(246,223,23)" stroke-width="1" opacity="1" d="M 1435.5 1671 L 1439.5 1676 L 1435.5 1671 Z " /><path fill="rgb(246,223,23)" stroke="rgb(246,223,23)" stroke-width="1" opacity="1" d="M 1679.5 1671 L 1676.5 1675 L 1679.5 1671 Z " /><path fill="rgb(246,223,23)" stroke="rgb(246,223,23)" stroke-width="1" opacity="1" d="M 1884.5 1672 L 1885 1674.5 L 1884 1674.5 L 1884.5 1672 Z " /><path fill="rgb(246,223,23)" stroke="rgb(246,223,23)" stroke-width="1" opacity="1" d="M 1248.5 1673 L 1247.5 1675 L 1245.5 1676 L 1246.5 1674 L 1248.5 1673 Z " /><path fill="rgb(246,223,23)" stroke="rgb(246,223,23)" stroke-width="1" opacity="1" d="M 599.5 1674 L 598.5 1676 L 599.5 1674 Z " /><path fill="rgb(246,223,23)" stroke="rgb(246,223,23)" stroke-width="1" opacity="1" d="M 733.5 1674 L 740.5 1682 L 733.5 1674 Z " /><path fill="rgb(246,223,23)" stroke="rgb(246,223,23)" stroke-width="1" opacity="1" d="M 906.5 1675 L 906 1676.5 L 904.5 1679 L 905 1677.5 L 906.5 1675 Z " /><path fill="rgb(246,223,23)" stroke="rgb(246,223,23)" stroke-width="1" opacity="1" d="M 1108.5 1675 L 1109 1677.5 L 1108 1677.5 L 1108.5 1675 Z " /><path fill="rgb(246,223,23)" stroke="rgb(246,223,23)" stroke-width="1" opacity="1" d="M 1441.5 1676 L 1443.5 1679 L 1441.5 1676 Z " /><path fill="rgb(246,223,23)" stroke="rgb(246,223,23)" stroke-width="1" opacity="1" d="M 1675.5 1676 L 1667.5 1685 L 1675.5 1676 Z " /><path fill="rgb(246,223,23)" stroke="rgb(246,223,23)" stroke-width="1" opacity="1" d="M 594.5 1677 L 593.5 1679 L 594.5 1677 Z " /><path fill="rgb(246,223,23)" stroke="rgb(246,223,23)" stroke-width="1" opacity="1" d="M 1241.5 1677 L 1240.5 1679 L 1238.5 1680 L 1239.5 1678 L 1241.5 1677 Z " /><path fill="rgb(246,223,23)" stroke="rgb(246,223,23)" stroke-width="1" opacity="1" d="M 1883.5 1677 L 1884 1679.5 L 1883 1679.5 L 1883.5 1677 Z " /><path fill="rgb(246,223,23)" stroke="rgb(246,223,23)" stroke-width="1" opacity="1" d="M 1445.5 1679 L 1446.5 1681 L 1445.5 1679 Z " /><path fill="rgb(246,223,23)" stroke="rgb(246,223,23)" stroke-width="1" opacity="1" d="M 589.5 1680 L 588.5 1682 L 589.5 1680 Z " /><path fill="rgb(246,223,23)" stroke="rgb(246,223,23)" stroke-width="1" opacity="1" d="M 903.5 1680 L 902 1682.5 L 898.5 1687 L 901 1683.5 L 903.5 1680 Z " /><path fill="rgb(246,223,23)" stroke="rgb(246,223,23)" stroke-width="1" opacity="1" d="M 1107.5 1680 L 1108 1682.5 L 1107 1682.5 L 1107.5 1680 Z " /><path fill="rgb(246,223,23)" stroke="rgb(246,223,23)" stroke-width="1" opacity="1" d="M 1234.5 1681 L 1233.5 1683 L 1231.5 1684 L 1232.5 1682 L 1234.5 1681 Z " /><path fill="rgb(246,223,23)" stroke="rgb(246,223,23)" stroke-width="1" opacity="1" d="M 1448.5 1681 L 1450.5 1684 L 1448.5 1681 Z " /><path fill="rgb(246,223,23)" stroke="rgb(246,223,23)" stroke-width="1" opacity="1" d="M 586.5 1682 L 585.5 1684 L 583.5 1685 L 584.5 1683 L 586.5 1682 Z " /><path fill="rgb(246,223,23)" stroke="rgb(246,223,23)" stroke-width="1" opacity="1" d="M 743.5 1684 L 751.5 1693 L 743.5 1684 Z " /><path fill="rgb(246,223,23)" stroke="rgb(246,223,23)" stroke-width="1" opacity="1" d="M 1229.5 1684 L 1228.5 1686 L 1226.5 1687 L 1227.5 1685 L 1229.5 1684 Z " /><path fill="rgb(246,223,23)" stroke="rgb(246,223,23)" stroke-width="1" opacity="1" d="M 1452.5 1684 L 1453.5 1686 L 1452.5 1684 Z " /><path fill="rgb(246,223,23)" stroke="rgb(246,223,23)" stroke-width="1" opacity="1" d="M 581.5 1685 L 580.5 1687 L 578.5 1688 L 579.5 1686 L 581.5 1685 Z " /><path fill="rgb(246,223,23)" stroke="rgb(246,223,23)" stroke-width="1" opacity="1" d="M 1106.5 1685 L 1107 1687.5 L 1106 1687.5 L 1106.5 1685 Z " /><path fill="rgb(246,223,23)" stroke="rgb(246,223,23)" stroke-width="1" opacity="1" d="M 1665.5 1685 L 1661.5 1690 L 1658.5 1692 L 1660.5 1689 L 1665.5 1685 Z " /><path fill="rgb(246,223,23)" stroke="rgb(246,223,23)" stroke-width="1" opacity="1" d="M 1455.5 1686 L 1459 1688.5 L 1457.5 1688 L 1455.5 1686 Z " /><path fill="rgb(246,223,23)" stroke="rgb(246,223,23)" stroke-width="1" opacity="1" d="M 1881.5 1686 L 1882 1688.5 L 1881 1688.5 L 1881.5 1686 Z " /><path fill="rgb(246,223,23)" stroke="rgb(246,223,23)" stroke-width="1" opacity="1" d="M 576.5 1688 L 575.5 1690 L 573.5 1691 L 574.5 1689 L 576.5 1688 Z " /><path fill="rgb(246,223,23)" stroke="rgb(246,223,23)" stroke-width="1" opacity="1" d="M 897.5 1688 L 891.5 1695 L 897.5 1688 Z " /><path fill="rgb(246,223,23)" stroke="rgb(246,223,23)" stroke-width="1" opacity="1" d="M 1222.5 1688 L 1221.5 1690 Q 1218.9 1689.2 1220 1692.5 L 1220.5 1694 L 1219 1690.5 L 1222.5 1688 Z " /><path fill="rgb(246,223,23)" stroke="rgb(246,223,23)" stroke-width="1" opacity="1" d="M 1460.5 1689 L 1464 1691.5 L 1462.5 1691 L 1460.5 1689 Z " /><path fill="rgb(246,223,23)" stroke="rgb(246,223,23)" stroke-width="1" opacity="1" d="M 1880.5 1690 L 1881 1692.5 L 1880 1692.5 L 1880.5 1690 Z " /><path fill="rgb(246,223,23)" stroke="rgb(246,223,23)" stroke-width="1" opacity="1" d="M 571.5 1691 L 570.5 1693 L 568.5 1694 L 569.5 1692 L 571.5 1691 Z " /><path fill="rgb(246,223,23)" stroke="rgb(246,223,23)" stroke-width="1" opacity="1" d="M 1656.5 1692 L 1655.5 1694 L 1656.5 1692 Z " /><path fill="rgb(246,223,23)" stroke="rgb(246,223,23)" stroke-width="1" opacity="1" d="M 753.5 1693 L 755.5 1696 L 753.5 1693 Z " /><path fill="rgb(246,223,23)" stroke="rgb(246,223,23)" stroke-width="1" opacity="1" d="M 1467.5 1693 L 1476 1697.5 L 1474.5 1698 L 1468.5 1695 L 1467.5 1693 Z " /><path fill="rgb(246,223,23)" stroke="rgb(246,223,23)" stroke-width="1" opacity="1" d="M 566.5 1694 L 565.5 1696 L 563.5 1697 L 564.5 1695 L 566.5 1694 Z " /><path fill="rgb(246,223,23)" stroke="rgb(246,223,23)" stroke-width="1" opacity="1" d="M 1653.5 1694 L 1652.5 1696 L 1650.5 1697 L 1651.5 1695 L 1653.5 1694 Z " /><path fill="rgb(246,223,23)" stroke="rgb(246,223,23)" stroke-width="1" opacity="1" d="M 889.5 1695 L 886.5 1699 L 883.5 1701 L 885.5 1698 L 889.5 1695 Z " /><path fill="rgb(246,223,23)" stroke="rgb(246,223,23)" stroke-width="1" opacity="1" d="M 757.5 1696 L 758.5 1698 L 757.5 1696 Z " /><path fill="rgb(246,223,23)" stroke="rgb(246,223,23)" stroke-width="1" opacity="1" d="M 561.5 1697 L 560.5 1699 L 561.5 1697 Z " /><path fill="rgb(246,223,23)" stroke="rgb(246,223,23)" stroke-width="1" opacity="1" d="M 1648.5 1697 L 1647.5 1699 L 1640.5 1702 L 1640.5 1701 L 1648.5 1697 Z " /><path fill="rgb(246,223,23)" stroke="rgb(246,223,23)" stroke-width="1" opacity="1" d="M 760.5 1698 L 761.5 1700 L 760.5 1698 Z " /><path fill="rgb(246,223,23)" stroke="rgb(246,223,23)" stroke-width="1" opacity="1" d="M 556.5 1700 L 555.5 1702 L 556.5 1700 Z " /><path fill="rgb(246,223,23)" stroke="rgb(246,223,23)" stroke-width="1" opacity="1" d="M 763.5 1700 L 767 1702.5 L 765.5 1702 L 763.5 1700 Z " /><path fill="rgb(246,223,23)" stroke="rgb(246,223,23)" stroke-width="1" opacity="1" d="M 1481.5 1700 L 1485 1701.5 L 1483.5 1702 L 1481.5 1700 Z " /><path fill="rgb(246,223,23)" stroke="rgb(246,223,23)" stroke-width="1" opacity="1" d="M 881.5 1701 L 880.5 1703 L 876.5 1705 L 877.5 1703 L 881.5 1701 Z " /><path fill="rgb(246,223,23)" stroke="rgb(246,223,23)" stroke-width="1" opacity="1" d="M 1102.5 1701 L 1103 1703.5 L 1102 1703.5 L 1102.5 1701 Z " /><path fill="rgb(246,223,23)" stroke="rgb(246,223,23)" stroke-width="1" opacity="1" d="M 1224.5 1701 L 1228 1706.5 L 1226 1705.5 L 1224.5 1701 Z " /><path fill="rgb(246,223,23)" stroke="rgb(246,223,23)" stroke-width="1" opacity="1" d="M 551.5 1703 L 550.5 1705 L 551.5 1703 Z " /><path fill="rgb(246,223,23)" stroke="rgb(246,223,23)" stroke-width="1" opacity="1" d="M 548.5 1705 L 547.5 1707 L 545.5 1708 L 546.5 1706 L 548.5 1705 Z " /><path fill="rgb(246,223,23)" stroke="rgb(246,223,23)" stroke-width="1" opacity="1" d="M 873.5 1705 L 875 1705.5 L 871.5 1707 L 871.5 1706 L 873.5 1705 Z " /><path fill="rgb(246,223,23)" stroke="rgb(246,223,23)" stroke-width="1" opacity="1" d="M 774.5 1706 L 778 1707.5 L 776.5 1708 L 774.5 1706 Z " /><path fill="rgb(246,223,23)" stroke="rgb(246,223,23)" stroke-width="1" opacity="1" d="M 543.5 1708 L 542.5 1710 L 540 1711.5 L 539.5 1713 L 539 1711.5 L 543.5 1708 Z " /><path fill="rgb(246,223,23)" stroke="rgb(246,223,23)" stroke-width="1" opacity="1" d="M 1618.5 1709 L 1621 1709.5 L 1618.5 1710 L 1618.5 1709 Z " /><path fill="rgb(246,223,23)" stroke="rgb(246,223,23)" stroke-width="1" opacity="1" d="M 1229.5 1710 L 1232 1713.5 L 1230 1712.5 L 1229.5 1710 Z " /><path fill="rgb(246,223,23)" stroke="rgb(246,223,23)" stroke-width="1" opacity="1" d="M 851.5 1712 L 854 1712.5 L 851.5 1713 L 851.5 1712 Z " /><path fill="rgb(246,223,23)" stroke="rgb(246,223,23)" stroke-width="1" opacity="1" d="M 1606.5 1712 L 1609 1712.5 L 1606.5 1713 L 1606.5 1712 Z " /><path fill="rgb(246,223,23)" stroke="rgb(246,223,23)" stroke-width="1" opacity="1" d="M 796.5 1713 L 799 1713.5 L 796.5 1714 L 796.5 1713 Z " /><path fill="rgb(246,223,23)" stroke="rgb(246,223,23)" stroke-width="1" opacity="1" d="M 845.5 1713 L 849 1713.5 L 845.5 1714 L 845.5 1713 Z " /><path fill="rgb(246,223,23)" stroke="rgb(246,223,23)" stroke-width="1" opacity="1" d="M 1525.5 1713 L 1528 1713.5 L 1525.5 1714 L 1525.5 1713 Z " /><path fill="rgb(246,223,23)" stroke="rgb(246,223,23)" stroke-width="1" opacity="1" d="M 1601.5 1713 L 1604 1713.5 L 1601.5 1714 L 1601.5 1713 Z " /><path fill="rgb(246,223,23)" stroke="rgb(246,223,23)" stroke-width="1" opacity="1" d="M 540.5 1714 L 545 1722.5 L 543 1721.5 L 540.5 1714 Z " /><path fill="rgb(246,223,23)" stroke="rgb(246,223,23)" stroke-width="1" opacity="1" d="M 802.5 1714 L 807 1714.5 L 802.5 1715 L 802.5 1714 Z " /><path fill="rgb(246,223,23)" stroke="rgb(246,223,23)" stroke-width="1" opacity="1" d="M 837.5 1714 L 841 1714.5 L 837.5 1715 L 837.5 1714 Z " /><path fill="rgb(246,223,23)" stroke="rgb(246,223,23)" stroke-width="1" opacity="1" d="M 1531.5 1714 L 1535 1714.5 L 1531.5 1715 L 1531.5 1714 Z " /><path fill="rgb(246,223,23)" stroke="rgb(246,223,23)" stroke-width="1" opacity="1" d="M 1594.5 1714 L 1598 1714.5 L 1594.5 1715 L 1594.5 1714 Z " /><path fill="rgb(246,223,23)" stroke="rgb(246,223,23)" stroke-width="1" opacity="1" d="M 813.5 1715 L 828 1715.5 L 813.5 1716 L 813.5 1715 Z " /><path fill="rgb(246,223,23)" stroke="rgb(246,223,23)" stroke-width="1" opacity="1" d="M 1232.5 1715 L 1233.5 1717 L 1232.5 1715 Z " /><path fill="rgb(246,223,23)" stroke="rgb(246,223,23)" stroke-width="1" opacity="1" d="M 1539.5 1715 L 1545 1715.5 L 1539.5 1716 L 1539.5 1715 Z " /><path fill="rgb(246,223,23)" stroke="rgb(246,223,23)" stroke-width="1" opacity="1" d="M 1585.5 1715 L 1590 1715.5 L 1585.5 1716 L 1585.5 1715 Z " /><path fill="rgb(246,223,23)" stroke="rgb(246,223,23)" stroke-width="1" opacity="1" d="M 1552.5 1716 L 1578 1716.5 L 1552.5 1717 L 1552.5 1716 Z " /><path fill="rgb(246,223,23)" stroke="rgb(246,223,23)" stroke-width="1" opacity="1" d="M 1234.5 1718 L 1237 1721.5 L 1235 1720.5 L 1234.5 1718 Z " /><path fill="rgb(246,223,23)" stroke="rgb(246,223,23)" stroke-width="1" opacity="1" d="M 1237.5 1723 L 1238.5 1725 L 1237.5 1723 Z " /><path fill="rgb(246,223,23)" stroke="rgb(246,223,23)" stroke-width="1" opacity="1" d="M 1239.5 1726 L 1240.5 1728 L 1239.5 1726 Z " /><path fill="rgb(246,223,23)" stroke="rgb(246,223,23)" stroke-width="1" opacity="1" d="M 1241.5 1729 L 1242.5 1731 L 1241.5 1729 Z " /><path fill="rgb(246,223,23)" stroke="rgb(246,223,23)" stroke-width="1" opacity="1" d="M 549.5 1732 L 552 1735.5 L 550 1734.5 L 549.5 1732 Z " /><path fill="rgb(246,223,23)" stroke="rgb(246,223,23)" stroke-width="1" opacity="1" d="M 1243.5 1732 L 1248 1737.5 L 1245 1735.5 L 1243.5 1732 Z " /><path fill="rgb(246,223,23)" stroke="rgb(246,223,23)" stroke-width="1" opacity="1" d="M 1091.5 1734 L 1092 1735.5 L 1090.5 1738 L 1090 1736.5 L 1091.5 1734 Z " /><path fill="rgb(246,223,23)" stroke="rgb(246,223,23)" stroke-width="1" opacity="1" d="M 1864.5 1735 L 1865 1736.5 L 1859.5 1746 L 1860 1744.5 L 1864.5 1735 Z " /><path fill="rgb(246,223,23)" stroke="rgb(246,223,23)" stroke-width="1" opacity="1" d="M 553.5 1739 L 554.5 1741 L 553.5 1739 Z " /><path fill="rgb(246,223,23)" stroke="rgb(246,223,23)" stroke-width="1" opacity="1" d="M 1248.5 1739 L 1254 1745.5 L 1250 1742.5 L 1248.5 1739 Z " /><path fill="rgb(246,223,23)" stroke="rgb(246,223,23)" stroke-width="1" opacity="1" d="M 1088.5 1741 L 1089 1742.5 L 1087.5 1745 L 1087 1743.5 L 1088.5 1741 Z " /><path fill="rgb(246,223,23)" stroke="rgb(246,223,23)" stroke-width="1" opacity="1" d="M 556.5 1744 L 557.5 1746 L 556.5 1744 Z " /><path fill="rgb(246,223,23)" stroke="rgb(246,223,23)" stroke-width="1" opacity="1" d="M 558.5 1747 L 561 1750.5 L 559 1749.5 L 558.5 1747 Z " /><path fill="rgb(246,223,23)" stroke="rgb(246,223,23)" stroke-width="1" opacity="1" d="M 1254.5 1747 L 1256.5 1750 L 1254.5 1747 Z " /><path fill="rgb(246,223,23)" stroke="rgb(246,223,23)" stroke-width="1" opacity="1" d="M 1857.5 1749 L 1857 1750.5 L 1854.5 1755 L 1855 1753.5 L 1857.5 1749 Z " /><path fill="rgb(246,223,23)" stroke="rgb(246,223,23)" stroke-width="1" opacity="1" d="M 1257.5 1751 L 1260.5 1755 L 1257.5 1751 Z " /><path fill="rgb(246,223,23)" stroke="rgb(246,223,23)" stroke-width="1" opacity="1" d="M 561.5 1752 L 562.5 1754 L 561.5 1752 Z " /><path fill="rgb(246,223,23)" stroke="rgb(246,223,23)" stroke-width="1" opacity="1" d="M 563.5 1755 L 564.5 1757 L 563.5 1755 Z " /><path fill="rgb(246,223,23)" stroke="rgb(246,223,23)" stroke-width="1" opacity="1" d="M 1261.5 1756 L 1265.5 1761 L 1261.5 1756 Z " /><path fill="rgb(246,223,23)" stroke="rgb(246,223,23)" stroke-width="1" opacity="1" d="M 1853.5 1756 L 1853 1757.5 L 1849.5 1763 L 1850 1761.5 L 1853.5 1756 Z " /><path fill="rgb(246,223,23)" stroke="rgb(246,223,23)" stroke-width="1" opacity="1" d="M 565.5 1758 L 570 1763.5 L 567 1761.5 L 565.5 1758 Z " /><path fill="rgb(246,223,23)" stroke="rgb(246,223,23)" stroke-width="1" opacity="1" d="M 1079.5 1760 L 1079 1761.5 L 1077.5 1764 L 1078 1762.5 L 1079.5 1760 Z " /><path fill="rgb(246,223,23)" stroke="rgb(246,223,23)" stroke-width="1" opacity="1" d="M 1267.5 1763 L 1274.5 1771 L 1267.5 1763 Z " /><path fill="rgb(246,223,23)" stroke="rgb(246,223,23)" stroke-width="1" opacity="1" d="M 1848.5 1764 L 1847.5 1766 L 1848.5 1764 Z " /><path fill="rgb(246,223,23)" stroke="rgb(246,223,23)" stroke-width="1" opacity="1" d="M 570.5 1765 L 575 1770.5 L 572 1768.5 L 570.5 1765 Z " /><path fill="rgb(246,223,23)" stroke="rgb(246,223,23)" stroke-width="1" opacity="1" d="M 1075.5 1767 L 1075 1768.5 L 1073.5 1771 L 1074 1769.5 L 1075.5 1767 Z " /><path fill="rgb(246,223,23)" stroke="rgb(246,223,23)" stroke-width="1" opacity="1" d="M 1846.5 1767 L 1845 1769.5 L 1842.5 1773 L 1844 1770.5 L 1846.5 1767 Z " /><path fill="rgb(246,223,23)" stroke="rgb(246,223,23)" stroke-width="1" opacity="1" d="M 575.5 1772 L 578.5 1776 L 575.5 1772 Z " /><path fill="rgb(246,223,23)" stroke="rgb(246,223,23)" stroke-width="1" opacity="1" d="M 1072.5 1772 L 1071.5 1774 L 1072.5 1772 Z " /><path fill="rgb(246,223,23)" stroke="rgb(246,223,23)" stroke-width="1" opacity="1" d="M 1276.5 1773 L 1291.5 1789 L 1276.5 1773 Z " /><path fill="rgb(246,223,23)" stroke="rgb(246,223,23)" stroke-width="1" opacity="1" d="M 1841.5 1774 L 1839.5 1777 L 1841.5 1774 Z " /><path fill="rgb(246,223,23)" stroke="rgb(246,223,23)" stroke-width="1" opacity="1" d="M 1070.5 1775 L 1070 1776.5 L 1065.5 1783 L 1067 1780.5 L 1070.5 1775 Z " /><path fill="rgb(246,223,23)" stroke="rgb(246,223,23)" stroke-width="1" opacity="1" d="M 579.5 1777 L 582.5 1781 L 579.5 1777 Z " /><path fill="rgb(246,223,23)" stroke="rgb(246,223,23)" stroke-width="1" opacity="1" d="M 1838.5 1778 L 1835.5 1782 L 1838.5 1778 Z " /><path fill="rgb(246,223,23)" stroke="rgb(246,223,23)" stroke-width="1" opacity="1" d="M 583.5 1782 L 588.5 1788 L 583.5 1782 Z " /><path fill="rgb(246,223,23)" stroke="rgb(246,223,23)" stroke-width="1" opacity="1" d="M 1834.5 1783 L 1829.5 1789 L 1834.5 1783 Z " /><path fill="rgb(246,223,23)" stroke="rgb(246,223,23)" stroke-width="1" opacity="1" d="M 1064.5 1784 L 1063.5 1786 L 1064.5 1784 Z " /><path fill="rgb(246,223,23)" stroke="rgb(246,223,23)" stroke-width="1" opacity="1" d="M 1062.5 1787 L 1060.5 1790 L 1062.5 1787 Z " /><path fill="rgb(246,223,23)" stroke="rgb(246,223,23)" stroke-width="1" opacity="1" d="M 1293.5 1789 L 1300.5 1797 L 1293.5 1789 Z " /><path fill="rgb(246,223,23)" stroke="rgb(246,223,23)" stroke-width="1" opacity="1" d="M 590.5 1790 L 612.5 1813 L 590.5 1790 Z " /><path fill="rgb(246,223,23)" stroke="rgb(246,223,23)" stroke-width="1" opacity="1" d="M 1828.5 1790 L 1808.5 1811 L 1828.5 1790 Z " /><path fill="rgb(246,223,23)" stroke="rgb(246,223,23)" stroke-width="1" opacity="1" d="M 1059.5 1791 L 1056.5 1795 L 1059.5 1791 Z " /><path fill="rgb(246,223,23)" stroke="rgb(246,223,23)" stroke-width="1" opacity="1" d="M 1055.5 1796 L 1051.5 1801 L 1055.5 1796 Z " /><path fill="rgb(246,223,23)" stroke="rgb(246,223,23)" stroke-width="1" opacity="1" d="M 1302.5 1797 L 1307.5 1803 L 1302.5 1797 Z " /><path fill="rgb(246,223,23)" stroke="rgb(246,223,23)" stroke-width="1" opacity="1" d="M 1050.5 1802 L 1030.5 1823 L 1050.5 1802 Z " /><path fill="rgb(246,223,23)" stroke="rgb(246,223,23)" stroke-width="1" opacity="1" d="M 1309.5 1803 L 1312.5 1807 L 1309.5 1803 Z " /><path fill="rgb(246,223,23)" stroke="rgb(246,223,23)" stroke-width="1" opacity="1" d="M 1314.5 1807 L 1321 1812.5 L 1318.5 1811 L 1314.5 1807 Z " /><path fill="rgb(246,223,23)" stroke="rgb(246,223,23)" stroke-width="1" opacity="1" d="M 1805.5 1812 L 1801.5 1817 L 1805.5 1812 Z " /><path fill="rgb(246,223,23)" stroke="rgb(246,223,23)" stroke-width="1" opacity="1" d="M 614.5 1813 L 619.5 1819 L 614.5 1813 Z " /><path fill="rgb(246,223,23)" stroke="rgb(246,223,23)" stroke-width="1" opacity="1" d="M 1322.5 1813 L 1324.5 1816 L 1322.5 1813 Z " /><path fill="rgb(246,223,23)" stroke="rgb(246,223,23)" stroke-width="1" opacity="1" d="M 1326.5 1816 L 1332 1820.5 L 1329.5 1819 L 1326.5 1816 Z " /><path fill="rgb(246,223,23)" stroke="rgb(246,223,23)" stroke-width="1" opacity="1" d="M 1799.5 1817 L 1796.5 1821 L 1799.5 1817 Z " /><path fill="rgb(246,223,23)" stroke="rgb(246,223,23)" stroke-width="1" opacity="1" d="M 621.5 1819 L 630 1826.5 L 626.5 1824 L 621.5 1819 Z " /><path fill="rgb(246,223,23)" stroke="rgb(246,223,23)" stroke-width="1" opacity="1" d="M 1333.5 1821 L 1334.5 1823 L 1333.5 1821 Z " /><path fill="rgb(246,223,23)" stroke="rgb(246,223,23)" stroke-width="1" opacity="1" d="M 1794.5 1821 L 1792.5 1824 L 1794.5 1821 Z " /><path fill="rgb(246,223,23)" stroke="rgb(246,223,23)" stroke-width="1" opacity="1" d="M 1028.5 1823 L 1024.5 1828 L 1028.5 1823 Z " /><path fill="rgb(246,223,23)" stroke="rgb(246,223,23)" stroke-width="1" opacity="1" d="M 1336.5 1823 L 1337.5 1825 L 1336.5 1823 Z " /><path fill="rgb(246,223,23)" stroke="rgb(246,223,23)" stroke-width="1" opacity="1" d="M 1790.5 1824 L 1788.5 1827 L 1790.5 1824 Z " /><path fill="rgb(246,223,23)" stroke="rgb(246,223,23)" stroke-width="1" opacity="1" d="M 1339.5 1825 L 1340.5 1827 L 1339.5 1825 Z " /><path fill="rgb(246,223,23)" stroke="rgb(246,223,23)" stroke-width="1" opacity="1" d="M 631.5 1827 L 633.5 1830 L 631.5 1827 Z " /><path fill="rgb(246,223,23)" stroke="rgb(246,223,23)" stroke-width="1" opacity="1" d="M 1342.5 1827 L 1346 1829.5 L 1344.5 1829 L 1342.5 1827 Z " /><path fill="rgb(246,223,23)" stroke="rgb(246,223,23)" stroke-width="1" opacity="1" d="M 1786.5 1827 L 1785.5 1829 L 1786.5 1827 Z " /><path fill="rgb(246,223,23)" stroke="rgb(246,223,23)" stroke-width="1" opacity="1" d="M 1022.5 1828 L 1019.5 1832 L 1022.5 1828 Z " /><path fill="rgb(246,223,23)" stroke="rgb(246,223,23)" stroke-width="1" opacity="1" d="M 1783.5 1829 L 1782.5 1831 L 1783.5 1829 Z " /><path fill="rgb(246,223,23)" stroke="rgb(246,223,23)" stroke-width="1" opacity="1" d="M 635.5 1830 L 636.5 1832 L 635.5 1830 Z " /><path fill="rgb(246,223,23)" stroke="rgb(246,223,23)" stroke-width="1" opacity="1" d="M 1347.5 1830 L 1348.5 1832 L 1347.5 1830 Z " /><path fill="rgb(246,223,23)" stroke="rgb(246,223,23)" stroke-width="1" opacity="1" d="M 1780.5 1831 L 1779.5 1833 L 1780.5 1831 Z " /><path fill="rgb(246,223,23)" stroke="rgb(246,223,23)" stroke-width="1" opacity="1" d="M 638.5 1832 L 640.5 1835 L 638.5 1832 Z " /><path fill="rgb(246,223,23)" stroke="rgb(246,223,23)" stroke-width="1" opacity="1" d="M 1017.5 1832 L 1015.5 1835 L 1017.5 1832 Z " /><path fill="rgb(246,223,23)" stroke="rgb(246,223,23)" stroke-width="1" opacity="1" d="M 1352.5 1833 L 1356 1835.5 L 1354.5 1835 L 1352.5 1833 Z " /><path fill="rgb(246,223,23)" stroke="rgb(246,223,23)" stroke-width="1" opacity="1" d="M 1777.5 1833 L 1776.5 1835 L 1777.5 1833 Z " /><path fill="rgb(246,223,23)" stroke="rgb(246,223,23)" stroke-width="1" opacity="1" d="M 642.5 1835 L 652 1841.5 L 650.5 1841 L 643.5 1837 L 642.5 1835 Z " /><path fill="rgb(246,223,23)" stroke="rgb(246,223,23)" stroke-width="1" opacity="1" d="M 1013.5 1835 L 1011.5 1838 L 1008.5 1840 L 1010.5 1837 L 1013.5 1835 Z " /><path fill="rgb(246,223,23)" stroke="rgb(246,223,23)" stroke-width="1" opacity="1" d="M 1774.5 1835 L 1773.5 1837 L 1774.5 1835 Z " /><path fill="rgb(246,223,23)" stroke="rgb(246,223,23)" stroke-width="1" opacity="1" d="M 1359.5 1837 L 1367 1841.5 L 1365.5 1841 Q 1359.9 1840.2 1359.5 1837 Z " /><path fill="rgb(246,223,23)" stroke="rgb(246,223,23)" stroke-width="1" opacity="1" d="M 1771.5 1837 L 1770.5 1839 L 1768.5 1840 L 1769.5 1838 L 1771.5 1837 Z " /><path fill="rgb(246,223,23)" stroke="rgb(246,223,23)" stroke-width="1" opacity="1" d="M 1006.5 1840 L 1005.5 1842 L 1000.5 1845 L 1001.5 1843 L 1006.5 1840 Z " /><path fill="rgb(246,223,23)" stroke="rgb(246,223,23)" stroke-width="1" opacity="1" d="M 1764.5 1841 L 1763.5 1843 L 1761.5 1844 L 1762.5 1842 L 1764.5 1841 Z " /><path fill="rgb(246,223,23)" stroke="rgb(246,223,23)" stroke-width="1" opacity="1" d="M 653.5 1842 L 657 1844.5 L 655.5 1844 L 653.5 1842 Z " /><path fill="rgb(246,223,23)" stroke="rgb(246,223,23)" stroke-width="1" opacity="1" d="M 658.5 1845 L 662 1847.5 L 660.5 1847 L 658.5 1845 Z " /><path fill="rgb(246,223,23)" stroke="rgb(246,223,23)" stroke-width="1" opacity="1" d="M 998.5 1845 L 997.5 1847 L 995.5 1848 L 996.5 1846 L 998.5 1845 Z " /><path fill="rgb(246,223,23)" stroke="rgb(246,223,23)" stroke-width="1" opacity="1" d="M 1755.5 1846 L 1754.5 1848 L 1743.5 1853 L 1743.5 1852 L 1755.5 1846 Z " /><path fill="rgb(246,223,23)" stroke="rgb(246,223,23)" stroke-width="1" opacity="1" d="M 993.5 1848 L 992.5 1850 L 990.5 1851 L 991.5 1849 L 993.5 1848 Z " /><path fill="rgb(246,223,23)" stroke="rgb(246,223,23)" stroke-width="1" opacity="1" d="M 667.5 1850 L 682 1857.5 L 680.5 1858 L 668.5 1852 L 667.5 1850 Z " /><path fill="rgb(246,223,23)" stroke="rgb(246,223,23)" stroke-width="1" opacity="1" d="M 1384.5 1850 L 1388 1851.5 L 1386.5 1852 L 1384.5 1850 Z " /><path fill="rgb(246,223,23)" stroke="rgb(246,223,23)" stroke-width="1" opacity="1" d="M 1398.5 1856 L 1402 1857.5 L 1400.5 1858 L 1398.5 1856 Z " /><path fill="rgb(246,223,23)" stroke="rgb(246,223,23)" stroke-width="1" opacity="1" d="M 1403.5 1858 L 1407 1859.5 L 1405.5 1860 L 1403.5 1858 Z " /><path fill="rgb(246,223,23)" stroke="rgb(246,223,23)" stroke-width="1" opacity="1" d="M 687.5 1860 L 691 1861.5 L 689.5 1862 L 687.5 1860 Z " /><path fill="rgb(246,223,23)" stroke="rgb(246,223,23)" stroke-width="1" opacity="1" d="M 969.5 1860 L 971 1860.5 L 967.5 1862 L 967.5 1861 L 969.5 1860 Z " /><path fill="rgb(246,223,23)" stroke="rgb(246,223,23)" stroke-width="1" opacity="1" d="M 1719.5 1862 L 1721 1862.5 L 1717.5 1864 L 1717.5 1863 L 1719.5 1862 Z " /><path fill="rgb(246,223,23)" stroke="rgb(246,223,23)" stroke-width="1" opacity="1" d="M 922.5 1876 L 925 1876.5 L 922.5 1877 L 922.5 1876 Z " /><path fill="rgb(246,223,23)" stroke="rgb(246,223,23)" stroke-width="1" opacity="1" d="M 1461.5 1876 L 1464 1876.5 L 1461.5 1877 L 1461.5 1876 Z " /><path fill="rgb(246,223,23)" stroke="rgb(246,223,23)" stroke-width="1" opacity="1" d="M 918.5 1877 L 921 1877.5 L 918.5 1878 L 918.5 1877 Z " /><path fill="rgb(246,223,23)" stroke="rgb(246,223,23)" stroke-width="1" opacity="1" d="M 1466.5 1877 L 1469 1877.5 L 1466.5 1878 L 1466.5 1877 Z " /><path fill="rgb(246,223,23)" stroke="rgb(246,223,23)" stroke-width="1" opacity="1" d="M 742.5 1878 L 745 1878.5 L 742.5 1879 L 742.5 1878 Z " /><path fill="rgb(246,223,23)" stroke="rgb(246,223,23)" stroke-width="1" opacity="1" d="M 914.5 1878 L 917 1878.5 L 914.5 1879 L 914.5 1878 Z " /><path fill="rgb(246,223,23)" stroke="rgb(246,223,23)" stroke-width="1" opacity="1" d="M 1664.5 1878 L 1667 1878.5 L 1664.5 1879 L 1664.5 1878 Z " /><path fill="rgb(246,223,23)" stroke="rgb(246,223,23)" stroke-width="1" opacity="1" d="M 746.5 1879 L 749 1879.5 L 746.5 1880 L 746.5 1879 Z " /><path fill="rgb(246,223,23)" stroke="rgb(246,223,23)" stroke-width="1" opacity="1" d="M 909.5 1879 L 912 1879.5 L 909.5 1880 L 909.5 1879 Z " /><path fill="rgb(246,223,23)" stroke="rgb(246,223,23)" stroke-width="1" opacity="1" d="M 1475.5 1879 L 1479 1879.5 L 1475.5 1880 L 1475.5 1879 Z " /><path fill="rgb(246,223,23)" stroke="rgb(246,223,23)" stroke-width="1" opacity="1" d="M 1659.5 1879 L 1662 1879.5 L 1659.5 1880 L 1659.5 1879 Z " /><path fill="rgb(246,223,23)" stroke="rgb(246,223,23)" stroke-width="1" opacity="1" d="M 751.5 1880 L 754 1880.5 L 751.5 1881 L 751.5 1880 Z " /><path fill="rgb(246,223,23)" stroke="rgb(246,223,23)" stroke-width="1" opacity="1" d="M 904.5 1880 L 907 1880.5 L 904.5 1881 L 904.5 1880 Z " /><path fill="rgb(246,223,23)" stroke="rgb(246,223,23)" stroke-width="1" opacity="1" d="M 1481.5 1880 L 1484 1880.5 L 1481.5 1881 L 1481.5 1880 Z " /><path fill="rgb(246,223,23)" stroke="rgb(246,223,23)" stroke-width="1" opacity="1" d="M 1653.5 1880 L 1656 1880.5 L 1653.5 1881 L 1653.5 1880 Z " /><path fill="rgb(246,223,23)" stroke="rgb(246,223,23)" stroke-width="1" opacity="1" d="M 756.5 1881 L 759 1881.5 L 756.5 1882 L 756.5 1881 Z " /><path fill="rgb(246,223,23)" stroke="rgb(246,223,23)" stroke-width="1" opacity="1" d="M 899.5 1881 L 902 1881.5 L 899.5 1882 L 899.5 1881 Z " /><path fill="rgb(246,223,23)" stroke="rgb(246,223,23)" stroke-width="1" opacity="1" d="M 1487.5 1881 L 1490 1881.5 L 1487.5 1882 L 1487.5 1881 Z " /><path fill="rgb(246,223,23)" stroke="rgb(246,223,23)" stroke-width="1" opacity="1" d="M 1647.5 1881 L 1651 1881.5 L 1647.5 1882 L 1647.5 1881 Z " /><path fill="rgb(246,223,23)" stroke="rgb(246,223,23)" stroke-width="1" opacity="1" d="M 762.5 1882 L 766 1882.5 L 762.5 1883 L 762.5 1882 Z " /><path fill="rgb(246,223,23)" stroke="rgb(246,223,23)" stroke-width="1" opacity="1" d="M 893.5 1882 L 896 1882.5 L 893.5 1883 L 893.5 1882 Z " /><path fill="rgb(246,223,23)" stroke="rgb(246,223,23)" stroke-width="1" opacity="1" d="M 1493.5 1882 L 1497 1882.5 L 1493.5 1883 L 1493.5 1882 Z " /><path fill="rgb(246,223,23)" stroke="rgb(246,223,23)" stroke-width="1" opacity="1" d="M 1641.5 1882 L 1645 1882.5 L 1641.5 1883 L 1641.5 1882 Z " /><path fill="rgb(246,223,23)" stroke="rgb(246,223,23)" stroke-width="1" opacity="1" d="M 768.5 1883 L 772 1883.5 L 768.5 1884 L 768.5 1883 Z " /><path fill="rgb(246,223,23)" stroke="rgb(246,223,23)" stroke-width="1" opacity="1" d="M 886.5 1883 L 890 1883.5 L 886.5 1884 L 886.5 1883 Z " /><path fill="rgb(246,223,23)" stroke="rgb(246,223,23)" stroke-width="1" opacity="1" d="M 1500.5 1883 L 1504 1883.5 L 1500.5 1884 L 1500.5 1883 Z " /><path fill="rgb(246,223,23)" stroke="rgb(246,223,23)" stroke-width="1" opacity="1" d="M 1634.5 1883 L 1638 1883.5 L 1634.5 1884 L 1634.5 1883 Z " /><path fill="rgb(246,223,23)" stroke="rgb(246,223,23)" stroke-width="1" opacity="1" d="M 776.5 1884 L 780 1884.5 L 776.5 1885 L 776.5 1884 Z " /><path fill="rgb(246,223,23)" stroke="rgb(246,223,23)" stroke-width="1" opacity="1" d="M 878.5 1884 L 882 1884.5 L 878.5 1885 L 878.5 1884 Z " /><path fill="rgb(246,223,23)" stroke="rgb(246,223,23)" stroke-width="1" opacity="1" d="M 1508.5 1884 L 1512 1884.5 L 1508.5 1885 L 1508.5 1884 Z " /><path fill="rgb(246,223,23)" stroke="rgb(246,223,23)" stroke-width="1" opacity="1" d="M 1626.5 1884 L 1630 1884.5 L 1626.5 1885 L 1626.5 1884 Z " /><path fill="rgb(246,223,23)" stroke="rgb(246,223,23)" stroke-width="1" opacity="1" d="M 784.5 1885 L 789 1885.5 L 784.5 1886 L 784.5 1885 Z " /><path fill="rgb(246,223,23)" stroke="rgb(246,223,23)" stroke-width="1" opacity="1" d="M 868.5 1885 L 873 1885.5 L 868.5 1886 L 868.5 1885 Z " /><path fill="rgb(246,223,23)" stroke="rgb(246,223,23)" stroke-width="1" opacity="1" d="M 1517.5 1885 L 1522 1885.5 L 1517.5 1886 L 1517.5 1885 Z " /><path fill="rgb(246,223,23)" stroke="rgb(246,223,23)" stroke-width="1" opacity="1" d="M 1616.5 1885 L 1622 1885.5 L 1616.5 1886 L 1616.5 1885 Z " /><path fill="rgb(246,223,23)" stroke="rgb(246,223,23)" stroke-width="1" opacity="1" d="M 795.5 1886 L 802 1886.5 L 795.5 1887 L 795.5 1886 Z " /><path fill="rgb(246,223,23)" stroke="rgb(246,223,23)" stroke-width="1" opacity="1" d="M 854.5 1886 L 862 1886.5 L 854.5 1887 L 854.5 1886 Z " /><path fill="rgb(246,223,23)" stroke="rgb(246,223,23)" stroke-width="1" opacity="1" d="M 1528.5 1886 L 1535 1886.5 L 1528.5 1887 L 1528.5 1886 Z " /><path fill="rgb(246,223,23)" stroke="rgb(246,223,23)" stroke-width="1" opacity="1" d="M 1605.5 1886 L 1610 1886.5 L 1605.5 1887 L 1605.5 1886 Z " /><path fill="rgb(246,223,23)" stroke="rgb(246,223,23)" stroke-width="1" opacity="1" d="M 812.5 1887 L 844 1887.5 L 812.5 1888 L 812.5 1887 Z " /><path fill="rgb(246,223,23)" stroke="rgb(246,223,23)" stroke-width="1" opacity="1" d="M 1545.5 1887 L 1559 1887.5 L 1545.5 1888 L 1545.5 1887 Z " /><path fill="rgb(246,223,23)" stroke="rgb(246,223,23)" stroke-width="1" opacity="1" d="M 1581.5 1887 L 1595 1887.5 L 1581.5 1888 L 1581.5 1887 Z " /><path fill="rgb(247,224,24)" stroke="rgb(247,224,24)" stroke-width="1" opacity="1" d="M 0 0 L 2048 0 L 2048 2048 L 0 2048 L 0 0 Z M 1538 929 L 1537 930 L 1524 930 L 1523 931 L 1507 932 L 1484 936 L 1460 942 L 1434 951 Q 1388 969 1355 1000 Q 1320 1031 1299 1076 L 1289 1101 L 1282 1127 L 1278 1150 L 1277 1176 L 1276 1177 L 1277 1213 L 1278 1214 L 1280 1238 L 1287 1270 L 1292 1286 Q 1311 1335 1344 1371 Q 1383 1411 1435 1439 L 1480 1462 L 1558 1495 L 1615 1521 Q 1641 1534 1663 1551 Q 1675 1561 1684 1576 L 1693 1597 L 1695 1607 L 1695 1615 L 1696 1616 L 1695 1636 L 1691 1651 Q 1685 1665 1676 1676 Q 1660 1694 1636 1704 L 1611 1712 L 1594 1715 L 1586 1715 L 1585 1716 L 1546 1716 L 1545 1715 L 1536 1715 L 1506 1709 L 1488 1703 Q 1451 1688 1425 1662 Q 1396 1635 1377 1600 L 1369 1603 L 1219 1691 Q 1242 1738 1276 1774 Q 1326 1828 1401 1858 L 1432 1869 L 1476 1880 L 1500 1883 L 1501 1884 L 1508 1884 L 1509 1885 L 1528 1886 L 1529 1887 L 1545 1887 L 1546 1888 L 1595 1888 L 1596 1887 L 1622 1886 L 1623 1885 L 1638 1884 L 1657 1880 L 1662 1880 L 1698 1871 Q 1763 1851 1809 1811 Q 1843 1780 1865 1737 Q 1875 1716 1881 1693 L 1886 1669 L 1888 1645 L 1889 1644 L 1889 1594 L 1888 1593 L 1888 1582 L 1887 1581 L 1885 1560 L 1878 1530 Q 1869 1499 1854 1475 Q 1839 1450 1820 1431 L 1789 1402 Q 1762 1381 1732 1364 L 1663 1329 L 1558 1284 L 1520 1264 L 1499 1249 Q 1486 1239 1478 1226 L 1470 1207 L 1468 1197 L 1468 1190 L 1467 1189 L 1467 1173 L 1470 1157 Q 1475 1141 1484 1130 Q 1493 1118 1506 1111 L 1526 1102 L 1546 1098 L 1575 1098 L 1601 1103 Q 1626 1111 1644 1128 Q 1667 1150 1683 1180 L 1833 1084 Q 1815 1049 1790 1022 Q 1749 973 1684 948 L 1646 937 L 1617 932 L 1599 931 L 1598 930 L 1584 930 L 1583 929 L 1538 929 Z M 922 940 L 922 1617 L 921 1618 L 921 1627 L 920 1628 L 918 1645 L 913 1662 Q 907 1676 898 1688 Q 889 1698 876 1705 L 860 1711 L 837 1715 L 808 1715 L 787 1711 Q 760 1702 743 1684 Q 715 1655 697 1616 L 679 1626 L 539 1712 Q 559 1757 590 1791 Q 630 1836 690 1862 L 717 1872 L 747 1880 L 769 1884 L 784 1885 L 785 1886 L 812 1887 L 813 1888 L 844 1888 L 845 1887 L 862 1887 L 863 1886 L 882 1885 L 883 1884 L 890 1884 L 917 1879 L 936 1874 Q 992 1857 1031 1823 Q 1070 1788 1092 1736 L 1103 1704 L 1110 1673 L 1112 1654 L 1113 1653 L 1113 1645 L 1114 1644 L 1115 1616 L 1116 1615 L 1116 941 L 1116 940 L 922 940 Z " /></svg>