<?xml version="1.0" encoding="UTF-8"?>
<svg xmlns="http://www.w3.org/2000/svg" xmlns:xlink="http://www.w3.org/1999/xlink" width="100px" height="100px" viewBox="0 0 100 100" version="1.1">
<g id="surface1">
<path style=" stroke:none;fill-rule:nonzero;fill:rgb(2.745098%,41.176471%,67.843139%);fill-opacity:1;" d="M 93.75 50 C 93.75 25.835938 74.164062 6.25 50 6.25 C 25.835938 6.25 6.25 25.835938 6.25 50 C 6.25 74.164062 25.835938 93.75 50 93.75 C 74.164062 93.75 93.75 74.164062 93.75 50 Z M 93.75 50 "/>
<path style=" stroke:none;fill-rule:nonzero;fill:rgb(47.058824%,81.176472%,96.078432%);fill-opacity:1;" d="M 70.804688 41.941406 C 74.730469 41.941406 78.328125 40.632812 81.109375 38.457031 C 78.222656 42.261719 73.441406 44.75 68.027344 44.75 C 59.210938 44.75 52.066406 38.148438 52.066406 30.007812 C 52.066406 25.492188 54.261719 21.453125 57.722656 18.75 C 55.90625 21.144531 54.839844 24.054688 54.839844 27.199219 C 54.839844 35.339844 61.988281 41.941406 70.804688 41.941406 Z M 70.804688 41.941406 "/>
<path style=" stroke:none;fill-rule:nonzero;fill:rgb(47.058824%,81.176472%,96.078432%);fill-opacity:1;" d="M 80.957031 52.058594 C 76.722656 55.378906 71.238281 57.382812 65.25 57.382812 C 51.835938 57.382812 40.960938 47.328125 40.960938 34.921875 C 40.960938 30.109375 42.597656 25.652344 45.382812 21.996094 C 40.128906 26.117188 36.796875 32.265625 36.796875 39.132812 C 36.796875 51.539062 47.671875 61.59375 61.085938 61.59375 C 69.300781 61.59375 76.5625 57.828125 80.957031 52.058594 Z M 80.957031 52.058594 "/>
<path style=" stroke:none;fill-rule:nonzero;fill:rgb(47.058824%,81.176472%,96.078432%);fill-opacity:1;" d="M 81.25 64.90625 C 75.214844 70.664062 66.855469 74.230469 57.617188 74.230469 C 39.21875 74.230469 24.300781 60.089844 24.300781 42.644531 C 24.300781 37.113281 25.800781 31.917969 28.433594 27.398438 C 22.449219 33.109375 18.75 40.976562 18.75 49.664062 C 18.75 67.109375 33.664062 81.25 52.066406 81.25 C 64.632812 81.25 75.578125 74.648438 81.25 64.90625 Z M 81.25 64.90625 "/>
</g>
</svg>
