<?xml version="1.0" encoding="UTF-8"?>
<svg xmlns="http://www.w3.org/2000/svg" xmlns:xlink="http://www.w3.org/1999/xlink" width="100px" height="100px" viewBox="0 0 100 100" version="1.1">
<g id="surface1">
<path style=" stroke:none;fill-rule:nonzero;fill:rgb(0%,16.862746%,39.215687%);fill-opacity:1;" d="M 97.804688 16.796875 C 96.261719 16.847656 96.75 17.292969 93.410156 18.113281 C 90.039062 18.945312 85.917969 18.691406 82.285156 20.214844 C 71.445312 24.757812 69.273438 40.296875 59.417969 45.863281 C 52.050781 50.023438 44.617188 50.355469 37.9375 52.449219 C 33.546875 53.828125 28.742188 56.652344 24.765625 60.078125 C 21.675781 62.742188 21.59375 65.082031 18.367188 68.421875 C 14.917969 71.992188 4.652344 68.480469 0 73.949219 C 1.5 75.464844 2.15625 75.886719 5.109375 75.496094 C 4.496094 76.652344 0.894531 77.628906 1.597656 79.335938 C 2.339844 81.128906 11.054688 82.34375 18.976562 77.5625 C 22.667969 75.335938 25.605469 72.125 31.351562 71.359375 C 38.785156 70.367188 47.351562 71.992188 55.957031 73.234375 C 54.683594 77.039062 52.121094 79.570312 50.066406 82.601562 C 49.429688 83.285156 51.34375 83.363281 53.527344 82.949219 C 57.449219 81.980469 60.277344 81.199219 63.238281 79.472656 C 66.878906 77.355469 67.429688 71.925781 71.894531 70.75 C 74.382812 74.574219 81.148438 75.476562 85.34375 72.417969 C 81.660156 71.375 80.644531 63.535156 81.886719 60.078125 C 83.066406 56.808594 84.230469 51.578125 85.414062 47.253906 C 86.6875 42.609375 87.15625 36.757812 88.699219 34.394531 C 91.019531 30.835938 93.582031 29.613281 95.804688 27.609375 C 98.027344 25.601562 100.066406 23.648438 100 19.058594 C 99.976562 17.578125 99.210938 16.753906 97.804688 16.796875 Z M 97.804688 16.796875 "/>
<path style=" stroke:none;fill-rule:nonzero;fill:rgb(76.862746%,60.392159%,42.352942%);fill-opacity:1;" d="M 94.496094 19.519531 C 94.863281 20.78125 95.445312 21.359375 97.949219 21.59375 C 97.582031 24.769531 95.464844 26.503906 93.089844 28.171875 C 91 29.636719 88.707031 31.050781 87.238281 33.339844 C 85.730469 35.6875 84.773438 43.714844 82.433594 51.644531 C 80.414062 58.496094 77.363281 65.269531 72.035156 68.238281 C 71.476562 66.835938 72.105469 64.25 71 63.398438 C 70.28125 65.441406 69.472656 67.390625 68.523438 69.203125 C 65.398438 75.179688 60.765625 79.65625 53.03125 81.019531 C 56.703125 76.054688 60.210938 70.925781 60.289062 62.363281 C 57.703125 62.921875 57.757812 69.023438 55.105469 70.65625 C 53.402344 70.839844 51.679688 70.839844 49.945312 70.734375 C 42.820312 70.308594 35.511719 68.167969 28.84375 70.304688 C 24.308594 71.761719 20.59375 75.199219 16.753906 76.867188 C 12.234375 78.824219 8.816406 79.628906 3.191406 78.824219 C 2.476562 77.863281 7.308594 76.621094 7.019531 74.53125 C 4.816406 74.289062 3.539062 74.824219 1.625 73.953125 C 1.835938 73.5625 2.148438 73.238281 2.539062 72.96875 C 6.042969 70.542969 16.007812 72.394531 18.671875 69.777344 C 20.316406 68.164062 21.398438 66.472656 22.515625 64.832031 C 23.597656 63.238281 24.71875 61.6875 26.425781 60.289062 C 27.058594 59.773438 27.742188 59.265625 28.46875 58.769531 C 31.378906 56.777344 34.980469 54.96875 38.519531 53.726562 C 43.347656 52.03125 48.234375 51.890625 53.378906 49.925781 C 56.554688 48.710938 60.011719 47.210938 62.828125 45.113281 C 63.496094 44.613281 64.128906 44.082031 64.710938 43.511719 C 72.753906 35.671875 74.347656 21.84375 86.894531 20.554688 C 88.410156 20.398438 89.652344 20.449219 90.785156 20.414062 C 92.085938 20.378906 93.238281 20.226562 94.496094 19.519531 Z M 79.199219 63.777344 C 79.347656 66.171875 80.742188 70.925781 81.96875 72.082031 C 79.5625 72.667969 75.417969 71.703125 74.355469 70.003906 C 74.902344 67.554688 77.746094 65.316406 79.199219 63.777344 Z M 79.199219 63.777344 "/>
<path style=" stroke:none;fill-rule:nonzero;fill:rgb(0%,16.862746%,39.215687%);fill-opacity:1;" d="M 95.398438 22.203125 C 94.914062 23.214844 93.988281 24.523438 93.988281 27.105469 C 93.984375 27.550781 93.652344 27.851562 93.644531 27.167969 C 93.671875 24.644531 94.339844 23.554688 95.050781 22.121094 C 95.378906 21.535156 95.578125 21.777344 95.398438 22.203125 Z M 94.910156 21.820312 C 94.339844 22.789062 92.96875 24.554688 92.738281 27.125 C 92.699219 27.566406 92.339844 27.839844 92.394531 27.15625 C 92.640625 24.648438 93.738281 23.074219 94.570312 21.707031 C 94.949219 21.152344 95.128906 21.410156 94.910156 21.820312 Z M 94.46875 21.3125 C 93.816406 22.230469 91.703125 24.351562 91.261719 26.894531 C 91.179688 27.328125 90.800781 27.574219 90.914062 26.898438 C 91.371094 24.414062 93.191406 22.464844 94.136719 21.175781 C 94.5625 20.652344 94.714844 20.925781 94.46875 21.3125 Z M 94.070312 20.75 L 93.855469 20.976562 C 92.910156 21.988281 90.714844 24.460938 89.984375 26.722656 C 89.84375 27.144531 89.433594 27.332031 89.640625 26.679688 C 90.441406 24.285156 92.648438 21.707031 93.765625 20.566406 C 94.257812 20.105469 94.371094 20.398438 94.070312 20.75 Z M 82.722656 25.871094 C 83.214844 23.769531 84.847656 22.808594 87.675781 23.042969 C 88.355469 26.183594 84.542969 27.449219 82.722656 25.871094 Z M 82.722656 25.871094 "/>
</g>
</svg>
