<svg width="200" height="200" version="1.1" xmlns="http://www.w3.org/2000/svg" desc="Created with imagetracer.js version 1.2.6" ><path fill="rgb(247,214,227)" stroke="rgb(247,214,227)" stroke-width="1" opacity="1" d="M 53.5 32 L 56 32.5 L 53.5 33 L 53.5 32 Z " /><path fill="rgb(247,214,227)" stroke="rgb(247,214,227)" stroke-width="1" opacity="1" d="M 144.5 32 L 147 32.5 L 144.5 33 L 144.5 32 Z " /><path fill="rgb(247,214,227)" stroke="rgb(247,214,227)" stroke-width="1" opacity="1" d="M 157.5 36 L 159.5 39 L 157.5 36 Z " /><path fill="rgb(247,214,227)" stroke="rgb(247,214,227)" stroke-width="1" opacity="1" d="M 162.5 41 L 163.5 43 L 162.5 41 Z " /><path fill="rgb(247,214,227)" stroke="rgb(247,214,227)" stroke-width="1" opacity="1" d="M 151.5 44 L 152.5 46 L 151.5 44 Z " /><path fill="rgb(247,214,227)" stroke="rgb(247,214,227)" stroke-width="1" opacity="1" d="M 34.5 47 L 33.5 49 L 34.5 47 Z " /><path fill="rgb(247,214,227)" stroke="rgb(247,214,227)" stroke-width="1" opacity="1" d="M 45.5 47 L 44.5 49 L 45.5 47 Z " /><path fill="rgb(247,214,227)" stroke="rgb(247,214,227)" stroke-width="1" opacity="1" d="M 155.5 48 L 156.5 50 L 155.5 48 Z " /><path fill="rgb(247,214,227)" stroke="rgb(247,214,227)" stroke-width="1" opacity="1" d="M 43.5 50 L 43 51.5 L 42.5 53 L 42 51.5 L 43.5 50 Z " /><path fill="rgb(247,214,227)" stroke="rgb(247,214,227)" stroke-width="1" opacity="1" d="M 168.5 54 L 169 56.5 L 168 56.5 L 168.5 54 Z " /><path fill="rgb(247,214,227)" stroke="rgb(247,214,227)" stroke-width="1" opacity="1" d="M 41.5 55 L 42 145.5 L 41 145.5 L 41.5 55 Z " /><path fill="rgb(247,214,227)" stroke="rgb(247,214,227)" stroke-width="1" opacity="1" d="M 99.5 61 L 102 61.5 L 99.5 62 L 99.5 61 Z " /><path fill="rgb(247,214,227)" stroke="rgb(247,214,227)" stroke-width="1" opacity="1" d="M 95.5 63 Q 98.8 64.8 95 66.5 L 93.5 69 Q 86.3 66.7 89 74.5 L 88 74.5 Q 86.8 69.8 89 68.5 L 87.5 68 L 86.5 69 L 77.5 69 L 75 67.5 L 92.5 67 L 94 67.5 L 93 65.5 L 95.5 63 Z " /><path fill="rgb(247,214,227)" stroke="rgb(247,214,227)" stroke-width="1" opacity="1" d="M 98.5 63 L 102 63.5 L 98.5 64 L 98.5 63 Z " /><path fill="rgb(247,214,227)" stroke="rgb(247,214,227)" stroke-width="1" opacity="1" d="M 105.5 63 Q 108.5 64.5 105.5 66 L 105.5 63 Z " /><path fill="rgb(247,214,227)" stroke="rgb(247,214,227)" stroke-width="1" opacity="1" d="M 107.5 66 L 108.5 67 L 125 67.5 L 123.5 69 L 114 69 L 113.5 77 Q 110.9 74.5 112 69 L 107 68.5 L 107.5 66 Z " /><path fill="rgb(247,214,227)" stroke="rgb(247,214,227)" stroke-width="1" opacity="1" d="M 126.5 68 L 131 71.5 L 128 71.5 Q 130.3 70.3 127.5 69 L 126 69.5 L 126.5 71 Q 123.5 69.5 126.5 68 Z " /><path fill="rgb(247,214,227)" stroke="rgb(247,214,227)" stroke-width="1" opacity="1" d="M 71.5 70 L 74 70.5 Q 72 75 70 71.5 L 71.5 70 Z " /><path fill="rgb(247,214,227)" stroke="rgb(247,214,227)" stroke-width="1" opacity="1" d="M 69.5 73 L 71 74.5 L 71 131.5 L 70 131.5 L 70 74.5 L 69.5 73 Z " /><path fill="rgb(247,214,227)" stroke="rgb(247,214,227)" stroke-width="1" opacity="1" d="M 68.5 75 L 69 131.5 L 68 131.5 L 68.5 75 Z " /><path fill="rgb(247,214,227)" stroke="rgb(247,214,227)" stroke-width="1" opacity="1" d="M 111.5 76 L 111.5 79 L 110.5 78 L 90.5 78 L 89 78.5 L 90.5 77 L 110.5 77 L 111.5 76 Z " /><path fill="rgb(247,214,227)" stroke="rgb(247,214,227)" stroke-width="1" opacity="1" d="M 71.5 134 L 71.5 137 Q 68.5 135.5 71.5 134 Z " /><path fill="rgb(247,214,227)" stroke="rgb(247,214,227)" stroke-width="1" opacity="1" d="M 127.5 135 L 126.5 137 L 127.5 135 Z " /><path fill="rgb(247,214,227)" stroke="rgb(247,214,227)" stroke-width="1" opacity="1" d="M 78.5 139 L 123 139.5 L 78.5 140 L 78.5 139 Z " /><path fill="rgb(247,214,227)" stroke="rgb(247,214,227)" stroke-width="1" opacity="1" d="M 168.5 144 L 169 146.5 L 168 146.5 L 168.5 144 Z " /><path fill="rgb(247,214,227)" stroke="rgb(247,214,227)" stroke-width="1" opacity="1" d="M 157.5 149 L 158 150.5 L 155 152.5 L 157.5 149 Z " /><path fill="rgb(247,214,227)" stroke="rgb(247,214,227)" stroke-width="1" opacity="1" d="M 44.5 152 L 48.5 157 L 44.5 152 Z " /><path fill="rgb(247,214,227)" stroke="rgb(247,214,227)" stroke-width="1" opacity="1" d="M 152.5 155 L 150.5 158 L 149 157.5 L 152.5 155 Z " /><path fill="rgb(247,214,227)" stroke="rgb(247,214,227)" stroke-width="1" opacity="1" d="M 164.5 157 L 163.5 159 L 164.5 157 Z " /><path fill="rgb(247,214,227)" stroke="rgb(247,214,227)" stroke-width="1" opacity="1" d="M 37.5 159 L 40.5 163 L 37.5 159 Z " /><path fill="rgb(247,214,227)" stroke="rgb(247,214,227)" stroke-width="1" opacity="1" d="M 158.5 163 L 157.5 165 L 158.5 163 Z " /><path fill="rgb(247,214,227)" stroke="rgb(247,214,227)" stroke-width="1" opacity="1" d="M 53.5 168 L 56 168.5 L 53.5 169 L 53.5 168 Z " /><path fill="rgb(247,214,227)" stroke="rgb(247,214,227)" stroke-width="1" opacity="1" d="M 144.5 168 L 147 168.5 L 144.5 169 L 144.5 168 Z " /><path fill="rgb(255,254,254)" stroke="rgb(255,254,254)" stroke-width="1" opacity="1" d="M 160.5 39 L 161.5 41 L 160.5 39 Z " /><path fill="rgb(255,254,254)" stroke="rgb(255,254,254)" stroke-width="1" opacity="1" d="M 51.5 42 L 50.5 44 L 51.5 42 Z " /><path fill="rgb(255,254,254)" stroke="rgb(255,254,254)" stroke-width="1" opacity="1" d="M 153.5 45 L 155.5 48 L 153.5 45 Z " /><path fill="rgb(255,254,254)" stroke="rgb(255,254,254)" stroke-width="1" opacity="1" d="M 97.5 62 L 98 64 L 96 63.5 L 97.5 62 Z " /><path fill="rgb(255,254,254)" stroke="rgb(255,254,254)" stroke-width="1" opacity="1" d="M 88.5 75 L 87.5 77 L 88.5 75 Z " /><path fill="rgb(255,254,254)" stroke="rgb(255,254,254)" stroke-width="1" opacity="1" d="M 131.5 75 L 131 76.5 L 130.5 130 L 130 76.5 L 131.5 75 Z " /><path fill="rgb(255,254,254)" stroke="rgb(255,254,254)" stroke-width="1" opacity="1" d="M 89.5 77 L 90.5 79 L 89.5 77 Z " /><path fill="rgb(255,254,254)" stroke="rgb(255,254,254)" stroke-width="1" opacity="1" d="M 79.5 97 L 80.5 98 L 95.5 98 L 97 97.5 L 95.5 99 L 80.5 99 L 79.5 97 Z " /><path fill="rgb(255,254,254)" stroke="rgb(255,254,254)" stroke-width="1" opacity="1" d="M 120.5 97 L 119.5 99 L 104 98.5 L 119.5 98 L 120.5 97 Z " /><path fill="rgb(255,254,254)" stroke="rgb(255,254,254)" stroke-width="1" opacity="1" d="M 80.5 119 L 95.5 119 L 97 120.5 L 95.5 120 L 80.5 120 L 79.5 121 L 80.5 119 Z " /><path fill="rgb(255,254,254)" stroke="rgb(255,254,254)" stroke-width="1" opacity="1" d="M 104.5 119 L 120 119.5 L 104.5 120 L 104.5 119 Z " /><path fill="rgb(255,254,254)" stroke="rgb(255,254,254)" stroke-width="1" opacity="1" d="M 72.5 135 L 74 137.5 L 73 137.5 L 72.5 135 Z " /><path fill="rgb(255,254,254)" stroke="rgb(255,254,254)" stroke-width="1" opacity="1" d="M 128.5 135 L 129 136.5 L 127 137.5 L 128.5 135 Z " /><path fill="rgb(255,254,254)" stroke="rgb(255,254,254)" stroke-width="1" opacity="1" d="M 124.5 137 L 125.5 139 L 124.5 137 Z " /><path fill="rgb(255,254,254)" stroke="rgb(255,254,254)" stroke-width="1" opacity="1" d="M 42.5 150 L 43.5 152 L 42.5 150 Z " /><path fill="rgb(255,254,254)" stroke="rgb(255,254,254)" stroke-width="1" opacity="1" d="M 166.5 153 L 165.5 155 L 166.5 153 Z " /><path fill="rgb(255,254,254)" stroke="rgb(255,254,254)" stroke-width="1" opacity="1" d="M 161.5 160 L 160.5 162 L 161.5 160 Z " /><path fill="rgb(255,254,254)" stroke="rgb(255,254,254)" stroke-width="1" opacity="1" d="M 154.5 165 L 153.5 167 L 154.5 165 Z " /><path fill="rgb(255,255,255)" stroke="rgb(255,255,255)" stroke-width="1" opacity="1" d="M 58.5 32 L 141.5 32 Q 143.2 34.8 149.5 33 L 156.5 36 L 164 43.5 L 168 51.5 Q 166.3 57.8 169 59.5 L 169 141.5 L 167 152.5 L 163 160 L 160 161.5 Q 160.8 163.8 158.5 163 L 152.5 167 L 141.5 169 L 58.5 169 L 48.5 167 Q 41.1 164.4 37 158.5 L 32 147.5 L 32 53.5 L 37 42 Q 39.7 43.1 39 40.5 L 42 39 Q 40.9 36.3 43.5 37 L 51.5 33 Q 57 34.5 58.5 32 Z M 52 42 L 49 44 Q 43 47 41 55 L 41 147 L 45 155 L 52 159 L 149 159 L 154 156 L 159 149 L 159 53 L 156 48 L 149 42 L 52 42 Z " /><path fill="rgb(255,255,255)" stroke="rgb(255,255,255)" stroke-width="1" opacity="1" d="M 98.5 62 Q 103 61 104 63.5 L 102.5 63 Q 97.5 64 98.5 62 Z " /><path fill="rgb(255,255,255)" stroke="rgb(255,255,255)" stroke-width="1" opacity="1" d="M 95.5 64 L 94.5 66 L 95.5 64 Z " /><path fill="rgb(255,255,255)" stroke="rgb(255,255,255)" stroke-width="1" opacity="1" d="M 87.5 68 L 89 77.5 L 88 77.5 Q 85.6 74.2 87.5 68 Z " /><path fill="rgb(255,255,255)" stroke="rgb(255,255,255)" stroke-width="1" opacity="1" d="M 124.5 68 L 129 70.5 L 127.5 70 Q 123.7 69.8 124.5 68 Z " /><path fill="rgb(255,255,255)" stroke="rgb(255,255,255)" stroke-width="1" opacity="1" d="M 73.5 69 L 72.5 71 L 73.5 69 Z " /><path fill="rgb(255,255,255)" stroke="rgb(255,255,255)" stroke-width="1" opacity="1" d="M 70.5 72 L 71 73.5 L 70 74.5 L 70 132.5 L 70.5 134 L 69 132.5 L 69 74.5 L 70.5 72 Z " /><path fill="rgb(255,255,255)" stroke="rgb(255,255,255)" stroke-width="1" opacity="1" d="M 129.5 72 Q 132.5 71.1 131 75.5 L 132 76.5 L 132 130.5 L 129.5 135 L 130 133.5 L 131 129.5 L 131 76.5 L 129.5 72 Z " /><path fill="rgb(255,255,255)" stroke="rgb(255,255,255)" stroke-width="1" opacity="1" d="M 112.5 76 L 111.5 78 L 112.5 76 Z " /><path fill="rgb(255,255,255)" stroke="rgb(255,255,255)" stroke-width="1" opacity="1" d="M 91.5 78 L 110 78.5 L 91.5 79 L 91.5 78 Z " /><path fill="rgb(255,255,255)" stroke="rgb(255,255,255)" stroke-width="1" opacity="1" d="M 80.5 97 L 96 97.5 L 80.5 98 L 80.5 97 Z " /><path fill="rgb(255,255,255)" stroke="rgb(255,255,255)" stroke-width="1" opacity="1" d="M 104.5 97 L 120 97.5 L 104.5 98 L 104.5 97 Z " /><path fill="rgb(255,255,255)" stroke="rgb(255,255,255)" stroke-width="1" opacity="1" d="M 80.5 120 L 96 120.5 L 80.5 121 L 80.5 120 Z " /><path fill="rgb(255,255,255)" stroke="rgb(255,255,255)" stroke-width="1" opacity="1" d="M 104.5 120 L 121 120.5 L 104.5 121 L 104.5 120 Z " /><path fill="rgb(255,255,255)" stroke="rgb(255,255,255)" stroke-width="1" opacity="1" d="M 71.5 135 L 72.5 137 L 71.5 135 Z " /><path fill="rgb(255,255,255)" stroke="rgb(255,255,255)" stroke-width="1" opacity="1" d="M 127.5 136 L 126.5 138 L 124.5 139 L 76.5 139 L 74 137.5 L 75.5 137 L 76.5 138 L 124.5 138 L 127.5 136 Z " /><path fill="rgb(7,18,42)" stroke="rgb(7,18,42)" stroke-width="1" opacity="1" d="M 0 0 L 200 0 L 200 200 L 0 200 L 0 0 Z M 52 32 L 43 36 Q 33 42 31 56 L 31 146 L 36 159 Q 41 166 52 169 L 149 169 L 160 164 Q 167 159 169 149 L 169 53 L 168 49 L 162 39 L 149 32 L 52 32 Z " /><path fill="rgb(235,90,145)" stroke="rgb(235,90,145)" stroke-width="1" opacity="1" d="M 42.5 36 L 40.5 39 L 42.5 36 Z " /><path fill="rgb(235,90,145)" stroke="rgb(235,90,145)" stroke-width="1" opacity="1" d="M 38.5 40 L 36.5 43 L 38.5 40 Z " /><path fill="rgb(235,90,145)" stroke="rgb(235,90,145)" stroke-width="1" opacity="1" d="M 54.5 42 L 145.5 42 L 155 47.5 L 159 55.5 L 159 145.5 L 153.5 155 L 145.5 159 L 54.5 159 Q 46.6 156.9 43 150.5 L 42 147.5 L 42 53.5 L 48.5 45 L 54.5 42 Z M 100 61 L 96 63 L 93 67 L 76 67 L 74 68 L 68 76 L 68 132 L 70 136 L 75 139 L 79 140 L 123 140 L 127 139 L 132 134 L 132 74 L 131 72 L 125 67 L 109 67 L 107 65 L 100 61 Z " /><path fill="rgb(235,90,145)" stroke="rgb(235,90,145)" stroke-width="1" opacity="1" d="M 31.5 55 L 32 145.5 L 31 145.5 L 31.5 55 Z " /><path fill="rgb(235,90,145)" stroke="rgb(235,90,145)" stroke-width="1" opacity="1" d="M 97.5 64 Q 104 63 106 66.5 L 107.5 69 L 112 69 L 112 75.5 L 110.5 77 L 89 77 L 89 69 L 93.5 69 L 97.5 64 Z " /><path fill="rgb(235,90,145)" stroke="rgb(235,90,145)" stroke-width="1" opacity="1" d="M 76.5 69 L 87 69 L 87 77.5 L 88.5 78 L 89.5 79 L 111.5 79 L 114 76.5 L 114 69 L 124.5 69 L 129 72.5 L 130 74.5 L 130 131.5 L 129 135 L 122.5 138 L 77.5 138 L 71 133.5 L 71 73.5 L 74.5 70 L 76.5 69 Z M 79 97 L 80 99 L 97 99 L 97 97 L 79 97 Z M 103 97 L 104 99 L 121 99 L 121 97 L 103 97 Z M 79 119 L 80 121 L 97 121 L 97 119 L 79 119 Z M 103 119 L 104 121 L 121 121 L 121 119 L 103 119 Z " /><path fill="rgb(235,90,145)" stroke="rgb(235,90,145)" stroke-width="1" opacity="1" d="M 163.5 159 L 159.5 164 L 163.5 159 Z " /><path fill="rgb(235,90,145)" stroke="rgb(235,90,145)" stroke-width="1" opacity="1" d="M 41.5 163 L 42.5 165 L 41.5 163 Z " /></svg>