<?xml version="1.0" encoding="UTF-8"?>
<svg xmlns="http://www.w3.org/2000/svg" xmlns:xlink="http://www.w3.org/1999/xlink" width="100px" height="100px" viewBox="0 0 100 100" version="1.1">
<g id="surface1">
<path style="fill-rule:nonzero;fill:rgb(96.862745%,83.92157%,89.019608%);fill-opacity:1;stroke-width:1;stroke-linecap:butt;stroke-linejoin:miter;stroke:rgb(96.862745%,83.92157%,89.019608%);stroke-opacity:1;stroke-miterlimit:4;" d="M 53.5 32 L 56 32.5 L 53.5 33 Z M 53.5 32 " transform="matrix(0.5,0,0,0.5,0,0)"/>
<path style="fill-rule:nonzero;fill:rgb(96.862745%,83.92157%,89.019608%);fill-opacity:1;stroke-width:1;stroke-linecap:butt;stroke-linejoin:miter;stroke:rgb(96.862745%,83.92157%,89.019608%);stroke-opacity:1;stroke-miterlimit:4;" d="M 144.5 32 L 147 32.5 L 144.5 33 Z M 144.5 32 " transform="matrix(0.5,0,0,0.5,0,0)"/>
<path style="fill-rule:nonzero;fill:rgb(96.862745%,83.92157%,89.019608%);fill-opacity:1;stroke-width:1;stroke-linecap:butt;stroke-linejoin:miter;stroke:rgb(96.862745%,83.92157%,89.019608%);stroke-opacity:1;stroke-miterlimit:4;" d="M 157.5 36 L 159.5 39 Z M 157.5 36 " transform="matrix(0.5,0,0,0.5,0,0)"/>
<path style="fill-rule:nonzero;fill:rgb(96.862745%,83.92157%,89.019608%);fill-opacity:1;stroke-width:1;stroke-linecap:butt;stroke-linejoin:miter;stroke:rgb(96.862745%,83.92157%,89.019608%);stroke-opacity:1;stroke-miterlimit:4;" d="M 162.5 41 L 163.5 43 Z M 162.5 41 " transform="matrix(0.5,0,0,0.5,0,0)"/>
<path style="fill-rule:nonzero;fill:rgb(96.862745%,83.92157%,89.019608%);fill-opacity:1;stroke-width:1;stroke-linecap:butt;stroke-linejoin:miter;stroke:rgb(96.862745%,83.92157%,89.019608%);stroke-opacity:1;stroke-miterlimit:4;" d="M 151.5 44 L 152.5 46 Z M 151.5 44 " transform="matrix(0.5,0,0,0.5,0,0)"/>
<path style="fill-rule:nonzero;fill:rgb(96.862745%,83.92157%,89.019608%);fill-opacity:1;stroke-width:1;stroke-linecap:butt;stroke-linejoin:miter;stroke:rgb(96.862745%,83.92157%,89.019608%);stroke-opacity:1;stroke-miterlimit:4;" d="M 34.5 47 L 33.5 49 Z M 34.5 47 " transform="matrix(0.5,0,0,0.5,0,0)"/>
<path style="fill-rule:nonzero;fill:rgb(96.862745%,83.92157%,89.019608%);fill-opacity:1;stroke-width:1;stroke-linecap:butt;stroke-linejoin:miter;stroke:rgb(96.862745%,83.92157%,89.019608%);stroke-opacity:1;stroke-miterlimit:4;" d="M 45.5 47 L 44.5 49 Z M 45.5 47 " transform="matrix(0.5,0,0,0.5,0,0)"/>
<path style="fill-rule:nonzero;fill:rgb(96.862745%,83.92157%,89.019608%);fill-opacity:1;stroke-width:1;stroke-linecap:butt;stroke-linejoin:miter;stroke:rgb(96.862745%,83.92157%,89.019608%);stroke-opacity:1;stroke-miterlimit:4;" d="M 155.5 48 L 156.5 50 Z M 155.5 48 " transform="matrix(0.5,0,0,0.5,0,0)"/>
<path style="fill-rule:nonzero;fill:rgb(96.862745%,83.92157%,89.019608%);fill-opacity:1;stroke-width:1;stroke-linecap:butt;stroke-linejoin:miter;stroke:rgb(96.862745%,83.92157%,89.019608%);stroke-opacity:1;stroke-miterlimit:4;" d="M 43.5 50 L 42.5 53 L 42 51.5 Z M 43.5 50 " transform="matrix(0.5,0,0,0.5,0,0)"/>
<path style="fill-rule:nonzero;fill:rgb(96.862745%,83.92157%,89.019608%);fill-opacity:1;stroke-width:1;stroke-linecap:butt;stroke-linejoin:miter;stroke:rgb(96.862745%,83.92157%,89.019608%);stroke-opacity:1;stroke-miterlimit:4;" d="M 168.5 54 L 169 56.5 L 168 56.5 Z M 168.5 54 " transform="matrix(0.5,0,0,0.5,0,0)"/>
<path style="fill-rule:nonzero;fill:rgb(96.862745%,83.92157%,89.019608%);fill-opacity:1;stroke-width:1;stroke-linecap:butt;stroke-linejoin:miter;stroke:rgb(96.862745%,83.92157%,89.019608%);stroke-opacity:1;stroke-miterlimit:4;" d="M 41.5 55 L 42 145.5 L 41 145.5 Z M 41.5 55 " transform="matrix(0.5,0,0,0.5,0,0)"/>
<path style="fill-rule:nonzero;fill:rgb(96.862745%,83.92157%,89.019608%);fill-opacity:1;stroke-width:1;stroke-linecap:butt;stroke-linejoin:miter;stroke:rgb(96.862745%,83.92157%,89.019608%);stroke-opacity:1;stroke-miterlimit:4;" d="M 99.5 61 L 102 61.5 L 99.5 62 Z M 99.5 61 " transform="matrix(0.5,0,0,0.5,0,0)"/>
<path style="fill-rule:nonzero;fill:rgb(96.862745%,83.92157%,89.019608%);fill-opacity:1;stroke-width:1;stroke-linecap:butt;stroke-linejoin:miter;stroke:rgb(96.862745%,83.92157%,89.019608%);stroke-opacity:1;stroke-miterlimit:4;" d="M 95.5 63 C 97.703125 64.203125 97.53125 65.367188 95 66.5 L 93.5 69 C 88.703125 67.46875 87.203125 69.296875 89 74.5 L 88 74.5 C 87.203125 71.367188 87.53125 69.367188 89 68.5 L 87.5 68 L 86.5 69 L 77.5 69 L 75 67.5 L 92.5 67 L 94 67.5 L 93 65.5 Z M 95.5 63 " transform="matrix(0.5,0,0,0.5,0,0)"/>
<path style="fill-rule:nonzero;fill:rgb(96.862745%,83.92157%,89.019608%);fill-opacity:1;stroke-width:1;stroke-linecap:butt;stroke-linejoin:miter;stroke:rgb(96.862745%,83.92157%,89.019608%);stroke-opacity:1;stroke-miterlimit:4;" d="M 98.5 63 L 102 63.5 L 98.5 64 Z M 98.5 63 " transform="matrix(0.5,0,0,0.5,0,0)"/>
<path style="fill-rule:nonzero;fill:rgb(96.862745%,83.92157%,89.019608%);fill-opacity:1;stroke-width:1;stroke-linecap:butt;stroke-linejoin:miter;stroke:rgb(96.862745%,83.92157%,89.019608%);stroke-opacity:1;stroke-miterlimit:4;" d="M 105.5 63 C 107.5 64 107.5 65 105.5 66 Z M 105.5 63 " transform="matrix(0.5,0,0,0.5,0,0)"/>
<path style="fill-rule:nonzero;fill:rgb(96.862745%,83.92157%,89.019608%);fill-opacity:1;stroke-width:1;stroke-linecap:butt;stroke-linejoin:miter;stroke:rgb(96.862745%,83.92157%,89.019608%);stroke-opacity:1;stroke-miterlimit:4;" d="M 107.5 66 L 108.5 67 L 125 67.5 L 123.5 69 L 114 69 L 113.5 77 C 111.765625 75.335938 111.265625 72.664062 112 69 L 107 68.5 Z M 107.5 66 " transform="matrix(0.5,0,0,0.5,0,0)"/>
<path style="fill-rule:nonzero;fill:rgb(96.862745%,83.92157%,89.019608%);fill-opacity:1;stroke-width:1;stroke-linecap:butt;stroke-linejoin:miter;stroke:rgb(96.862745%,83.92157%,89.019608%);stroke-opacity:1;stroke-miterlimit:4;" d="M 126.5 68 L 131 71.5 L 128 71.5 C 129.53125 70.703125 129.367188 69.867188 127.5 69 L 126 69.5 L 126.5 71 C 124.5 70 124.5 69 126.5 68 Z M 126.5 68 " transform="matrix(0.5,0,0,0.5,0,0)"/>
<path style="fill-rule:nonzero;fill:rgb(96.862745%,83.92157%,89.019608%);fill-opacity:1;stroke-width:1;stroke-linecap:butt;stroke-linejoin:miter;stroke:rgb(96.862745%,83.92157%,89.019608%);stroke-opacity:1;stroke-miterlimit:4;" d="M 71.5 70 L 74 70.5 C 72.664062 73.5 71.335938 73.835938 70 71.5 Z M 71.5 70 " transform="matrix(0.5,0,0,0.5,0,0)"/>
<path style="fill-rule:nonzero;fill:rgb(96.862745%,83.92157%,89.019608%);fill-opacity:1;stroke-width:1;stroke-linecap:butt;stroke-linejoin:miter;stroke:rgb(96.862745%,83.92157%,89.019608%);stroke-opacity:1;stroke-miterlimit:4;" d="M 69.5 73 L 71 74.5 L 71 131.5 L 70 131.5 L 70 74.5 Z M 69.5 73 " transform="matrix(0.5,0,0,0.5,0,0)"/>
<path style="fill-rule:nonzero;fill:rgb(96.862745%,83.92157%,89.019608%);fill-opacity:1;stroke-width:1;stroke-linecap:butt;stroke-linejoin:miter;stroke:rgb(96.862745%,83.92157%,89.019608%);stroke-opacity:1;stroke-miterlimit:4;" d="M 68.5 75 L 69 131.5 L 68 131.5 Z M 68.5 75 " transform="matrix(0.5,0,0,0.5,0,0)"/>
<path style="fill-rule:nonzero;fill:rgb(96.862745%,83.92157%,89.019608%);fill-opacity:1;stroke-width:1;stroke-linecap:butt;stroke-linejoin:miter;stroke:rgb(96.862745%,83.92157%,89.019608%);stroke-opacity:1;stroke-miterlimit:4;" d="M 111.5 76 L 111.5 79 L 110.5 78 L 90.5 78 L 89 78.5 L 90.5 77 L 110.5 77 Z M 111.5 76 " transform="matrix(0.5,0,0,0.5,0,0)"/>
<path style="fill-rule:nonzero;fill:rgb(96.862745%,83.92157%,89.019608%);fill-opacity:1;stroke-width:1;stroke-linecap:butt;stroke-linejoin:miter;stroke:rgb(96.862745%,83.92157%,89.019608%);stroke-opacity:1;stroke-miterlimit:4;" d="M 71.5 134 L 71.5 137 C 69.5 136 69.5 135 71.5 134 Z M 71.5 134 " transform="matrix(0.5,0,0,0.5,0,0)"/>
<path style="fill-rule:nonzero;fill:rgb(96.862745%,83.92157%,89.019608%);fill-opacity:1;stroke-width:1;stroke-linecap:butt;stroke-linejoin:miter;stroke:rgb(96.862745%,83.92157%,89.019608%);stroke-opacity:1;stroke-miterlimit:4;" d="M 127.5 135 L 126.5 137 Z M 127.5 135 " transform="matrix(0.5,0,0,0.5,0,0)"/>
<path style="fill-rule:nonzero;fill:rgb(96.862745%,83.92157%,89.019608%);fill-opacity:1;stroke-width:1;stroke-linecap:butt;stroke-linejoin:miter;stroke:rgb(96.862745%,83.92157%,89.019608%);stroke-opacity:1;stroke-miterlimit:4;" d="M 78.5 139 L 123 139.5 L 78.5 140 Z M 78.5 139 " transform="matrix(0.5,0,0,0.5,0,0)"/>
<path style="fill-rule:nonzero;fill:rgb(96.862745%,83.92157%,89.019608%);fill-opacity:1;stroke-width:1;stroke-linecap:butt;stroke-linejoin:miter;stroke:rgb(96.862745%,83.92157%,89.019608%);stroke-opacity:1;stroke-miterlimit:4;" d="M 168.5 144 L 169 146.5 L 168 146.5 Z M 168.5 144 " transform="matrix(0.5,0,0,0.5,0,0)"/>
<path style="fill-rule:nonzero;fill:rgb(96.862745%,83.92157%,89.019608%);fill-opacity:1;stroke-width:1;stroke-linecap:butt;stroke-linejoin:miter;stroke:rgb(96.862745%,83.92157%,89.019608%);stroke-opacity:1;stroke-miterlimit:4;" d="M 157.5 149 L 158 150.5 L 155 152.5 Z M 157.5 149 " transform="matrix(0.5,0,0,0.5,0,0)"/>
<path style="fill-rule:nonzero;fill:rgb(96.862745%,83.92157%,89.019608%);fill-opacity:1;stroke-width:1;stroke-linecap:butt;stroke-linejoin:miter;stroke:rgb(96.862745%,83.92157%,89.019608%);stroke-opacity:1;stroke-miterlimit:4;" d="M 44.5 152 L 48.5 157 Z M 44.5 152 " transform="matrix(0.5,0,0,0.5,0,0)"/>
<path style="fill-rule:nonzero;fill:rgb(96.862745%,83.92157%,89.019608%);fill-opacity:1;stroke-width:1;stroke-linecap:butt;stroke-linejoin:miter;stroke:rgb(96.862745%,83.92157%,89.019608%);stroke-opacity:1;stroke-miterlimit:4;" d="M 152.5 155 L 150.5 158 L 149 157.5 Z M 152.5 155 " transform="matrix(0.5,0,0,0.5,0,0)"/>
<path style="fill-rule:nonzero;fill:rgb(96.862745%,83.92157%,89.019608%);fill-opacity:1;stroke-width:1;stroke-linecap:butt;stroke-linejoin:miter;stroke:rgb(96.862745%,83.92157%,89.019608%);stroke-opacity:1;stroke-miterlimit:4;" d="M 164.5 157 L 163.5 159 Z M 164.5 157 " transform="matrix(0.5,0,0,0.5,0,0)"/>
<path style="fill-rule:nonzero;fill:rgb(96.862745%,83.92157%,89.019608%);fill-opacity:1;stroke-width:1;stroke-linecap:butt;stroke-linejoin:miter;stroke:rgb(96.862745%,83.92157%,89.019608%);stroke-opacity:1;stroke-miterlimit:4;" d="M 37.5 159 L 40.5 163 Z M 37.5 159 " transform="matrix(0.5,0,0,0.5,0,0)"/>
<path style="fill-rule:nonzero;fill:rgb(96.862745%,83.92157%,89.019608%);fill-opacity:1;stroke-width:1;stroke-linecap:butt;stroke-linejoin:miter;stroke:rgb(96.862745%,83.92157%,89.019608%);stroke-opacity:1;stroke-miterlimit:4;" d="M 158.5 163 L 157.5 165 Z M 158.5 163 " transform="matrix(0.5,0,0,0.5,0,0)"/>
<path style="fill-rule:nonzero;fill:rgb(96.862745%,83.92157%,89.019608%);fill-opacity:1;stroke-width:1;stroke-linecap:butt;stroke-linejoin:miter;stroke:rgb(96.862745%,83.92157%,89.019608%);stroke-opacity:1;stroke-miterlimit:4;" d="M 53.5 168 L 56 168.5 L 53.5 169 Z M 53.5 168 " transform="matrix(0.5,0,0,0.5,0,0)"/>
<path style="fill-rule:nonzero;fill:rgb(96.862745%,83.92157%,89.019608%);fill-opacity:1;stroke-width:1;stroke-linecap:butt;stroke-linejoin:miter;stroke:rgb(96.862745%,83.92157%,89.019608%);stroke-opacity:1;stroke-miterlimit:4;" d="M 144.5 168 L 147 168.5 L 144.5 169 Z M 144.5 168 " transform="matrix(0.5,0,0,0.5,0,0)"/>
<path style="fill-rule:nonzero;fill:rgb(100%,99.607843%,99.607843%);fill-opacity:1;stroke-width:1;stroke-linecap:butt;stroke-linejoin:miter;stroke:rgb(100%,99.607843%,99.607843%);stroke-opacity:1;stroke-miterlimit:4;" d="M 160.5 39 L 161.5 41 Z M 160.5 39 " transform="matrix(0.5,0,0,0.5,0,0)"/>
<path style="fill-rule:nonzero;fill:rgb(100%,99.607843%,99.607843%);fill-opacity:1;stroke-width:1;stroke-linecap:butt;stroke-linejoin:miter;stroke:rgb(100%,99.607843%,99.607843%);stroke-opacity:1;stroke-miterlimit:4;" d="M 51.5 42 L 50.5 44 Z M 51.5 42 " transform="matrix(0.5,0,0,0.5,0,0)"/>
<path style="fill-rule:nonzero;fill:rgb(100%,99.607843%,99.607843%);fill-opacity:1;stroke-width:1;stroke-linecap:butt;stroke-linejoin:miter;stroke:rgb(100%,99.607843%,99.607843%);stroke-opacity:1;stroke-miterlimit:4;" d="M 153.5 45 L 155.5 48 Z M 153.5 45 " transform="matrix(0.5,0,0,0.5,0,0)"/>
<path style="fill-rule:nonzero;fill:rgb(100%,99.607843%,99.607843%);fill-opacity:1;stroke-width:1;stroke-linecap:butt;stroke-linejoin:miter;stroke:rgb(100%,99.607843%,99.607843%);stroke-opacity:1;stroke-miterlimit:4;" d="M 97.5 62 L 98 64 L 96 63.5 Z M 97.5 62 " transform="matrix(0.5,0,0,0.5,0,0)"/>
<path style="fill-rule:nonzero;fill:rgb(100%,99.607843%,99.607843%);fill-opacity:1;stroke-width:1;stroke-linecap:butt;stroke-linejoin:miter;stroke:rgb(100%,99.607843%,99.607843%);stroke-opacity:1;stroke-miterlimit:4;" d="M 88.5 75 L 87.5 77 Z M 88.5 75 " transform="matrix(0.5,0,0,0.5,0,0)"/>
<path style="fill-rule:nonzero;fill:rgb(100%,99.607843%,99.607843%);fill-opacity:1;stroke-width:1;stroke-linecap:butt;stroke-linejoin:miter;stroke:rgb(100%,99.607843%,99.607843%);stroke-opacity:1;stroke-miterlimit:4;" d="M 131.5 75 L 131 76.5 L 130.5 130 L 130 76.5 Z M 131.5 75 " transform="matrix(0.5,0,0,0.5,0,0)"/>
<path style="fill-rule:nonzero;fill:rgb(100%,99.607843%,99.607843%);fill-opacity:1;stroke-width:1;stroke-linecap:butt;stroke-linejoin:miter;stroke:rgb(100%,99.607843%,99.607843%);stroke-opacity:1;stroke-miterlimit:4;" d="M 89.5 77 L 90.5 79 Z M 89.5 77 " transform="matrix(0.5,0,0,0.5,0,0)"/>
<path style="fill-rule:nonzero;fill:rgb(100%,99.607843%,99.607843%);fill-opacity:1;stroke-width:1;stroke-linecap:butt;stroke-linejoin:miter;stroke:rgb(100%,99.607843%,99.607843%);stroke-opacity:1;stroke-miterlimit:4;" d="M 79.5 97 L 80.5 98 L 95.5 98 L 97 97.5 L 95.5 99 L 80.5 99 Z M 79.5 97 " transform="matrix(0.5,0,0,0.5,0,0)"/>
<path style="fill-rule:nonzero;fill:rgb(100%,99.607843%,99.607843%);fill-opacity:1;stroke-width:1;stroke-linecap:butt;stroke-linejoin:miter;stroke:rgb(100%,99.607843%,99.607843%);stroke-opacity:1;stroke-miterlimit:4;" d="M 120.5 97 L 119.5 99 L 104 98.5 L 119.5 98 Z M 120.5 97 " transform="matrix(0.5,0,0,0.5,0,0)"/>
<path style="fill-rule:nonzero;fill:rgb(100%,99.607843%,99.607843%);fill-opacity:1;stroke-width:1;stroke-linecap:butt;stroke-linejoin:miter;stroke:rgb(100%,99.607843%,99.607843%);stroke-opacity:1;stroke-miterlimit:4;" d="M 80.5 119 L 95.5 119 L 97 120.5 L 95.5 120 L 80.5 120 L 79.5 121 Z M 80.5 119 " transform="matrix(0.5,0,0,0.5,0,0)"/>
<path style="fill-rule:nonzero;fill:rgb(100%,99.607843%,99.607843%);fill-opacity:1;stroke-width:1;stroke-linecap:butt;stroke-linejoin:miter;stroke:rgb(100%,99.607843%,99.607843%);stroke-opacity:1;stroke-miterlimit:4;" d="M 104.5 119 L 120 119.5 L 104.5 120 Z M 104.5 119 " transform="matrix(0.5,0,0,0.5,0,0)"/>
<path style="fill-rule:nonzero;fill:rgb(100%,99.607843%,99.607843%);fill-opacity:1;stroke-width:1;stroke-linecap:butt;stroke-linejoin:miter;stroke:rgb(100%,99.607843%,99.607843%);stroke-opacity:1;stroke-miterlimit:4;" d="M 72.5 135 L 74 137.5 L 73 137.5 Z M 72.5 135 " transform="matrix(0.5,0,0,0.5,0,0)"/>
<path style="fill-rule:nonzero;fill:rgb(100%,99.607843%,99.607843%);fill-opacity:1;stroke-width:1;stroke-linecap:butt;stroke-linejoin:miter;stroke:rgb(100%,99.607843%,99.607843%);stroke-opacity:1;stroke-miterlimit:4;" d="M 128.5 135 L 129 136.5 L 127 137.5 Z M 128.5 135 " transform="matrix(0.5,0,0,0.5,0,0)"/>
<path style="fill-rule:nonzero;fill:rgb(100%,99.607843%,99.607843%);fill-opacity:1;stroke-width:1;stroke-linecap:butt;stroke-linejoin:miter;stroke:rgb(100%,99.607843%,99.607843%);stroke-opacity:1;stroke-miterlimit:4;" d="M 124.5 137 L 125.5 139 Z M 124.5 137 " transform="matrix(0.5,0,0,0.5,0,0)"/>
<path style="fill-rule:nonzero;fill:rgb(100%,99.607843%,99.607843%);fill-opacity:1;stroke-width:1;stroke-linecap:butt;stroke-linejoin:miter;stroke:rgb(100%,99.607843%,99.607843%);stroke-opacity:1;stroke-miterlimit:4;" d="M 42.5 150 L 43.5 152 Z M 42.5 150 " transform="matrix(0.5,0,0,0.5,0,0)"/>
<path style="fill-rule:nonzero;fill:rgb(100%,99.607843%,99.607843%);fill-opacity:1;stroke-width:1;stroke-linecap:butt;stroke-linejoin:miter;stroke:rgb(100%,99.607843%,99.607843%);stroke-opacity:1;stroke-miterlimit:4;" d="M 166.5 153 L 165.5 155 Z M 166.5 153 " transform="matrix(0.5,0,0,0.5,0,0)"/>
<path style="fill-rule:nonzero;fill:rgb(100%,99.607843%,99.607843%);fill-opacity:1;stroke-width:1;stroke-linecap:butt;stroke-linejoin:miter;stroke:rgb(100%,99.607843%,99.607843%);stroke-opacity:1;stroke-miterlimit:4;" d="M 161.5 160 L 160.5 162 Z M 161.5 160 " transform="matrix(0.5,0,0,0.5,0,0)"/>
<path style="fill-rule:nonzero;fill:rgb(100%,99.607843%,99.607843%);fill-opacity:1;stroke-width:1;stroke-linecap:butt;stroke-linejoin:miter;stroke:rgb(100%,99.607843%,99.607843%);stroke-opacity:1;stroke-miterlimit:4;" d="M 154.5 165 L 153.5 167 Z M 154.5 165 " transform="matrix(0.5,0,0,0.5,0,0)"/>
<path style="fill-rule:nonzero;fill:rgb(100%,100%,100%);fill-opacity:1;stroke-width:1;stroke-linecap:butt;stroke-linejoin:miter;stroke:rgb(100%,100%,100%);stroke-opacity:1;stroke-miterlimit:4;" d="M 58.5 32 L 141.5 32 C 142.632812 33.867188 145.296875 34.203125 149.5 33 L 156.5 36 L 164 43.5 L 168 51.5 C 166.867188 55.703125 167.203125 58.367188 169 59.5 L 169 141.5 L 167 152.5 L 163 160 L 160 161.5 C 160.53125 163.03125 160.03125 163.53125 158.5 163 L 152.5 167 L 141.5 169 L 58.5 169 L 48.5 167 C 43.570312 165.265625 39.734375 162.429688 37 158.5 L 32 147.5 L 32 53.5 L 37 42 C 38.796875 42.734375 39.46875 42.234375 39 40.5 L 42 39 C 41.265625 37.203125 41.765625 36.53125 43.5 37 L 51.5 33 C 55.164062 34 57.5 33.664062 58.5 32 Z M 52 42 L 49 44 C 45 46 42.335938 49.664062 41 55 L 41 147 L 45 155 L 52 159 L 149 159 L 154 156 L 159 149 L 159 53 L 156 48 L 149 42 Z M 52 42 " transform="matrix(0.5,0,0,0.5,0,0)"/>
<path style="fill-rule:nonzero;fill:rgb(100%,100%,100%);fill-opacity:1;stroke-width:1;stroke-linecap:butt;stroke-linejoin:miter;stroke:rgb(100%,100%,100%);stroke-opacity:1;stroke-miterlimit:4;" d="M 98.5 62 C 101.5 61.335938 103.335938 61.835938 104 63.5 L 102.5 63 C 99.164062 63.664062 97.835938 63.335938 98.5 62 Z M 98.5 62 " transform="matrix(0.5,0,0,0.5,0,0)"/>
<path style="fill-rule:nonzero;fill:rgb(100%,100%,100%);fill-opacity:1;stroke-width:1;stroke-linecap:butt;stroke-linejoin:miter;stroke:rgb(100%,100%,100%);stroke-opacity:1;stroke-miterlimit:4;" d="M 95.5 64 L 94.5 66 Z M 95.5 64 " transform="matrix(0.5,0,0,0.5,0,0)"/>
<path style="fill-rule:nonzero;fill:rgb(100%,100%,100%);fill-opacity:1;stroke-width:1;stroke-linecap:butt;stroke-linejoin:miter;stroke:rgb(100%,100%,100%);stroke-opacity:1;stroke-miterlimit:4;" d="M 87.5 68 L 89 77.5 L 88 77.5 C 86.398438 75.296875 86.234375 72.132812 87.5 68 Z M 87.5 68 " transform="matrix(0.5,0,0,0.5,0,0)"/>
<path style="fill-rule:nonzero;fill:rgb(100%,100%,100%);fill-opacity:1;stroke-width:1;stroke-linecap:butt;stroke-linejoin:miter;stroke:rgb(100%,100%,100%);stroke-opacity:1;stroke-miterlimit:4;" d="M 124.5 68 L 129 70.5 L 127.5 70 C 124.96875 69.867188 123.96875 69.203125 124.5 68 Z M 124.5 68 " transform="matrix(0.5,0,0,0.5,0,0)"/>
<path style="fill-rule:nonzero;fill:rgb(100%,100%,100%);fill-opacity:1;stroke-width:1;stroke-linecap:butt;stroke-linejoin:miter;stroke:rgb(100%,100%,100%);stroke-opacity:1;stroke-miterlimit:4;" d="M 73.5 69 L 72.5 71 Z M 73.5 69 " transform="matrix(0.5,0,0,0.5,0,0)"/>
<path style="fill-rule:nonzero;fill:rgb(100%,100%,100%);fill-opacity:1;stroke-width:1;stroke-linecap:butt;stroke-linejoin:miter;stroke:rgb(100%,100%,100%);stroke-opacity:1;stroke-miterlimit:4;" d="M 70.5 72 L 71 73.5 L 70 74.5 L 70 132.5 L 70.5 134 L 69 132.5 L 69 74.5 Z M 70.5 72 " transform="matrix(0.5,0,0,0.5,0,0)"/>
<path style="fill-rule:nonzero;fill:rgb(100%,100%,100%);fill-opacity:1;stroke-width:1;stroke-linecap:butt;stroke-linejoin:miter;stroke:rgb(100%,100%,100%);stroke-opacity:1;stroke-miterlimit:4;" d="M 129.5 72 C 131.5 71.398438 132 72.570312 131 75.5 L 132 76.5 L 132 130.5 L 129.5 135 L 130 133.5 L 131 129.5 L 131 76.5 Z M 129.5 72 " transform="matrix(0.5,0,0,0.5,0,0)"/>
<path style="fill-rule:nonzero;fill:rgb(100%,100%,100%);fill-opacity:1;stroke-width:1;stroke-linecap:butt;stroke-linejoin:miter;stroke:rgb(100%,100%,100%);stroke-opacity:1;stroke-miterlimit:4;" d="M 112.5 76 L 111.5 78 Z M 112.5 76 " transform="matrix(0.5,0,0,0.5,0,0)"/>
<path style="fill-rule:nonzero;fill:rgb(100%,100%,100%);fill-opacity:1;stroke-width:1;stroke-linecap:butt;stroke-linejoin:miter;stroke:rgb(100%,100%,100%);stroke-opacity:1;stroke-miterlimit:4;" d="M 91.5 78 L 110 78.5 L 91.5 79 Z M 91.5 78 " transform="matrix(0.5,0,0,0.5,0,0)"/>
<path style="fill-rule:nonzero;fill:rgb(100%,100%,100%);fill-opacity:1;stroke-width:1;stroke-linecap:butt;stroke-linejoin:miter;stroke:rgb(100%,100%,100%);stroke-opacity:1;stroke-miterlimit:4;" d="M 80.5 97 L 96 97.5 L 80.5 98 Z M 80.5 97 " transform="matrix(0.5,0,0,0.5,0,0)"/>
<path style="fill-rule:nonzero;fill:rgb(100%,100%,100%);fill-opacity:1;stroke-width:1;stroke-linecap:butt;stroke-linejoin:miter;stroke:rgb(100%,100%,100%);stroke-opacity:1;stroke-miterlimit:4;" d="M 104.5 97 L 120 97.5 L 104.5 98 Z M 104.5 97 " transform="matrix(0.5,0,0,0.5,0,0)"/>
<path style="fill-rule:nonzero;fill:rgb(100%,100%,100%);fill-opacity:1;stroke-width:1;stroke-linecap:butt;stroke-linejoin:miter;stroke:rgb(100%,100%,100%);stroke-opacity:1;stroke-miterlimit:4;" d="M 80.5 120 L 96 120.5 L 80.5 121 Z M 80.5 120 " transform="matrix(0.5,0,0,0.5,0,0)"/>
<path style="fill-rule:nonzero;fill:rgb(100%,100%,100%);fill-opacity:1;stroke-width:1;stroke-linecap:butt;stroke-linejoin:miter;stroke:rgb(100%,100%,100%);stroke-opacity:1;stroke-miterlimit:4;" d="M 104.5 120 L 121 120.5 L 104.5 121 Z M 104.5 120 " transform="matrix(0.5,0,0,0.5,0,0)"/>
<path style="fill-rule:nonzero;fill:rgb(100%,100%,100%);fill-opacity:1;stroke-width:1;stroke-linecap:butt;stroke-linejoin:miter;stroke:rgb(100%,100%,100%);stroke-opacity:1;stroke-miterlimit:4;" d="M 71.5 135 L 72.5 137 Z M 71.5 135 " transform="matrix(0.5,0,0,0.5,0,0)"/>
<path style="fill-rule:nonzero;fill:rgb(100%,100%,100%);fill-opacity:1;stroke-width:1;stroke-linecap:butt;stroke-linejoin:miter;stroke:rgb(100%,100%,100%);stroke-opacity:1;stroke-miterlimit:4;" d="M 127.5 136 L 126.5 138 L 124.5 139 L 76.5 139 L 74 137.5 L 75.5 137 L 76.5 138 L 124.5 138 Z M 127.5 136 " transform="matrix(0.5,0,0,0.5,0,0)"/>
<path style="fill-rule:nonzero;fill:rgb(2.745098%,7.058824%,16.470589%);fill-opacity:1;stroke-width:1;stroke-linecap:butt;stroke-linejoin:miter;stroke:rgb(2.745098%,7.058824%,16.470589%);stroke-opacity:1;stroke-miterlimit:4;" d="M 0 0 L 200 0 L 200 200 L 0 200 Z M 52 32 L 43 36 C 36.335938 40 32.335938 46.664062 31 56 L 31 146 L 36 159 C 39.335938 163.664062 44.664062 167 52 169 L 149 169 L 160 164 C 164.664062 160.664062 167.664062 155.664062 169 149 L 169 53 L 168 49 L 162 39 L 149 32 Z M 52 32 " transform="matrix(0.5,0,0,0.5,0,0)"/>
<path style="fill-rule:nonzero;fill:rgb(92.156863%,35.294119%,56.862748%);fill-opacity:1;stroke-width:1;stroke-linecap:butt;stroke-linejoin:miter;stroke:rgb(92.156863%,35.294119%,56.862748%);stroke-opacity:1;stroke-miterlimit:4;" d="M 42.5 36 L 40.5 39 Z M 42.5 36 " transform="matrix(0.5,0,0,0.5,0,0)"/>
<path style="fill-rule:nonzero;fill:rgb(92.156863%,35.294119%,56.862748%);fill-opacity:1;stroke-width:1;stroke-linecap:butt;stroke-linejoin:miter;stroke:rgb(92.156863%,35.294119%,56.862748%);stroke-opacity:1;stroke-miterlimit:4;" d="M 38.5 40 L 36.5 43 Z M 38.5 40 " transform="matrix(0.5,0,0,0.5,0,0)"/>
<path style="fill-rule:nonzero;fill:rgb(92.156863%,35.294119%,56.862748%);fill-opacity:1;stroke-width:1;stroke-linecap:butt;stroke-linejoin:miter;stroke:rgb(92.156863%,35.294119%,56.862748%);stroke-opacity:1;stroke-miterlimit:4;" d="M 54.5 42 L 145.5 42 L 155 47.5 L 159 55.5 L 159 145.5 L 153.5 155 L 145.5 159 L 54.5 159 C 49.234375 157.601562 45.398438 154.765625 43 150.5 L 42 147.5 L 42 53.5 L 48.5 45 Z M 100 61 L 96 63 L 93 67 L 76 67 L 74 68 L 68 76 L 68 132 L 70 136 L 75 139 L 79 140 L 123 140 L 127 139 L 132 134 L 132 74 L 131 72 L 125 67 L 109 67 L 107 65 Z M 100 61 " transform="matrix(0.5,0,0,0.5,0,0)"/>
<path style="fill-rule:nonzero;fill:rgb(92.156863%,35.294119%,56.862748%);fill-opacity:1;stroke-width:1;stroke-linecap:butt;stroke-linejoin:miter;stroke:rgb(92.156863%,35.294119%,56.862748%);stroke-opacity:1;stroke-miterlimit:4;" d="M 31.5 55 L 32 145.5 L 31 145.5 Z M 31.5 55 " transform="matrix(0.5,0,0,0.5,0,0)"/>
<path style="fill-rule:nonzero;fill:rgb(92.156863%,35.294119%,56.862748%);fill-opacity:1;stroke-width:1;stroke-linecap:butt;stroke-linejoin:miter;stroke:rgb(92.156863%,35.294119%,56.862748%);stroke-opacity:1;stroke-miterlimit:4;" d="M 97.5 64 C 101.835938 63.335938 104.664062 64.164062 106 66.5 L 107.5 69 L 112 69 L 112 75.5 L 110.5 77 L 89 77 L 89 69 L 93.5 69 Z M 97.5 64 " transform="matrix(0.5,0,0,0.5,0,0)"/>
<path style="fill-rule:nonzero;fill:rgb(92.156863%,35.294119%,56.862748%);fill-opacity:1;stroke-width:1;stroke-linecap:butt;stroke-linejoin:miter;stroke:rgb(92.156863%,35.294119%,56.862748%);stroke-opacity:1;stroke-miterlimit:4;" d="M 76.5 69 L 87 69 L 87 77.5 L 88.5 78 L 89.5 79 L 111.5 79 L 114 76.5 L 114 69 L 124.5 69 L 129 72.5 L 130 74.5 L 130 131.5 L 129 135 L 122.5 138 L 77.5 138 L 71 133.5 L 71 73.5 L 74.5 70 Z M 79 97 L 80 99 L 97 99 L 97 97 Z M 103 97 L 104 99 L 121 99 L 121 97 Z M 79 119 L 80 121 L 97 121 L 97 119 Z M 103 119 L 104 121 L 121 121 L 121 119 Z M 103 119 " transform="matrix(0.5,0,0,0.5,0,0)"/>
<path style="fill-rule:nonzero;fill:rgb(92.156863%,35.294119%,56.862748%);fill-opacity:1;stroke-width:1;stroke-linecap:butt;stroke-linejoin:miter;stroke:rgb(92.156863%,35.294119%,56.862748%);stroke-opacity:1;stroke-miterlimit:4;" d="M 163.5 159 L 159.5 164 Z M 163.5 159 " transform="matrix(0.5,0,0,0.5,0,0)"/>
<path style="fill-rule:nonzero;fill:rgb(92.156863%,35.294119%,56.862748%);fill-opacity:1;stroke-width:1;stroke-linecap:butt;stroke-linejoin:miter;stroke:rgb(92.156863%,35.294119%,56.862748%);stroke-opacity:1;stroke-miterlimit:4;" d="M 41.5 163 L 42.5 165 Z M 41.5 163 " transform="matrix(0.5,0,0,0.5,0,0)"/>
</g>
</svg>
