<svg width="600" height="600" version="1.1" xmlns="http://www.w3.org/2000/svg" desc="Created with imagetracer.js version 1.2.6" ><path fill="rgb(203,203,203)" stroke="rgb(203,203,203)" stroke-width="1" opacity="1" d="M 474.5 30 L 477 30.5 L 474.5 31 L 474.5 30 Z " /><path fill="rgb(203,203,203)" stroke="rgb(203,203,203)" stroke-width="1" opacity="1" d="M 490.5 30 L 493 30.5 L 490.5 31 L 490.5 30 Z " /><path fill="rgb(203,203,203)" stroke="rgb(203,203,203)" stroke-width="1" opacity="1" d="M 470.5 31 L 473 31.5 L 470.5 32 L 470.5 31 Z " /><path fill="rgb(203,203,203)" stroke="rgb(203,203,203)" stroke-width="1" opacity="1" d="M 467.5 32 L 469 32.5 L 460.5 37 L 461.5 35 L 467.5 32 Z " /><path fill="rgb(203,203,203)" stroke="rgb(203,203,203)" stroke-width="1" opacity="1" d="M 498.5 32 L 502 33.5 L 500.5 34 L 498.5 32 Z " /><path fill="rgb(203,203,203)" stroke="rgb(203,203,203)" stroke-width="1" opacity="1" d="M 505.5 35 L 506.5 37 L 505.5 35 Z " /><path fill="rgb(203,203,203)" stroke="rgb(203,203,203)" stroke-width="1" opacity="1" d="M 458.5 37 L 456.5 40 L 458.5 37 Z " /><path fill="rgb(203,203,203)" stroke="rgb(203,203,203)" stroke-width="1" opacity="1" d="M 508.5 37 L 509.5 39 L 508.5 37 Z " /><path fill="rgb(203,203,203)" stroke="rgb(203,203,203)" stroke-width="1" opacity="1" d="M 511.5 39 L 516.5 45 L 511.5 39 Z " /><path fill="rgb(203,203,203)" stroke="rgb(203,203,203)" stroke-width="1" opacity="1" d="M 453.5 41 L 41.5 454 L 453.5 41 Z " /><path fill="rgb(203,203,203)" stroke="rgb(203,203,203)" stroke-width="1" opacity="1" d="M 517.5 46 L 519.5 49 L 517.5 46 Z " /><path fill="rgb(203,203,203)" stroke="rgb(203,203,203)" stroke-width="1" opacity="1" d="M 520.5 50 L 524 56.5 L 523 56.5 L 520.5 50 Z " /><path fill="rgb(203,203,203)" stroke="rgb(203,203,203)" stroke-width="1" opacity="1" d="M 524.5 58 L 526 62.5 L 525 62.5 L 524.5 58 Z " /><path fill="rgb(203,203,203)" stroke="rgb(203,203,203)" stroke-width="1" opacity="1" d="M 526.5 64 L 527 68.5 L 526 68.5 L 526.5 64 Z " /><path fill="rgb(203,203,203)" stroke="rgb(203,203,203)" stroke-width="1" opacity="1" d="M 526.5 77 L 527 81.5 L 526 81.5 L 526.5 77 Z " /><path fill="rgb(203,203,203)" stroke="rgb(203,203,203)" stroke-width="1" opacity="1" d="M 525.5 83 L 526 85.5 L 525 85.5 L 525.5 83 Z " /><path fill="rgb(203,203,203)" stroke="rgb(203,203,203)" stroke-width="1" opacity="1" d="M 520.5 96 L 519.5 98 L 520.5 96 Z " /><path fill="rgb(203,203,203)" stroke="rgb(203,203,203)" stroke-width="1" opacity="1" d="M 518.5 99 L 99.5 519 L 518.5 99 Z " /><path fill="rgb(203,203,203)" stroke="rgb(203,203,203)" stroke-width="1" opacity="1" d="M 520.5 267 L 533 267.5 L 520.5 268 L 520.5 267 Z " /><path fill="rgb(203,203,203)" stroke="rgb(203,203,203)" stroke-width="1" opacity="1" d="M 515.5 268 L 518 268.5 L 515.5 269 L 515.5 268 Z " /><path fill="rgb(203,203,203)" stroke="rgb(203,203,203)" stroke-width="1" opacity="1" d="M 535.5 268 L 538 268.5 L 535.5 269 L 535.5 268 Z " /><path fill="rgb(203,203,203)" stroke="rgb(203,203,203)" stroke-width="1" opacity="1" d="M 507.5 271 L 509 271.5 L 506.5 273 L 507.5 271 Z " /><path fill="rgb(203,203,203)" stroke="rgb(203,203,203)" stroke-width="1" opacity="1" d="M 547.5 272 L 551 274.5 L 549.5 274 L 547.5 272 Z " /><path fill="rgb(203,203,203)" stroke="rgb(203,203,203)" stroke-width="1" opacity="1" d="M 504.5 273 L 503.5 275 L 500.5 277 L 502.5 274 L 504.5 273 Z " /><path fill="rgb(203,203,203)" stroke="rgb(203,203,203)" stroke-width="1" opacity="1" d="M 552.5 275 L 564 287.5 L 562 286.5 L 552.5 275 Z " /><path fill="rgb(203,203,203)" stroke="rgb(203,203,203)" stroke-width="1" opacity="1" d="M 498.5 277 L 277.5 499 L 498.5 277 Z " /><path fill="rgb(203,203,203)" stroke="rgb(203,203,203)" stroke-width="1" opacity="1" d="M 564.5 289 L 567 293.5 L 566 293.5 L 564.5 289 Z " /><path fill="rgb(203,203,203)" stroke="rgb(203,203,203)" stroke-width="1" opacity="1" d="M 567.5 295 L 569 299.5 L 568 299.5 L 567.5 295 Z " /><path fill="rgb(203,203,203)" stroke="rgb(203,203,203)" stroke-width="1" opacity="1" d="M 569.5 301 L 570 303.5 L 569 303.5 L 569.5 301 Z " /><path fill="rgb(203,203,203)" stroke="rgb(203,203,203)" stroke-width="1" opacity="1" d="M 569.5 317 L 570 320.5 L 569 320.5 L 569.5 317 Z " /><path fill="rgb(203,203,203)" stroke="rgb(203,203,203)" stroke-width="1" opacity="1" d="M 564.5 332 L 564 333.5 L 561.5 337 L 563 334.5 L 564.5 332 Z " /><path fill="rgb(203,203,203)" stroke="rgb(203,203,203)" stroke-width="1" opacity="1" d="M 560.5 338 L 338.5 561 L 560.5 338 Z " /><path fill="rgb(203,203,203)" stroke="rgb(203,203,203)" stroke-width="1" opacity="1" d="M 39.5 456 L 37.5 459 L 39.5 456 Z " /><path fill="rgb(203,203,203)" stroke="rgb(203,203,203)" stroke-width="1" opacity="1" d="M 36.5 460 L 36 461.5 L 32.5 469 L 32 467.5 L 36.5 460 Z " /><path fill="rgb(203,203,203)" stroke="rgb(203,203,203)" stroke-width="1" opacity="1" d="M 31.5 470 L 32 472.5 L 31 472.5 L 31.5 470 Z " /><path fill="rgb(203,203,203)" stroke="rgb(203,203,203)" stroke-width="1" opacity="1" d="M 30.5 474 L 31 476.5 L 30 476.5 L 30.5 474 Z " /><path fill="rgb(203,203,203)" stroke="rgb(203,203,203)" stroke-width="1" opacity="1" d="M 30.5 490 L 31 492.5 L 30 492.5 L 30.5 490 Z " /><path fill="rgb(203,203,203)" stroke="rgb(203,203,203)" stroke-width="1" opacity="1" d="M 32.5 498 L 34 501.5 L 33 501.5 L 32.5 498 Z " /><path fill="rgb(203,203,203)" stroke="rgb(203,203,203)" stroke-width="1" opacity="1" d="M 276.5 500 L 275 502.5 L 273.5 505 L 274 503.5 L 276.5 500 Z " /><path fill="rgb(203,203,203)" stroke="rgb(203,203,203)" stroke-width="1" opacity="1" d="M 35.5 505 L 36.5 507 L 35.5 505 Z " /><path fill="rgb(203,203,203)" stroke="rgb(203,203,203)" stroke-width="1" opacity="1" d="M 272.5 506 L 272 507.5 L 271.5 509 L 271 507.5 L 272.5 506 Z " /><path fill="rgb(203,203,203)" stroke="rgb(203,203,203)" stroke-width="1" opacity="1" d="M 37.5 508 L 38.5 510 L 37.5 508 Z " /><path fill="rgb(203,203,203)" stroke="rgb(203,203,203)" stroke-width="1" opacity="1" d="M 39.5 511 L 44.5 517 L 39.5 511 Z " /><path fill="rgb(203,203,203)" stroke="rgb(203,203,203)" stroke-width="1" opacity="1" d="M 268.5 515 L 269 517.5 L 268 517.5 L 268.5 515 Z " /><path fill="rgb(203,203,203)" stroke="rgb(203,203,203)" stroke-width="1" opacity="1" d="M 46.5 517 L 48.5 520 L 46.5 517 Z " /><path fill="rgb(203,203,203)" stroke="rgb(203,203,203)" stroke-width="1" opacity="1" d="M 97.5 519 L 96.5 521 L 97.5 519 Z " /><path fill="rgb(203,203,203)" stroke="rgb(203,203,203)" stroke-width="1" opacity="1" d="M 50.5 520 L 57 523.5 L 55.5 524 Q 50.9 522.8 50.5 520 Z " /><path fill="rgb(203,203,203)" stroke="rgb(203,203,203)" stroke-width="1" opacity="1" d="M 267.5 520 L 268 532.5 L 267 532.5 L 267.5 520 Z " /><path fill="rgb(203,203,203)" stroke="rgb(203,203,203)" stroke-width="1" opacity="1" d="M 58.5 524 L 63 525.5 L 60.5 526 L 58.5 524 Z " /><path fill="rgb(203,203,203)" stroke="rgb(203,203,203)" stroke-width="1" opacity="1" d="M 83.5 525 L 86 525.5 L 83.5 526 L 83.5 525 Z " /><path fill="rgb(203,203,203)" stroke="rgb(203,203,203)" stroke-width="1" opacity="1" d="M 64.5 526 L 69 526.5 L 64.5 527 L 64.5 526 Z " /><path fill="rgb(203,203,203)" stroke="rgb(203,203,203)" stroke-width="1" opacity="1" d="M 77.5 526 L 82 526.5 L 77.5 527 L 77.5 526 Z " /><path fill="rgb(203,203,203)" stroke="rgb(203,203,203)" stroke-width="1" opacity="1" d="M 268.5 535 L 269 537.5 L 268 537.5 L 268.5 535 Z " /><path fill="rgb(203,203,203)" stroke="rgb(203,203,203)" stroke-width="1" opacity="1" d="M 272.5 547 L 275 550.5 L 273 549.5 L 272.5 547 Z " /><path fill="rgb(203,203,203)" stroke="rgb(203,203,203)" stroke-width="1" opacity="1" d="M 275.5 552 L 288 563.5 L 286.5 563 L 275.5 552 Z " /><path fill="rgb(203,203,203)" stroke="rgb(203,203,203)" stroke-width="1" opacity="1" d="M 336.5 561 L 334.5 564 L 332.5 565 L 333.5 563 L 336.5 561 Z " /><path fill="rgb(203,203,203)" stroke="rgb(203,203,203)" stroke-width="1" opacity="1" d="M 289.5 564 L 294 566.5 L 292.5 567 L 289.5 564 Z " /><path fill="rgb(203,203,203)" stroke="rgb(203,203,203)" stroke-width="1" opacity="1" d="M 295.5 567 L 300 568.5 L 297.5 569 L 295.5 567 Z " /><path fill="rgb(203,203,203)" stroke="rgb(203,203,203)" stroke-width="1" opacity="1" d="M 301.5 569 L 304 569.5 L 301.5 570 L 301.5 569 Z " /><path fill="rgb(203,203,203)" stroke="rgb(203,203,203)" stroke-width="1" opacity="1" d="M 317.5 569 L 321 569.5 L 317.5 570 L 317.5 569 Z " /><path fill="rgb(255,255,255)" stroke="rgb(255,255,255)" stroke-width="1" opacity="1" d="M 0 0 L 600 0 L 600 600 L 0 600 L 0 0 Z M 475 30 Q 462 33 454 41 L 41 454 Q 33 462 30 475 L 30 493 Q 32 504 39 512 Q 48 523 65 527 L 82 527 Q 92 525 100 519 L 519 100 Q 525 92 527 82 Q 529 69 526 61 L 517 45 Q 510 36 500 32 Q 490 28 475 30 Z M 521 267 Q 507 269 499 277 L 277 499 Q 269 507 267 521 L 268 538 L 275 553 Q 284 566 302 570 L 321 570 L 339 561 L 561 339 L 570 321 L 570 302 L 563 286 Q 556 275 544 270 L 533 267 L 521 267 Z " /><path fill="rgb(0,0,0)" stroke="rgb(0,0,0)" stroke-width="1" opacity="1" d="M 477.5 30 L 489.5 30 L 497.5 32 Q 509.7 36.3 517 45.5 L 526 63.5 L 527 76.5 L 524 89.5 L 519 98.5 L 98.5 519 Q 88.2 527.2 69.5 527 L 57.5 524 L 49.5 520 L 39 510.5 L 31 494.5 L 30 477.5 L 32 469.5 L 40 455.5 L 455.5 40 L 469.5 32 L 477.5 30 Z " /><path fill="rgb(0,0,0)" stroke="rgb(0,0,0)" stroke-width="1" opacity="1" d="M 518.5 268 L 534.5 268 L 544.5 271 Q 555.4 276.1 562 285.5 L 569 300.5 L 570 316.5 Q 567.9 329.4 561 337.5 L 337.5 561 L 321.5 569 L 304.5 570 Q 284.8 565.7 275 551.5 Q 269.9 544.6 268 534.5 L 268 518.5 Q 270.5 507 277 499.5 L 499.5 277 Q 507 270.5 518.5 268 Z " /></svg>