<?xml version="1.0" encoding="UTF-8"?>
<svg xmlns="http://www.w3.org/2000/svg" xmlns:xlink="http://www.w3.org/1999/xlink" width="100px" height="100px" viewBox="0 0 100 100" version="1.1">
<g id="surface1">
<path style="fill-rule:nonzero;fill:rgb(79.607844%,79.607844%,79.607844%);fill-opacity:1;stroke-width:1;stroke-linecap:butt;stroke-linejoin:miter;stroke:rgb(79.607844%,79.607844%,79.607844%);stroke-opacity:1;stroke-miterlimit:4;" d="M 474.492188 30 L 477 30.492188 L 474.492188 31.007812 Z M 474.492188 30 " transform="matrix(0.166667,0,0,0.166667,0,0)"/>
<path style="fill-rule:nonzero;fill:rgb(79.607844%,79.607844%,79.607844%);fill-opacity:1;stroke-width:1;stroke-linecap:butt;stroke-linejoin:miter;stroke:rgb(79.607844%,79.607844%,79.607844%);stroke-opacity:1;stroke-miterlimit:4;" d="M 490.5 30 L 493.007812 30.492188 L 490.5 31.007812 Z M 490.5 30 " transform="matrix(0.166667,0,0,0.166667,0,0)"/>
<path style="fill-rule:nonzero;fill:rgb(79.607844%,79.607844%,79.607844%);fill-opacity:1;stroke-width:1;stroke-linecap:butt;stroke-linejoin:miter;stroke:rgb(79.607844%,79.607844%,79.607844%);stroke-opacity:1;stroke-miterlimit:4;" d="M 470.507812 31.007812 L 472.992188 31.5 L 470.507812 31.992188 Z M 470.507812 31.007812 " transform="matrix(0.166667,0,0,0.166667,0,0)"/>
<path style="fill-rule:nonzero;fill:rgb(79.607844%,79.607844%,79.607844%);fill-opacity:1;stroke-width:1;stroke-linecap:butt;stroke-linejoin:miter;stroke:rgb(79.607844%,79.607844%,79.607844%);stroke-opacity:1;stroke-miterlimit:4;" d="M 467.507812 31.992188 L 469.007812 32.507812 L 460.5 37.007812 L 461.507812 34.992188 Z M 467.507812 31.992188 " transform="matrix(0.166667,0,0,0.166667,0,0)"/>
<path style="fill-rule:nonzero;fill:rgb(79.607844%,79.607844%,79.607844%);fill-opacity:1;stroke-width:1;stroke-linecap:butt;stroke-linejoin:miter;stroke:rgb(79.607844%,79.607844%,79.607844%);stroke-opacity:1;stroke-miterlimit:4;" d="M 498.492188 31.992188 L 502.007812 33.492188 L 500.507812 34.007812 Z M 498.492188 31.992188 " transform="matrix(0.166667,0,0,0.166667,0,0)"/>
<path style="fill-rule:nonzero;fill:rgb(79.607844%,79.607844%,79.607844%);fill-opacity:1;stroke-width:1;stroke-linecap:butt;stroke-linejoin:miter;stroke:rgb(79.607844%,79.607844%,79.607844%);stroke-opacity:1;stroke-miterlimit:4;" d="M 505.5 34.992188 L 506.507812 37.007812 Z M 505.5 34.992188 " transform="matrix(0.166667,0,0,0.166667,0,0)"/>
<path style="fill-rule:nonzero;fill:rgb(79.607844%,79.607844%,79.607844%);fill-opacity:1;stroke-width:1;stroke-linecap:butt;stroke-linejoin:miter;stroke:rgb(79.607844%,79.607844%,79.607844%);stroke-opacity:1;stroke-miterlimit:4;" d="M 458.507812 37.007812 L 456.492188 40.007812 Z M 458.507812 37.007812 " transform="matrix(0.166667,0,0,0.166667,0,0)"/>
<path style="fill-rule:nonzero;fill:rgb(79.607844%,79.607844%,79.607844%);fill-opacity:1;stroke-width:1;stroke-linecap:butt;stroke-linejoin:miter;stroke:rgb(79.607844%,79.607844%,79.607844%);stroke-opacity:1;stroke-miterlimit:4;" d="M 508.5 37.007812 L 509.507812 39 Z M 508.5 37.007812 " transform="matrix(0.166667,0,0,0.166667,0,0)"/>
<path style="fill-rule:nonzero;fill:rgb(79.607844%,79.607844%,79.607844%);fill-opacity:1;stroke-width:1;stroke-linecap:butt;stroke-linejoin:miter;stroke:rgb(79.607844%,79.607844%,79.607844%);stroke-opacity:1;stroke-miterlimit:4;" d="M 511.5 39 L 516.492188 45 Z M 511.5 39 " transform="matrix(0.166667,0,0,0.166667,0,0)"/>
<path style="fill-rule:nonzero;fill:rgb(79.607844%,79.607844%,79.607844%);fill-opacity:1;stroke-width:1;stroke-linecap:butt;stroke-linejoin:miter;stroke:rgb(79.607844%,79.607844%,79.607844%);stroke-opacity:1;stroke-miterlimit:4;" d="M 453.492188 40.992188 L 41.507812 454.007812 Z M 453.492188 40.992188 " transform="matrix(0.166667,0,0,0.166667,0,0)"/>
<path style="fill-rule:nonzero;fill:rgb(79.607844%,79.607844%,79.607844%);fill-opacity:1;stroke-width:1;stroke-linecap:butt;stroke-linejoin:miter;stroke:rgb(79.607844%,79.607844%,79.607844%);stroke-opacity:1;stroke-miterlimit:4;" d="M 517.5 46.007812 L 519.492188 49.007812 Z M 517.5 46.007812 " transform="matrix(0.166667,0,0,0.166667,0,0)"/>
<path style="fill-rule:nonzero;fill:rgb(79.607844%,79.607844%,79.607844%);fill-opacity:1;stroke-width:1;stroke-linecap:butt;stroke-linejoin:miter;stroke:rgb(79.607844%,79.607844%,79.607844%);stroke-opacity:1;stroke-miterlimit:4;" d="M 520.5 49.992188 L 523.992188 56.507812 L 523.007812 56.507812 Z M 520.5 49.992188 " transform="matrix(0.166667,0,0,0.166667,0,0)"/>
<path style="fill-rule:nonzero;fill:rgb(79.607844%,79.607844%,79.607844%);fill-opacity:1;stroke-width:1;stroke-linecap:butt;stroke-linejoin:miter;stroke:rgb(79.607844%,79.607844%,79.607844%);stroke-opacity:1;stroke-miterlimit:4;" d="M 524.507812 58.007812 L 526.007812 62.507812 L 525 62.507812 Z M 524.507812 58.007812 " transform="matrix(0.166667,0,0,0.166667,0,0)"/>
<path style="fill-rule:nonzero;fill:rgb(79.607844%,79.607844%,79.607844%);fill-opacity:1;stroke-width:1;stroke-linecap:butt;stroke-linejoin:miter;stroke:rgb(79.607844%,79.607844%,79.607844%);stroke-opacity:1;stroke-miterlimit:4;" d="M 526.5 64.007812 L 526.992188 68.507812 L 526.007812 68.507812 Z M 526.5 64.007812 " transform="matrix(0.166667,0,0,0.166667,0,0)"/>
<path style="fill-rule:nonzero;fill:rgb(79.607844%,79.607844%,79.607844%);fill-opacity:1;stroke-width:1;stroke-linecap:butt;stroke-linejoin:miter;stroke:rgb(79.607844%,79.607844%,79.607844%);stroke-opacity:1;stroke-miterlimit:4;" d="M 526.5 76.992188 L 526.992188 81.492188 L 526.007812 81.492188 Z M 526.5 76.992188 " transform="matrix(0.166667,0,0,0.166667,0,0)"/>
<path style="fill-rule:nonzero;fill:rgb(79.607844%,79.607844%,79.607844%);fill-opacity:1;stroke-width:1;stroke-linecap:butt;stroke-linejoin:miter;stroke:rgb(79.607844%,79.607844%,79.607844%);stroke-opacity:1;stroke-miterlimit:4;" d="M 525.492188 82.992188 L 526.007812 85.5 L 525 85.5 Z M 525.492188 82.992188 " transform="matrix(0.166667,0,0,0.166667,0,0)"/>
<path style="fill-rule:nonzero;fill:rgb(79.607844%,79.607844%,79.607844%);fill-opacity:1;stroke-width:1;stroke-linecap:butt;stroke-linejoin:miter;stroke:rgb(79.607844%,79.607844%,79.607844%);stroke-opacity:1;stroke-miterlimit:4;" d="M 520.5 96 L 519.492188 97.992188 Z M 520.5 96 " transform="matrix(0.166667,0,0,0.166667,0,0)"/>
<path style="fill-rule:nonzero;fill:rgb(79.607844%,79.607844%,79.607844%);fill-opacity:1;stroke-width:1;stroke-linecap:butt;stroke-linejoin:miter;stroke:rgb(79.607844%,79.607844%,79.607844%);stroke-opacity:1;stroke-miterlimit:4;" d="M 518.507812 99 L 99.492188 519 Z M 518.507812 99 " transform="matrix(0.166667,0,0,0.166667,0,0)"/>
<path style="fill-rule:nonzero;fill:rgb(79.607844%,79.607844%,79.607844%);fill-opacity:1;stroke-width:1;stroke-linecap:butt;stroke-linejoin:miter;stroke:rgb(79.607844%,79.607844%,79.607844%);stroke-opacity:1;stroke-miterlimit:4;" d="M 520.5 267 L 532.992188 267.492188 L 520.5 268.007812 Z M 520.5 267 " transform="matrix(0.166667,0,0,0.166667,0,0)"/>
<path style="fill-rule:nonzero;fill:rgb(79.607844%,79.607844%,79.607844%);fill-opacity:1;stroke-width:1;stroke-linecap:butt;stroke-linejoin:miter;stroke:rgb(79.607844%,79.607844%,79.607844%);stroke-opacity:1;stroke-miterlimit:4;" d="M 515.507812 268.007812 L 517.992188 268.5 L 515.507812 268.992188 Z M 515.507812 268.007812 " transform="matrix(0.166667,0,0,0.166667,0,0)"/>
<path style="fill-rule:nonzero;fill:rgb(79.607844%,79.607844%,79.607844%);fill-opacity:1;stroke-width:1;stroke-linecap:butt;stroke-linejoin:miter;stroke:rgb(79.607844%,79.607844%,79.607844%);stroke-opacity:1;stroke-miterlimit:4;" d="M 535.5 268.007812 L 538.007812 268.5 L 535.5 268.992188 Z M 535.5 268.007812 " transform="matrix(0.166667,0,0,0.166667,0,0)"/>
<path style="fill-rule:nonzero;fill:rgb(79.607844%,79.607844%,79.607844%);fill-opacity:1;stroke-width:1;stroke-linecap:butt;stroke-linejoin:miter;stroke:rgb(79.607844%,79.607844%,79.607844%);stroke-opacity:1;stroke-miterlimit:4;" d="M 507.492188 271.007812 L 508.992188 271.5 L 506.507812 273 Z M 507.492188 271.007812 " transform="matrix(0.166667,0,0,0.166667,0,0)"/>
<path style="fill-rule:nonzero;fill:rgb(79.607844%,79.607844%,79.607844%);fill-opacity:1;stroke-width:1;stroke-linecap:butt;stroke-linejoin:miter;stroke:rgb(79.607844%,79.607844%,79.607844%);stroke-opacity:1;stroke-miterlimit:4;" d="M 547.5 271.992188 L 550.992188 274.5 L 549.492188 274.007812 Z M 547.5 271.992188 " transform="matrix(0.166667,0,0,0.166667,0,0)"/>
<path style="fill-rule:nonzero;fill:rgb(79.607844%,79.607844%,79.607844%);fill-opacity:1;stroke-width:1;stroke-linecap:butt;stroke-linejoin:miter;stroke:rgb(79.607844%,79.607844%,79.607844%);stroke-opacity:1;stroke-miterlimit:4;" d="M 504.492188 273 L 503.507812 274.992188 L 500.507812 277.007812 L 502.5 274.007812 Z M 504.492188 273 " transform="matrix(0.166667,0,0,0.166667,0,0)"/>
<path style="fill-rule:nonzero;fill:rgb(79.607844%,79.607844%,79.607844%);fill-opacity:1;stroke-width:1;stroke-linecap:butt;stroke-linejoin:miter;stroke:rgb(79.607844%,79.607844%,79.607844%);stroke-opacity:1;stroke-miterlimit:4;" d="M 552.492188 274.992188 L 564 287.507812 L 562.007812 286.5 Z M 552.492188 274.992188 " transform="matrix(0.166667,0,0,0.166667,0,0)"/>
<path style="fill-rule:nonzero;fill:rgb(79.607844%,79.607844%,79.607844%);fill-opacity:1;stroke-width:1;stroke-linecap:butt;stroke-linejoin:miter;stroke:rgb(79.607844%,79.607844%,79.607844%);stroke-opacity:1;stroke-miterlimit:4;" d="M 498.492188 277.007812 L 277.5 499.007812 Z M 498.492188 277.007812 " transform="matrix(0.166667,0,0,0.166667,0,0)"/>
<path style="fill-rule:nonzero;fill:rgb(79.607844%,79.607844%,79.607844%);fill-opacity:1;stroke-width:1;stroke-linecap:butt;stroke-linejoin:miter;stroke:rgb(79.607844%,79.607844%,79.607844%);stroke-opacity:1;stroke-miterlimit:4;" d="M 564.492188 289.007812 L 567 293.507812 L 565.992188 293.507812 Z M 564.492188 289.007812 " transform="matrix(0.166667,0,0,0.166667,0,0)"/>
<path style="fill-rule:nonzero;fill:rgb(79.607844%,79.607844%,79.607844%);fill-opacity:1;stroke-width:1;stroke-linecap:butt;stroke-linejoin:miter;stroke:rgb(79.607844%,79.607844%,79.607844%);stroke-opacity:1;stroke-miterlimit:4;" d="M 567.492188 295.007812 L 568.992188 299.507812 L 568.007812 299.507812 Z M 567.492188 295.007812 " transform="matrix(0.166667,0,0,0.166667,0,0)"/>
<path style="fill-rule:nonzero;fill:rgb(79.607844%,79.607844%,79.607844%);fill-opacity:1;stroke-width:1;stroke-linecap:butt;stroke-linejoin:miter;stroke:rgb(79.607844%,79.607844%,79.607844%);stroke-opacity:1;stroke-miterlimit:4;" d="M 569.507812 301.007812 L 570 303.492188 L 568.992188 303.492188 Z M 569.507812 301.007812 " transform="matrix(0.166667,0,0,0.166667,0,0)"/>
<path style="fill-rule:nonzero;fill:rgb(79.607844%,79.607844%,79.607844%);fill-opacity:1;stroke-width:1;stroke-linecap:butt;stroke-linejoin:miter;stroke:rgb(79.607844%,79.607844%,79.607844%);stroke-opacity:1;stroke-miterlimit:4;" d="M 569.507812 316.992188 L 570 320.507812 L 568.992188 320.507812 Z M 569.507812 316.992188 " transform="matrix(0.166667,0,0,0.166667,0,0)"/>
<path style="fill-rule:nonzero;fill:rgb(79.607844%,79.607844%,79.607844%);fill-opacity:1;stroke-width:1;stroke-linecap:butt;stroke-linejoin:miter;stroke:rgb(79.607844%,79.607844%,79.607844%);stroke-opacity:1;stroke-miterlimit:4;" d="M 564.492188 331.992188 L 564 333.492188 L 561.492188 337.007812 Z M 564.492188 331.992188 " transform="matrix(0.166667,0,0,0.166667,0,0)"/>
<path style="fill-rule:nonzero;fill:rgb(79.607844%,79.607844%,79.607844%);fill-opacity:1;stroke-width:1;stroke-linecap:butt;stroke-linejoin:miter;stroke:rgb(79.607844%,79.607844%,79.607844%);stroke-opacity:1;stroke-miterlimit:4;" d="M 560.507812 337.992188 L 338.507812 561 Z M 560.507812 337.992188 " transform="matrix(0.166667,0,0,0.166667,0,0)"/>
<path style="fill-rule:nonzero;fill:rgb(79.607844%,79.607844%,79.607844%);fill-opacity:1;stroke-width:1;stroke-linecap:butt;stroke-linejoin:miter;stroke:rgb(79.607844%,79.607844%,79.607844%);stroke-opacity:1;stroke-miterlimit:4;" d="M 39.492188 456 L 37.5 459 Z M 39.492188 456 " transform="matrix(0.166667,0,0,0.166667,0,0)"/>
<path style="fill-rule:nonzero;fill:rgb(79.607844%,79.607844%,79.607844%);fill-opacity:1;stroke-width:1;stroke-linecap:butt;stroke-linejoin:miter;stroke:rgb(79.607844%,79.607844%,79.607844%);stroke-opacity:1;stroke-miterlimit:4;" d="M 36.492188 460.007812 L 36 461.507812 L 32.507812 469.007812 L 31.992188 467.507812 Z M 36.492188 460.007812 " transform="matrix(0.166667,0,0,0.166667,0,0)"/>
<path style="fill-rule:nonzero;fill:rgb(79.607844%,79.607844%,79.607844%);fill-opacity:1;stroke-width:1;stroke-linecap:butt;stroke-linejoin:miter;stroke:rgb(79.607844%,79.607844%,79.607844%);stroke-opacity:1;stroke-miterlimit:4;" d="M 31.5 469.992188 L 31.992188 472.5 L 31.007812 472.5 Z M 31.5 469.992188 " transform="matrix(0.166667,0,0,0.166667,0,0)"/>
<path style="fill-rule:nonzero;fill:rgb(79.607844%,79.607844%,79.607844%);fill-opacity:1;stroke-width:1;stroke-linecap:butt;stroke-linejoin:miter;stroke:rgb(79.607844%,79.607844%,79.607844%);stroke-opacity:1;stroke-miterlimit:4;" d="M 30.492188 474 L 31.007812 476.507812 L 30 476.507812 Z M 30.492188 474 " transform="matrix(0.166667,0,0,0.166667,0,0)"/>
<path style="fill-rule:nonzero;fill:rgb(79.607844%,79.607844%,79.607844%);fill-opacity:1;stroke-width:1;stroke-linecap:butt;stroke-linejoin:miter;stroke:rgb(79.607844%,79.607844%,79.607844%);stroke-opacity:1;stroke-miterlimit:4;" d="M 30.492188 490.007812 L 31.007812 492.492188 L 30 492.492188 Z M 30.492188 490.007812 " transform="matrix(0.166667,0,0,0.166667,0,0)"/>
<path style="fill-rule:nonzero;fill:rgb(79.607844%,79.607844%,79.607844%);fill-opacity:1;stroke-width:1;stroke-linecap:butt;stroke-linejoin:miter;stroke:rgb(79.607844%,79.607844%,79.607844%);stroke-opacity:1;stroke-miterlimit:4;" d="M 32.507812 498 L 34.007812 501.492188 L 33 501.492188 Z M 32.507812 498 " transform="matrix(0.166667,0,0,0.166667,0,0)"/>
<path style="fill-rule:nonzero;fill:rgb(79.607844%,79.607844%,79.607844%);fill-opacity:1;stroke-width:1;stroke-linecap:butt;stroke-linejoin:miter;stroke:rgb(79.607844%,79.607844%,79.607844%);stroke-opacity:1;stroke-miterlimit:4;" d="M 276.492188 499.992188 L 273.492188 505.007812 L 274.007812 503.507812 Z M 276.492188 499.992188 " transform="matrix(0.166667,0,0,0.166667,0,0)"/>
<path style="fill-rule:nonzero;fill:rgb(79.607844%,79.607844%,79.607844%);fill-opacity:1;stroke-width:1;stroke-linecap:butt;stroke-linejoin:miter;stroke:rgb(79.607844%,79.607844%,79.607844%);stroke-opacity:1;stroke-miterlimit:4;" d="M 35.507812 505.007812 L 36.492188 507 Z M 35.507812 505.007812 " transform="matrix(0.166667,0,0,0.166667,0,0)"/>
<path style="fill-rule:nonzero;fill:rgb(79.607844%,79.607844%,79.607844%);fill-opacity:1;stroke-width:1;stroke-linecap:butt;stroke-linejoin:miter;stroke:rgb(79.607844%,79.607844%,79.607844%);stroke-opacity:1;stroke-miterlimit:4;" d="M 272.507812 505.992188 L 271.992188 507.492188 L 271.5 508.992188 L 271.007812 507.492188 Z M 272.507812 505.992188 " transform="matrix(0.166667,0,0,0.166667,0,0)"/>
<path style="fill-rule:nonzero;fill:rgb(79.607844%,79.607844%,79.607844%);fill-opacity:1;stroke-width:1;stroke-linecap:butt;stroke-linejoin:miter;stroke:rgb(79.607844%,79.607844%,79.607844%);stroke-opacity:1;stroke-miterlimit:4;" d="M 37.5 508.007812 L 38.507812 510 Z M 37.5 508.007812 " transform="matrix(0.166667,0,0,0.166667,0,0)"/>
<path style="fill-rule:nonzero;fill:rgb(79.607844%,79.607844%,79.607844%);fill-opacity:1;stroke-width:1;stroke-linecap:butt;stroke-linejoin:miter;stroke:rgb(79.607844%,79.607844%,79.607844%);stroke-opacity:1;stroke-miterlimit:4;" d="M 39.492188 511.007812 L 44.507812 517.007812 Z M 39.492188 511.007812 " transform="matrix(0.166667,0,0,0.166667,0,0)"/>
<path style="fill-rule:nonzero;fill:rgb(79.607844%,79.607844%,79.607844%);fill-opacity:1;stroke-width:1;stroke-linecap:butt;stroke-linejoin:miter;stroke:rgb(79.607844%,79.607844%,79.607844%);stroke-opacity:1;stroke-miterlimit:4;" d="M 268.5 514.992188 L 268.992188 517.5 L 268.007812 517.5 Z M 268.5 514.992188 " transform="matrix(0.166667,0,0,0.166667,0,0)"/>
<path style="fill-rule:nonzero;fill:rgb(79.607844%,79.607844%,79.607844%);fill-opacity:1;stroke-width:1;stroke-linecap:butt;stroke-linejoin:miter;stroke:rgb(79.607844%,79.607844%,79.607844%);stroke-opacity:1;stroke-miterlimit:4;" d="M 46.5 517.007812 L 48.492188 520.007812 Z M 46.5 517.007812 " transform="matrix(0.166667,0,0,0.166667,0,0)"/>
<path style="fill-rule:nonzero;fill:rgb(79.607844%,79.607844%,79.607844%);fill-opacity:1;stroke-width:1;stroke-linecap:butt;stroke-linejoin:miter;stroke:rgb(79.607844%,79.607844%,79.607844%);stroke-opacity:1;stroke-miterlimit:4;" d="M 97.5 519 L 96.492188 520.992188 Z M 97.5 519 " transform="matrix(0.166667,0,0,0.166667,0,0)"/>
<path style="fill-rule:nonzero;fill:rgb(79.607844%,79.607844%,79.607844%);fill-opacity:1;stroke-width:1;stroke-linecap:butt;stroke-linejoin:miter;stroke:rgb(79.607844%,79.607844%,79.607844%);stroke-opacity:1;stroke-miterlimit:4;" d="M 50.507812 520.007812 L 57 523.5 L 55.5 523.992188 C 52.429688 523.195312 50.765625 521.859375 50.507812 520.007812 Z M 50.507812 520.007812 " transform="matrix(0.166667,0,0,0.166667,0,0)"/>
<path style="fill-rule:nonzero;fill:rgb(79.607844%,79.607844%,79.607844%);fill-opacity:1;stroke-width:1;stroke-linecap:butt;stroke-linejoin:miter;stroke:rgb(79.607844%,79.607844%,79.607844%);stroke-opacity:1;stroke-miterlimit:4;" d="M 267.492188 520.007812 L 268.007812 532.5 L 267 532.5 Z M 267.492188 520.007812 " transform="matrix(0.166667,0,0,0.166667,0,0)"/>
<path style="fill-rule:nonzero;fill:rgb(79.607844%,79.607844%,79.607844%);fill-opacity:1;stroke-width:1;stroke-linecap:butt;stroke-linejoin:miter;stroke:rgb(79.607844%,79.607844%,79.607844%);stroke-opacity:1;stroke-miterlimit:4;" d="M 58.5 523.992188 L 63 525.492188 L 60.492188 526.007812 Z M 58.5 523.992188 " transform="matrix(0.166667,0,0,0.166667,0,0)"/>
<path style="fill-rule:nonzero;fill:rgb(79.607844%,79.607844%,79.607844%);fill-opacity:1;stroke-width:1;stroke-linecap:butt;stroke-linejoin:miter;stroke:rgb(79.607844%,79.607844%,79.607844%);stroke-opacity:1;stroke-miterlimit:4;" d="M 83.507812 525 L 85.992188 525.492188 L 83.507812 526.007812 Z M 83.507812 525 " transform="matrix(0.166667,0,0,0.166667,0,0)"/>
<path style="fill-rule:nonzero;fill:rgb(79.607844%,79.607844%,79.607844%);fill-opacity:1;stroke-width:1;stroke-linecap:butt;stroke-linejoin:miter;stroke:rgb(79.607844%,79.607844%,79.607844%);stroke-opacity:1;stroke-miterlimit:4;" d="M 64.5 526.007812 L 69 526.5 L 64.5 526.992188 Z M 64.5 526.007812 " transform="matrix(0.166667,0,0,0.166667,0,0)"/>
<path style="fill-rule:nonzero;fill:rgb(79.607844%,79.607844%,79.607844%);fill-opacity:1;stroke-width:1;stroke-linecap:butt;stroke-linejoin:miter;stroke:rgb(79.607844%,79.607844%,79.607844%);stroke-opacity:1;stroke-miterlimit:4;" d="M 77.507812 526.007812 L 82.007812 526.5 L 77.507812 526.992188 Z M 77.507812 526.007812 " transform="matrix(0.166667,0,0,0.166667,0,0)"/>
<path style="fill-rule:nonzero;fill:rgb(79.607844%,79.607844%,79.607844%);fill-opacity:1;stroke-width:1;stroke-linecap:butt;stroke-linejoin:miter;stroke:rgb(79.607844%,79.607844%,79.607844%);stroke-opacity:1;stroke-miterlimit:4;" d="M 268.5 535.007812 L 268.992188 537.492188 L 268.007812 537.492188 Z M 268.5 535.007812 " transform="matrix(0.166667,0,0,0.166667,0,0)"/>
<path style="fill-rule:nonzero;fill:rgb(79.607844%,79.607844%,79.607844%);fill-opacity:1;stroke-width:1;stroke-linecap:butt;stroke-linejoin:miter;stroke:rgb(79.607844%,79.607844%,79.607844%);stroke-opacity:1;stroke-miterlimit:4;" d="M 272.507812 547.007812 L 274.992188 550.5 L 273 549.492188 Z M 272.507812 547.007812 " transform="matrix(0.166667,0,0,0.166667,0,0)"/>
<path style="fill-rule:nonzero;fill:rgb(79.607844%,79.607844%,79.607844%);fill-opacity:1;stroke-width:1;stroke-linecap:butt;stroke-linejoin:miter;stroke:rgb(79.607844%,79.607844%,79.607844%);stroke-opacity:1;stroke-miterlimit:4;" d="M 275.507812 552 L 288 563.507812 L 286.5 562.992188 Z M 275.507812 552 " transform="matrix(0.166667,0,0,0.166667,0,0)"/>
<path style="fill-rule:nonzero;fill:rgb(79.607844%,79.607844%,79.607844%);fill-opacity:1;stroke-width:1;stroke-linecap:butt;stroke-linejoin:miter;stroke:rgb(79.607844%,79.607844%,79.607844%);stroke-opacity:1;stroke-miterlimit:4;" d="M 336.492188 561 L 334.5 564 L 332.507812 565.007812 L 333.492188 562.992188 Z M 336.492188 561 " transform="matrix(0.166667,0,0,0.166667,0,0)"/>
<path style="fill-rule:nonzero;fill:rgb(79.607844%,79.607844%,79.607844%);fill-opacity:1;stroke-width:1;stroke-linecap:butt;stroke-linejoin:miter;stroke:rgb(79.607844%,79.607844%,79.607844%);stroke-opacity:1;stroke-miterlimit:4;" d="M 289.5 564 L 294 566.507812 L 292.5 567 Z M 289.5 564 " transform="matrix(0.166667,0,0,0.166667,0,0)"/>
<path style="fill-rule:nonzero;fill:rgb(79.607844%,79.607844%,79.607844%);fill-opacity:1;stroke-width:1;stroke-linecap:butt;stroke-linejoin:miter;stroke:rgb(79.607844%,79.607844%,79.607844%);stroke-opacity:1;stroke-miterlimit:4;" d="M 295.5 567 L 300 568.5 L 297.492188 568.992188 Z M 295.5 567 " transform="matrix(0.166667,0,0,0.166667,0,0)"/>
<path style="fill-rule:nonzero;fill:rgb(79.607844%,79.607844%,79.607844%);fill-opacity:1;stroke-width:1;stroke-linecap:butt;stroke-linejoin:miter;stroke:rgb(79.607844%,79.607844%,79.607844%);stroke-opacity:1;stroke-miterlimit:4;" d="M 301.5 568.992188 L 304.007812 569.507812 L 301.5 570 Z M 301.5 568.992188 " transform="matrix(0.166667,0,0,0.166667,0,0)"/>
<path style="fill-rule:nonzero;fill:rgb(79.607844%,79.607844%,79.607844%);fill-opacity:1;stroke-width:1;stroke-linecap:butt;stroke-linejoin:miter;stroke:rgb(79.607844%,79.607844%,79.607844%);stroke-opacity:1;stroke-miterlimit:4;" d="M 317.507812 568.992188 L 321 569.507812 L 317.507812 570 Z M 317.507812 568.992188 " transform="matrix(0.166667,0,0,0.166667,0,0)"/>
<path style="fill-rule:nonzero;fill:rgb(100%,100%,100%);fill-opacity:1;stroke-width:1;stroke-linecap:butt;stroke-linejoin:miter;stroke:rgb(100%,100%,100%);stroke-opacity:1;stroke-miterlimit:4;" d="M 0 0 L 600 0 L 600 600 L 0 600 Z M 475.007812 30 C 466.335938 31.992188 459.328125 35.671875 454.007812 40.992188 L 40.992188 454.007812 C 35.671875 459.328125 31.992188 466.335938 30 475.007812 L 30 493.007812 C 31.335938 500.34375 34.335938 506.671875 39 511.992188 C 45 519.328125 53.671875 524.34375 64.992188 526.992188 L 82.007812 526.992188 C 88.664062 525.65625 94.664062 523.007812 100.007812 519 L 519 100.007812 C 523.007812 94.664062 525.65625 88.664062 526.992188 82.007812 C 528.328125 73.335938 528 66.328125 526.007812 61.007812 L 517.007812 45 C 512.34375 39 506.671875 34.664062 499.992188 31.992188 C 493.335938 29.34375 484.992188 28.664062 475.007812 30 Z M 520.992188 267 C 511.664062 268.335938 504.328125 271.664062 499.007812 277.007812 L 277.007812 499.007812 C 271.664062 504.328125 268.335938 511.664062 267 520.992188 L 268.007812 538.007812 L 274.992188 553.007812 C 280.992188 561.65625 289.992188 567.328125 301.992188 570 L 321 570 L 339 561 L 561 339 L 570 321 L 570 301.992188 L 562.992188 286.007812 C 558.328125 278.671875 552 273.328125 544.007812 270 L 532.992188 267 Z M 520.992188 267 " transform="matrix(0.166667,0,0,0.166667,0,0)"/>
<path style="fill-rule:nonzero;fill:rgb(0%,0%,0%);fill-opacity:1;stroke-width:1;stroke-linecap:butt;stroke-linejoin:miter;stroke:rgb(0%,0%,0%);stroke-opacity:1;stroke-miterlimit:4;" d="M 477.492188 30 L 489.492188 30 L 497.507812 31.992188 C 505.640625 34.875 512.132812 39.375 517.007812 45.492188 L 526.007812 63.492188 L 526.992188 76.5 L 523.992188 89.507812 L 519 98.507812 L 98.507812 519 C 91.640625 524.460938 81.960938 527.132812 69.492188 526.992188 L 57.492188 523.992188 L 49.5 520.007812 L 39 510.492188 L 31.007812 494.507812 L 30 477.492188 L 31.992188 469.5 L 40.007812 455.507812 L 455.507812 40.007812 L 469.5 31.992188 Z M 477.492188 30 " transform="matrix(0.166667,0,0,0.166667,0,0)"/>
<path style="fill-rule:nonzero;fill:rgb(0%,0%,0%);fill-opacity:1;stroke-width:1;stroke-linecap:butt;stroke-linejoin:miter;stroke:rgb(0%,0%,0%);stroke-opacity:1;stroke-miterlimit:4;" d="M 518.507812 268.007812 L 534.492188 268.007812 L 544.5 271.007812 C 551.765625 274.40625 557.601562 279.234375 562.007812 285.492188 L 568.992188 300.492188 L 570 316.5 C 568.59375 325.101562 565.59375 332.109375 561 337.5 L 337.5 561 L 321.492188 568.992188 L 304.5 570 C 291.375 567.140625 281.53125 560.976562 274.992188 551.507812 C 271.59375 546.890625 269.273438 541.242188 268.007812 534.492188 L 268.007812 518.507812 C 269.671875 510.84375 272.671875 504.492188 277.007812 499.5 L 499.5 277.007812 C 504.492188 272.671875 510.84375 269.671875 518.507812 268.007812 Z M 518.507812 268.007812 " transform="matrix(0.166667,0,0,0.166667,0,0)"/>
</g>
</svg>
