<?xml version="1.0" encoding="UTF-8"?>
<svg xmlns="http://www.w3.org/2000/svg" xmlns:xlink="http://www.w3.org/1999/xlink" width="100px" height="100px" viewBox="0 0 100 100" version="1.1">
<defs>
<filter id="alpha" filterUnits="objectBoundingBox" x="0%" y="0%" width="100%" height="100%">
  <feColorMatrix type="matrix" in="SourceGraphic" values="0 0 0 0 1 0 0 0 0 1 0 0 0 0 1 0 0 0 1 0"/>
</filter>
<mask id="mask0">
  <g filter="url(#alpha)">
<rect x="0" y="0" width="100" height="100" style="fill:rgb(0%,0%,0%);fill-opacity:0.0235294;stroke:none;"/>
  </g>
</mask>
<clipPath id="clip1">
  <rect x="0" y="0" width="100" height="100"/>
</clipPath>
<g id="surface5" clip-path="url(#clip1)">
<path style="fill-rule:nonzero;fill:rgb(0.784314%,2.352941%,4.705882%);fill-opacity:1;stroke-width:1;stroke-linecap:butt;stroke-linejoin:miter;stroke:rgb(0.784314%,2.352941%,4.705882%);stroke-opacity:1;stroke-miterlimit:4;" d="M 0 0 L 66 0.5 C 46.53125 3.6875 31.53125 11.375 21 23.5 C 14.9375 29.78125 9.9375 37.09375 6 45.5 L 0.5 65 Z M 0 0 " transform="matrix(0.125,0,0,0.125,0,0)"/>
</g>
<mask id="mask1">
  <g filter="url(#alpha)">
<rect x="0" y="0" width="100" height="100" style="fill:rgb(0%,0%,0%);fill-opacity:0.0235294;stroke:none;"/>
  </g>
</mask>
<clipPath id="clip2">
  <rect x="0" y="0" width="100" height="100"/>
</clipPath>
<g id="surface8" clip-path="url(#clip2)">
<path style="fill-rule:nonzero;fill:rgb(0.784314%,2.352941%,4.705882%);fill-opacity:1;stroke-width:1;stroke-linecap:butt;stroke-linejoin:miter;stroke:rgb(0.784314%,2.352941%,4.705882%);stroke-opacity:1;stroke-miterlimit:4;" d="M 734.5 0 L 800 0 L 800 64.5 L 799 64.5 C 795.875 45.625 788.375 31.125 776.5 21 L 758.5 8 C 752.03125 4.125 744.03125 1.8125 734.5 1 Z M 734.5 0 " transform="matrix(0.125,0,0,0.125,0,0)"/>
</g>
<mask id="mask2">
  <g filter="url(#alpha)">
<rect x="0" y="0" width="100" height="100" style="fill:rgb(0%,0%,0%);fill-opacity:0.0235294;stroke:none;"/>
  </g>
</mask>
<clipPath id="clip3">
  <rect x="0" y="0" width="100" height="100"/>
</clipPath>
<g id="surface11" clip-path="url(#clip3)">
<path style="fill-rule:nonzero;fill:rgb(0.784314%,2.352941%,4.705882%);fill-opacity:1;stroke-width:1;stroke-linecap:butt;stroke-linejoin:miter;stroke:rgb(0.784314%,2.352941%,4.705882%);stroke-opacity:1;stroke-miterlimit:4;" d="M 0.5 734 L 1 739.5 L 6 754.5 L 20 776 L 22 776 C 21.28125 777.8125 21.78125 778.46875 23.5 778 C 33.21875 789.28125 47.0625 796.4375 65 799.5 L 0 800 Z M 0.5 734 " transform="matrix(0.125,0,0,0.125,0,0)"/>
</g>
<mask id="mask3">
  <g filter="url(#alpha)">
<rect x="0" y="0" width="100" height="100" style="fill:rgb(0%,0%,0%);fill-opacity:0.0235294;stroke:none;"/>
  </g>
</mask>
<clipPath id="clip4">
  <rect x="0" y="0" width="100" height="100"/>
</clipPath>
<g id="surface14" clip-path="url(#clip4)">
<path style="fill-rule:nonzero;fill:rgb(0.784314%,2.352941%,4.705882%);fill-opacity:1;stroke-width:1;stroke-linecap:butt;stroke-linejoin:miter;stroke:rgb(0.784314%,2.352941%,4.705882%);stroke-opacity:1;stroke-miterlimit:4;" d="M 799.5 735 L 800 800 L 735 799.5 C 753.875 796.03125 768.53125 788.375 779 776.5 C 785.0625 770.21875 790.0625 762.90625 794 754.5 Z M 799.5 735 " transform="matrix(0.125,0,0,0.125,0,0)"/>
</g>
<mask id="mask4">
  <g filter="url(#alpha)">
<rect x="0" y="0" width="100" height="100" style="fill:rgb(0%,0%,0%);fill-opacity:0.996078;stroke:none;"/>
  </g>
</mask>
<clipPath id="clip5">
  <rect x="0" y="0" width="100" height="100"/>
</clipPath>
<g id="surface17" clip-path="url(#clip5)">
<path style="fill-rule:nonzero;fill:rgb(17.647059%,47.450981%,78.039217%);fill-opacity:1;stroke-width:1;stroke-linecap:butt;stroke-linejoin:miter;stroke:rgb(17.647059%,47.450981%,78.039217%);stroke-opacity:1;stroke-miterlimit:4;" d="M 66.5 0 L 77 0.5 L 66.5 1 Z M 66.5 0 " transform="matrix(0.125,0,0,0.125,0,0)"/>
</g>
<mask id="mask5">
  <g filter="url(#alpha)">
<rect x="0" y="0" width="100" height="100" style="fill:rgb(0%,0%,0%);fill-opacity:0.996078;stroke:none;"/>
  </g>
</mask>
<clipPath id="clip6">
  <rect x="0" y="0" width="100" height="100"/>
</clipPath>
<g id="surface20" clip-path="url(#clip6)">
<path style="fill-rule:nonzero;fill:rgb(17.647059%,47.450981%,78.039217%);fill-opacity:1;stroke-width:1;stroke-linecap:butt;stroke-linejoin:miter;stroke:rgb(17.647059%,47.450981%,78.039217%);stroke-opacity:1;stroke-miterlimit:4;" d="M 723.5 0 L 734 0.5 L 723.5 1 Z M 723.5 0 " transform="matrix(0.125,0,0,0.125,0,0)"/>
</g>
<mask id="mask6">
  <g filter="url(#alpha)">
<rect x="0" y="0" width="100" height="100" style="fill:rgb(0%,0%,0%);fill-opacity:0.996078;stroke:none;"/>
  </g>
</mask>
<clipPath id="clip7">
  <rect x="0" y="0" width="100" height="100"/>
</clipPath>
<g id="surface23" clip-path="url(#clip7)">
<path style="fill-rule:nonzero;fill:rgb(17.647059%,47.450981%,78.039217%);fill-opacity:1;stroke-width:1;stroke-linecap:butt;stroke-linejoin:miter;stroke:rgb(17.647059%,47.450981%,78.039217%);stroke-opacity:1;stroke-miterlimit:4;" d="M 60.5 1 L 65 1.5 C 44.46875 5.625 28.8125 14.625 18 28.5 C 12.125 35.625 7.46875 43.96875 4 53.5 L 1 65.5 L 0.5 76 L 0 65.5 C 3.71875 46.5625 11.5625 31.71875 23.5 21 C 32.96875 11.46875 45.3125 4.8125 60.5 1 Z M 60.5 1 " transform="matrix(0.125,0,0,0.125,0,0)"/>
</g>
<mask id="mask7">
  <g filter="url(#alpha)">
<rect x="0" y="0" width="100" height="100" style="fill:rgb(0%,0%,0%);fill-opacity:0.996078;stroke:none;"/>
  </g>
</mask>
<clipPath id="clip8">
  <rect x="0" y="0" width="100" height="100"/>
</clipPath>
<g id="surface26" clip-path="url(#clip8)">
<path style="fill-rule:nonzero;fill:rgb(17.647059%,47.450981%,78.039217%);fill-opacity:1;stroke-width:1;stroke-linecap:butt;stroke-linejoin:miter;stroke:rgb(17.647059%,47.450981%,78.039217%);stroke-opacity:1;stroke-miterlimit:4;" d="M 735.5 1 C 754.375 4.125 768.875 11.625 779 23.5 C 785.0625 29.78125 790.0625 37.09375 794 45.5 L 799 60.5 L 800 75.5 L 799 75.5 L 799 65.5 L 794 48.5 C 788.65625 36.15625 781.15625 26 771.5 18 L 751.5 6 L 739.5 2 L 735.5 2 Z M 735.5 1 " transform="matrix(0.125,0,0,0.125,0,0)"/>
</g>
<mask id="mask8">
  <g filter="url(#alpha)">
<rect x="0" y="0" width="100" height="100" style="fill:rgb(0%,0%,0%);fill-opacity:0.996078;stroke:none;"/>
  </g>
</mask>
<clipPath id="clip9">
  <rect x="0" y="0" width="100" height="100"/>
</clipPath>
<g id="surface29" clip-path="url(#clip9)">
<path style="fill-rule:nonzero;fill:rgb(17.647059%,47.450981%,78.039217%);fill-opacity:1;stroke-width:1;stroke-linecap:butt;stroke-linejoin:miter;stroke:rgb(17.647059%,47.450981%,78.039217%);stroke-opacity:1;stroke-miterlimit:4;" d="M 0.5 724 L 1 733.5 L 0 733.5 Z M 0.5 724 " transform="matrix(0.125,0,0,0.125,0,0)"/>
</g>
<mask id="mask9">
  <g filter="url(#alpha)">
<rect x="0" y="0" width="100" height="100" style="fill:rgb(0%,0%,0%);fill-opacity:0.996078;stroke:none;"/>
  </g>
</mask>
<clipPath id="clip10">
  <rect x="0" y="0" width="100" height="100"/>
</clipPath>
<g id="surface32" clip-path="url(#clip10)">
<path style="fill-rule:nonzero;fill:rgb(17.647059%,47.450981%,78.039217%);fill-opacity:1;stroke-width:1;stroke-linecap:butt;stroke-linejoin:miter;stroke:rgb(17.647059%,47.450981%,78.039217%);stroke-opacity:1;stroke-miterlimit:4;" d="M 799.5 724 L 800 734.5 C 796.125 753.96875 787.96875 769.125 775.5 780 C 768.15625 786.65625 759.5 792 749.5 796 L 734.5 800 L 723.5 800 L 723.5 799 L 734.5 799 L 751.5 794 C 763.84375 788.65625 774 781.15625 782 771.5 C 787.875 764.375 792.53125 756.03125 796 746.5 L 799 734.5 Z M 799.5 724 " transform="matrix(0.125,0,0,0.125,0,0)"/>
</g>
<mask id="mask10">
  <g filter="url(#alpha)">
<rect x="0" y="0" width="100" height="100" style="fill:rgb(0%,0%,0%);fill-opacity:0.996078;stroke:none;"/>
  </g>
</mask>
<clipPath id="clip11">
  <rect x="0" y="0" width="100" height="100"/>
</clipPath>
<g id="surface35" clip-path="url(#clip11)">
<path style="fill-rule:nonzero;fill:rgb(17.647059%,47.450981%,78.039217%);fill-opacity:1;stroke-width:1;stroke-linecap:butt;stroke-linejoin:miter;stroke:rgb(17.647059%,47.450981%,78.039217%);stroke-opacity:1;stroke-miterlimit:4;" d="M 1.5 735 C 5.625 755.53125 14.625 771.1875 28.5 782 C 35.625 787.875 43.96875 792.53125 53.5 796 L 65.5 799 L 77 799.5 L 65.5 800 C 56.5 798.34375 48.5 795.65625 41.5 792 L 22 778 L 22 776 C 20.1875 776.71875 19.53125 776.21875 20 774.5 L 15 769.5 L 6 754.5 L 1 739.5 Z M 1.5 735 " transform="matrix(0.125,0,0,0.125,0,0)"/>
</g>
</defs>
<g id="surface1">
<use xlink:href="#surface5" mask="url(#mask0)"/>
<use xlink:href="#surface8" mask="url(#mask1)"/>
<use xlink:href="#surface11" mask="url(#mask2)"/>
<use xlink:href="#surface14" mask="url(#mask3)"/>
<use xlink:href="#surface17" mask="url(#mask4)"/>
<use xlink:href="#surface20" mask="url(#mask5)"/>
<use xlink:href="#surface23" mask="url(#mask6)"/>
<use xlink:href="#surface26" mask="url(#mask7)"/>
<use xlink:href="#surface29" mask="url(#mask8)"/>
<use xlink:href="#surface32" mask="url(#mask9)"/>
<use xlink:href="#surface35" mask="url(#mask10)"/>
<path style="fill-rule:nonzero;fill:rgb(17.647059%,47.450981%,78.039217%);fill-opacity:1;stroke-width:1;stroke-linecap:butt;stroke-linejoin:miter;stroke:rgb(17.647059%,47.450981%,78.039217%);stroke-opacity:1;stroke-miterlimit:4;" d="M 77.5 0 L 722.5 0 L 723.5 1 L 739.5 2 L 751.5 6 C 763.84375 11.34375 774 18.84375 782 28.5 C 787.875 35.625 792.53125 43.96875 796 53.5 L 799 65.5 L 799 75.5 L 800 76.5 L 800 723.5 L 799 724.5 L 798 739.5 L 794 751.5 C 788.65625 763.84375 781.15625 774 771.5 782 C 764.375 787.875 756.03125 792.53125 746.5 796 L 734.5 799 L 723.5 799 L 722.5 800 L 77.5 800 L 76.5 799 L 60.5 798 L 48.5 794 C 36.15625 788.65625 26 781.15625 18 771.5 C 12.125 764.375 7.46875 756.03125 4 746.5 L 1 734.5 L 1 724.5 L 0 723.5 L 0 76.5 L 1 75.5 L 2 60.5 L 6 48.5 C 11.34375 36.15625 18.84375 26 28.5 18 C 35.625 12.125 43.96875 7.46875 53.5 4 L 65.5 1 L 76.5 1 Z M 613 372 L 612 373 L 603 373 L 602 374 L 585 376 L 558 384 C 545.34375 388.65625 534.65625 395 526 403 C 517.34375 409.65625 510.34375 418 505 428 L 497 447 L 494 462 L 494 490 L 497 505 C 501 517.65625 507 528.65625 515 538 C 525.65625 549.34375 538.34375 559 553 567 L 612 593 L 636 608 L 647 621 L 651 632 L 651 643 L 646 654 C 642 659.34375 636.65625 663.34375 630 666 L 618 670 L 607 671 L 606 672 L 579 672 L 549 666 C 527.65625 660 510.34375 650.34375 497 637 L 495 638 L 495 715 L 511 722 L 536 729 L 553 732 L 560 732 L 561 733 L 570 733 L 571 734 L 595 734 L 596 735 L 597 734 L 619 734 L 620 733 L 636 732 L 666 725 C 680.65625 720.34375 693.34375 713.34375 704 704 C 712 696.65625 718.65625 688.34375 724 679 L 730 665 L 734 646 L 734 615 L 731 600 C 727 588 721.65625 578 715 570 C 705.65625 558.65625 695 549.34375 683 542 L 652 526 C 634.65625 520 619 513 605 505 L 592 496 C 584.65625 491.34375 579.65625 484.34375 577 475 L 577 465 L 581 455 C 585 449 590.65625 444.34375 598 441 L 613 436 L 626 435 L 627 434 C 665.65625 433.34375 696 441.34375 718 458 L 719 458 L 719 385 L 693 377 L 676 374 L 669 374 L 668 373 L 657 373 L 656 372 Z M 184 380 L 184 444 L 284 444 L 284 730 L 364 730 L 364 444 L 464 444 L 464 380 Z M 184 380 " transform="matrix(0.125,0,0,0.125,0,0)"/>
<path style="fill-rule:nonzero;fill:rgb(82.352942%,88.627452%,94.901961%);fill-opacity:1;stroke-width:1;stroke-linecap:butt;stroke-linejoin:miter;stroke:rgb(82.352942%,88.627452%,94.901961%);stroke-opacity:1;stroke-miterlimit:4;" d="M 612.5 372 L 621 372.5 L 612.5 373 Z M 612.5 372 " transform="matrix(0.125,0,0,0.125,0,0)"/>
<path style="fill-rule:nonzero;fill:rgb(82.352942%,88.627452%,94.901961%);fill-opacity:1;stroke-width:1;stroke-linecap:butt;stroke-linejoin:miter;stroke:rgb(82.352942%,88.627452%,94.901961%);stroke-opacity:1;stroke-miterlimit:4;" d="M 645.5 372 L 656 372.5 L 645.5 373 Z M 645.5 372 " transform="matrix(0.125,0,0,0.125,0,0)"/>
<path style="fill-rule:nonzero;fill:rgb(82.352942%,88.627452%,94.901961%);fill-opacity:1;stroke-width:1;stroke-linecap:butt;stroke-linejoin:miter;stroke:rgb(82.352942%,88.627452%,94.901961%);stroke-opacity:1;stroke-miterlimit:4;" d="M 602.5 373 L 607 373.5 L 602.5 374 Z M 602.5 373 " transform="matrix(0.125,0,0,0.125,0,0)"/>
<path style="fill-rule:nonzero;fill:rgb(82.352942%,88.627452%,94.901961%);fill-opacity:1;stroke-width:1;stroke-linecap:butt;stroke-linejoin:miter;stroke:rgb(82.352942%,88.627452%,94.901961%);stroke-opacity:1;stroke-miterlimit:4;" d="M 662.5 373 L 668 373.5 L 662.5 374 Z M 662.5 373 " transform="matrix(0.125,0,0,0.125,0,0)"/>
<path style="fill-rule:nonzero;fill:rgb(82.352942%,88.627452%,94.901961%);fill-opacity:1;stroke-width:1;stroke-linecap:butt;stroke-linejoin:miter;stroke:rgb(82.352942%,88.627452%,94.901961%);stroke-opacity:1;stroke-miterlimit:4;" d="M 595.5 374 L 598 374.5 L 595.5 375 Z M 595.5 374 " transform="matrix(0.125,0,0,0.125,0,0)"/>
<path style="fill-rule:nonzero;fill:rgb(82.352942%,88.627452%,94.901961%);fill-opacity:1;stroke-width:1;stroke-linecap:butt;stroke-linejoin:miter;stroke:rgb(82.352942%,88.627452%,94.901961%);stroke-opacity:1;stroke-miterlimit:4;" d="M 672.5 374 L 676 374.5 L 672.5 375 Z M 672.5 374 " transform="matrix(0.125,0,0,0.125,0,0)"/>
<path style="fill-rule:nonzero;fill:rgb(82.352942%,88.627452%,94.901961%);fill-opacity:1;stroke-width:1;stroke-linecap:butt;stroke-linejoin:miter;stroke:rgb(82.352942%,88.627452%,94.901961%);stroke-opacity:1;stroke-miterlimit:4;" d="M 589.5 375 L 592 375.5 L 589.5 376 Z M 589.5 375 " transform="matrix(0.125,0,0,0.125,0,0)"/>
<path style="fill-rule:nonzero;fill:rgb(82.352942%,88.627452%,94.901961%);fill-opacity:1;stroke-width:1;stroke-linecap:butt;stroke-linejoin:miter;stroke:rgb(82.352942%,88.627452%,94.901961%);stroke-opacity:1;stroke-miterlimit:4;" d="M 584.5 376 L 587 376.5 L 584.5 377 Z M 584.5 376 " transform="matrix(0.125,0,0,0.125,0,0)"/>
<path style="fill-rule:nonzero;fill:rgb(82.352942%,88.627452%,94.901961%);fill-opacity:1;stroke-width:1;stroke-linecap:butt;stroke-linejoin:miter;stroke:rgb(82.352942%,88.627452%,94.901961%);stroke-opacity:1;stroke-miterlimit:4;" d="M 685.5 376 L 688 376.5 L 685.5 377 Z M 685.5 376 " transform="matrix(0.125,0,0,0.125,0,0)"/>
<path style="fill-rule:nonzero;fill:rgb(82.352942%,88.627452%,94.901961%);fill-opacity:1;stroke-width:1;stroke-linecap:butt;stroke-linejoin:miter;stroke:rgb(82.352942%,88.627452%,94.901961%);stroke-opacity:1;stroke-miterlimit:4;" d="M 184.5 380 L 185 443 L 283.5 443 L 285 444.5 L 285 728.5 L 285.5 729 L 363 729 L 363 444.5 L 364.5 443 L 464 443.5 L 364 444 L 364 729.5 L 363.5 730 L 284 730 L 284 444.5 L 283.5 444 L 184 444 Z M 184.5 380 " transform="matrix(0.125,0,0,0.125,0,0)"/>
<path style="fill-rule:nonzero;fill:rgb(82.352942%,88.627452%,94.901961%);fill-opacity:1;stroke-width:1;stroke-linecap:butt;stroke-linejoin:miter;stroke:rgb(82.352942%,88.627452%,94.901961%);stroke-opacity:1;stroke-miterlimit:4;" d="M 539.5 393 L 538.5 395 Z M 539.5 393 " transform="matrix(0.125,0,0,0.125,0,0)"/>
<path style="fill-rule:nonzero;fill:rgb(82.352942%,88.627452%,94.901961%);fill-opacity:1;stroke-width:1;stroke-linecap:butt;stroke-linejoin:miter;stroke:rgb(82.352942%,88.627452%,94.901961%);stroke-opacity:1;stroke-miterlimit:4;" d="M 533.5 397 L 532.5 399 Z M 533.5 397 " transform="matrix(0.125,0,0,0.125,0,0)"/>
<path style="fill-rule:nonzero;fill:rgb(82.352942%,88.627452%,94.901961%);fill-opacity:1;stroke-width:1;stroke-linecap:butt;stroke-linejoin:miter;stroke:rgb(82.352942%,88.627452%,94.901961%);stroke-opacity:1;stroke-miterlimit:4;" d="M 530.5 399 L 528.5 402 Z M 530.5 399 " transform="matrix(0.125,0,0,0.125,0,0)"/>
<path style="fill-rule:nonzero;fill:rgb(82.352942%,88.627452%,94.901961%);fill-opacity:1;stroke-width:1;stroke-linecap:butt;stroke-linejoin:miter;stroke:rgb(82.352942%,88.627452%,94.901961%);stroke-opacity:1;stroke-miterlimit:4;" d="M 525.5 403 L 515.5 414 Z M 525.5 403 " transform="matrix(0.125,0,0,0.125,0,0)"/>
<path style="fill-rule:nonzero;fill:rgb(82.352942%,88.627452%,94.901961%);fill-opacity:1;stroke-width:1;stroke-linecap:butt;stroke-linejoin:miter;stroke:rgb(82.352942%,88.627452%,94.901961%);stroke-opacity:1;stroke-miterlimit:4;" d="M 513.5 416 L 511.5 419 Z M 513.5 416 " transform="matrix(0.125,0,0,0.125,0,0)"/>
<path style="fill-rule:nonzero;fill:rgb(82.352942%,88.627452%,94.901961%);fill-opacity:1;stroke-width:1;stroke-linecap:butt;stroke-linejoin:miter;stroke:rgb(82.352942%,88.627452%,94.901961%);stroke-opacity:1;stroke-miterlimit:4;" d="M 510.5 420 L 509.5 422 Z M 510.5 420 " transform="matrix(0.125,0,0,0.125,0,0)"/>
<path style="fill-rule:nonzero;fill:rgb(82.352942%,88.627452%,94.901961%);fill-opacity:1;stroke-width:1;stroke-linecap:butt;stroke-linejoin:miter;stroke:rgb(82.352942%,88.627452%,94.901961%);stroke-opacity:1;stroke-miterlimit:4;" d="M 508.5 423 L 507.5 425 Z M 508.5 423 " transform="matrix(0.125,0,0,0.125,0,0)"/>
<path style="fill-rule:nonzero;fill:rgb(82.352942%,88.627452%,94.901961%);fill-opacity:1;stroke-width:1;stroke-linecap:butt;stroke-linejoin:miter;stroke:rgb(82.352942%,88.627452%,94.901961%);stroke-opacity:1;stroke-miterlimit:4;" d="M 506.5 426 L 505.5 428 Z M 506.5 426 " transform="matrix(0.125,0,0,0.125,0,0)"/>
<path style="fill-rule:nonzero;fill:rgb(82.352942%,88.627452%,94.901961%);fill-opacity:1;stroke-width:1;stroke-linecap:butt;stroke-linejoin:miter;stroke:rgb(82.352942%,88.627452%,94.901961%);stroke-opacity:1;stroke-miterlimit:4;" d="M 621.5 434 L 626 434.5 L 621.5 435 Z M 621.5 434 " transform="matrix(0.125,0,0,0.125,0,0)"/>
<path style="fill-rule:nonzero;fill:rgb(82.352942%,88.627452%,94.901961%);fill-opacity:1;stroke-width:1;stroke-linecap:butt;stroke-linejoin:miter;stroke:rgb(82.352942%,88.627452%,94.901961%);stroke-opacity:1;stroke-miterlimit:4;" d="M 646.5 434 L 652 434.5 L 646.5 435 Z M 646.5 434 " transform="matrix(0.125,0,0,0.125,0,0)"/>
<path style="fill-rule:nonzero;fill:rgb(82.352942%,88.627452%,94.901961%);fill-opacity:1;stroke-width:1;stroke-linecap:butt;stroke-linejoin:miter;stroke:rgb(82.352942%,88.627452%,94.901961%);stroke-opacity:1;stroke-miterlimit:4;" d="M 656.5 435 L 659 435.5 L 656.5 436 Z M 656.5 435 " transform="matrix(0.125,0,0,0.125,0,0)"/>
<path style="fill-rule:nonzero;fill:rgb(82.352942%,88.627452%,94.901961%);fill-opacity:1;stroke-width:1;stroke-linecap:butt;stroke-linejoin:miter;stroke:rgb(82.352942%,88.627452%,94.901961%);stroke-opacity:1;stroke-miterlimit:4;" d="M 592.5 443 L 591.5 445 Z M 592.5 443 " transform="matrix(0.125,0,0,0.125,0,0)"/>
<path style="fill-rule:nonzero;fill:rgb(82.352942%,88.627452%,94.901961%);fill-opacity:1;stroke-width:1;stroke-linecap:butt;stroke-linejoin:miter;stroke:rgb(82.352942%,88.627452%,94.901961%);stroke-opacity:1;stroke-miterlimit:4;" d="M 588.5 446 L 582.5 453 Z M 588.5 446 " transform="matrix(0.125,0,0,0.125,0,0)"/>
<path style="fill-rule:nonzero;fill:rgb(82.352942%,88.627452%,94.901961%);fill-opacity:1;stroke-width:1;stroke-linecap:butt;stroke-linejoin:miter;stroke:rgb(82.352942%,88.627452%,94.901961%);stroke-opacity:1;stroke-miterlimit:4;" d="M 704.5 449 L 705.5 451 Z M 704.5 449 " transform="matrix(0.125,0,0,0.125,0,0)"/>
<path style="fill-rule:nonzero;fill:rgb(82.352942%,88.627452%,94.901961%);fill-opacity:1;stroke-width:1;stroke-linecap:butt;stroke-linejoin:miter;stroke:rgb(82.352942%,88.627452%,94.901961%);stroke-opacity:1;stroke-miterlimit:4;" d="M 713.5 454 L 714.5 456 Z M 713.5 454 " transform="matrix(0.125,0,0,0.125,0,0)"/>
<path style="fill-rule:nonzero;fill:rgb(82.352942%,88.627452%,94.901961%);fill-opacity:1;stroke-width:1;stroke-linecap:butt;stroke-linejoin:miter;stroke:rgb(82.352942%,88.627452%,94.901961%);stroke-opacity:1;stroke-miterlimit:4;" d="M 495.5 455 L 496 457.5 L 495 457.5 Z M 495.5 455 " transform="matrix(0.125,0,0,0.125,0,0)"/>
<path style="fill-rule:nonzero;fill:rgb(82.352942%,88.627452%,94.901961%);fill-opacity:1;stroke-width:1;stroke-linecap:butt;stroke-linejoin:miter;stroke:rgb(82.352942%,88.627452%,94.901961%);stroke-opacity:1;stroke-miterlimit:4;" d="M 716.5 456 L 717.5 458 Z M 716.5 456 " transform="matrix(0.125,0,0,0.125,0,0)"/>
<path style="fill-rule:nonzero;fill:rgb(82.352942%,88.627452%,94.901961%);fill-opacity:1;stroke-width:1;stroke-linecap:butt;stroke-linejoin:miter;stroke:rgb(82.352942%,88.627452%,94.901961%);stroke-opacity:1;stroke-miterlimit:4;" d="M 494.5 461 L 495 466.5 L 494 466.5 Z M 494.5 461 " transform="matrix(0.125,0,0,0.125,0,0)"/>
<path style="fill-rule:nonzero;fill:rgb(82.352942%,88.627452%,94.901961%);fill-opacity:1;stroke-width:1;stroke-linecap:butt;stroke-linejoin:miter;stroke:rgb(82.352942%,88.627452%,94.901961%);stroke-opacity:1;stroke-miterlimit:4;" d="M 494.5 485 L 495 489.5 L 494 489.5 Z M 494.5 485 " transform="matrix(0.125,0,0,0.125,0,0)"/>
<path style="fill-rule:nonzero;fill:rgb(82.352942%,88.627452%,94.901961%);fill-opacity:1;stroke-width:1;stroke-linecap:butt;stroke-linejoin:miter;stroke:rgb(82.352942%,88.627452%,94.901961%);stroke-opacity:1;stroke-miterlimit:4;" d="M 581.5 485 L 582.5 487 Z M 581.5 485 " transform="matrix(0.125,0,0,0.125,0,0)"/>
<path style="fill-rule:nonzero;fill:rgb(82.352942%,88.627452%,94.901961%);fill-opacity:1;stroke-width:1;stroke-linecap:butt;stroke-linejoin:miter;stroke:rgb(82.352942%,88.627452%,94.901961%);stroke-opacity:1;stroke-miterlimit:4;" d="M 584.5 489 L 590.5 496 Z M 584.5 489 " transform="matrix(0.125,0,0,0.125,0,0)"/>
<path style="fill-rule:nonzero;fill:rgb(82.352942%,88.627452%,94.901961%);fill-opacity:1;stroke-width:1;stroke-linecap:butt;stroke-linejoin:miter;stroke:rgb(82.352942%,88.627452%,94.901961%);stroke-opacity:1;stroke-miterlimit:4;" d="M 495.5 493 L 496 495.5 L 495 495.5 Z M 495.5 493 " transform="matrix(0.125,0,0,0.125,0,0)"/>
<path style="fill-rule:nonzero;fill:rgb(82.352942%,88.627452%,94.901961%);fill-opacity:1;stroke-width:1;stroke-linecap:butt;stroke-linejoin:miter;stroke:rgb(82.352942%,88.627452%,94.901961%);stroke-opacity:1;stroke-miterlimit:4;" d="M 592.5 496 L 594.5 499 Z M 592.5 496 " transform="matrix(0.125,0,0,0.125,0,0)"/>
<path style="fill-rule:nonzero;fill:rgb(82.352942%,88.627452%,94.901961%);fill-opacity:1;stroke-width:1;stroke-linecap:butt;stroke-linejoin:miter;stroke:rgb(82.352942%,88.627452%,94.901961%);stroke-opacity:1;stroke-miterlimit:4;" d="M 596.5 499 L 597.5 501 Z M 596.5 499 " transform="matrix(0.125,0,0,0.125,0,0)"/>
<path style="fill-rule:nonzero;fill:rgb(82.352942%,88.627452%,94.901961%);fill-opacity:1;stroke-width:1;stroke-linecap:butt;stroke-linejoin:miter;stroke:rgb(82.352942%,88.627452%,94.901961%);stroke-opacity:1;stroke-miterlimit:4;" d="M 602.5 503 L 603.5 505 Z M 602.5 503 " transform="matrix(0.125,0,0,0.125,0,0)"/>
<path style="fill-rule:nonzero;fill:rgb(82.352942%,88.627452%,94.901961%);fill-opacity:1;stroke-width:1;stroke-linecap:butt;stroke-linejoin:miter;stroke:rgb(82.352942%,88.627452%,94.901961%);stroke-opacity:1;stroke-miterlimit:4;" d="M 505.5 523 L 506.5 525 Z M 505.5 523 " transform="matrix(0.125,0,0,0.125,0,0)"/>
<path style="fill-rule:nonzero;fill:rgb(82.352942%,88.627452%,94.901961%);fill-opacity:1;stroke-width:1;stroke-linecap:butt;stroke-linejoin:miter;stroke:rgb(82.352942%,88.627452%,94.901961%);stroke-opacity:1;stroke-miterlimit:4;" d="M 509.5 529 L 510.5 531 Z M 509.5 529 " transform="matrix(0.125,0,0,0.125,0,0)"/>
<path style="fill-rule:nonzero;fill:rgb(82.352942%,88.627452%,94.901961%);fill-opacity:1;stroke-width:1;stroke-linecap:butt;stroke-linejoin:miter;stroke:rgb(82.352942%,88.627452%,94.901961%);stroke-opacity:1;stroke-miterlimit:4;" d="M 511.5 532 L 513.5 535 Z M 511.5 532 " transform="matrix(0.125,0,0,0.125,0,0)"/>
<path style="fill-rule:nonzero;fill:rgb(82.352942%,88.627452%,94.901961%);fill-opacity:1;stroke-width:1;stroke-linecap:butt;stroke-linejoin:miter;stroke:rgb(82.352942%,88.627452%,94.901961%);stroke-opacity:1;stroke-miterlimit:4;" d="M 515.5 537 L 526.5 549 Z M 515.5 537 " transform="matrix(0.125,0,0,0.125,0,0)"/>
<path style="fill-rule:nonzero;fill:rgb(82.352942%,88.627452%,94.901961%);fill-opacity:1;stroke-width:1;stroke-linecap:butt;stroke-linejoin:miter;stroke:rgb(82.352942%,88.627452%,94.901961%);stroke-opacity:1;stroke-miterlimit:4;" d="M 675.5 538 L 676.5 540 Z M 675.5 538 " transform="matrix(0.125,0,0,0.125,0,0)"/>
<path style="fill-rule:nonzero;fill:rgb(82.352942%,88.627452%,94.901961%);fill-opacity:1;stroke-width:1;stroke-linecap:butt;stroke-linejoin:miter;stroke:rgb(82.352942%,88.627452%,94.901961%);stroke-opacity:1;stroke-miterlimit:4;" d="M 682.5 542 L 683.5 544 Z M 682.5 542 " transform="matrix(0.125,0,0,0.125,0,0)"/>
<path style="fill-rule:nonzero;fill:rgb(82.352942%,88.627452%,94.901961%);fill-opacity:1;stroke-width:1;stroke-linecap:butt;stroke-linejoin:miter;stroke:rgb(82.352942%,88.627452%,94.901961%);stroke-opacity:1;stroke-miterlimit:4;" d="M 685.5 544 L 686.5 546 Z M 685.5 544 " transform="matrix(0.125,0,0,0.125,0,0)"/>
<path style="fill-rule:nonzero;fill:rgb(82.352942%,88.627452%,94.901961%);fill-opacity:1;stroke-width:1;stroke-linecap:butt;stroke-linejoin:miter;stroke:rgb(82.352942%,88.627452%,94.901961%);stroke-opacity:1;stroke-miterlimit:4;" d="M 688.5 546 L 689.5 548 Z M 688.5 546 " transform="matrix(0.125,0,0,0.125,0,0)"/>
<path style="fill-rule:nonzero;fill:rgb(82.352942%,88.627452%,94.901961%);fill-opacity:1;stroke-width:1;stroke-linecap:butt;stroke-linejoin:miter;stroke:rgb(82.352942%,88.627452%,94.901961%);stroke-opacity:1;stroke-miterlimit:4;" d="M 691.5 548 L 692.5 550 Z M 691.5 548 " transform="matrix(0.125,0,0,0.125,0,0)"/>
<path style="fill-rule:nonzero;fill:rgb(82.352942%,88.627452%,94.901961%);fill-opacity:1;stroke-width:1;stroke-linecap:butt;stroke-linejoin:miter;stroke:rgb(82.352942%,88.627452%,94.901961%);stroke-opacity:1;stroke-miterlimit:4;" d="M 530.5 551 L 532.5 554 Z M 530.5 551 " transform="matrix(0.125,0,0,0.125,0,0)"/>
<path style="fill-rule:nonzero;fill:rgb(82.352942%,88.627452%,94.901961%);fill-opacity:1;stroke-width:1;stroke-linecap:butt;stroke-linejoin:miter;stroke:rgb(82.352942%,88.627452%,94.901961%);stroke-opacity:1;stroke-miterlimit:4;" d="M 695.5 551 L 696.5 553 Z M 695.5 551 " transform="matrix(0.125,0,0,0.125,0,0)"/>
<path style="fill-rule:nonzero;fill:rgb(82.352942%,88.627452%,94.901961%);fill-opacity:1;stroke-width:1;stroke-linecap:butt;stroke-linejoin:miter;stroke:rgb(82.352942%,88.627452%,94.901961%);stroke-opacity:1;stroke-miterlimit:4;" d="M 534.5 554 L 535.5 556 Z M 534.5 554 " transform="matrix(0.125,0,0,0.125,0,0)"/>
<path style="fill-rule:nonzero;fill:rgb(82.352942%,88.627452%,94.901961%);fill-opacity:1;stroke-width:1;stroke-linecap:butt;stroke-linejoin:miter;stroke:rgb(82.352942%,88.627452%,94.901961%);stroke-opacity:1;stroke-miterlimit:4;" d="M 699.5 554 L 703.5 559 Z M 699.5 554 " transform="matrix(0.125,0,0,0.125,0,0)"/>
<path style="fill-rule:nonzero;fill:rgb(82.352942%,88.627452%,94.901961%);fill-opacity:1;stroke-width:1;stroke-linecap:butt;stroke-linejoin:miter;stroke:rgb(82.352942%,88.627452%,94.901961%);stroke-opacity:1;stroke-miterlimit:4;" d="M 538.5 557 L 539.5 559 Z M 538.5 557 " transform="matrix(0.125,0,0,0.125,0,0)"/>
<path style="fill-rule:nonzero;fill:rgb(82.352942%,88.627452%,94.901961%);fill-opacity:1;stroke-width:1;stroke-linecap:butt;stroke-linejoin:miter;stroke:rgb(82.352942%,88.627452%,94.901961%);stroke-opacity:1;stroke-miterlimit:4;" d="M 541.5 559 L 542.5 561 Z M 541.5 559 " transform="matrix(0.125,0,0,0.125,0,0)"/>
<path style="fill-rule:nonzero;fill:rgb(82.352942%,88.627452%,94.901961%);fill-opacity:1;stroke-width:1;stroke-linecap:butt;stroke-linejoin:miter;stroke:rgb(82.352942%,88.627452%,94.901961%);stroke-opacity:1;stroke-miterlimit:4;" d="M 551.5 565 L 552.5 567 Z M 551.5 565 " transform="matrix(0.125,0,0,0.125,0,0)"/>
<path style="fill-rule:nonzero;fill:rgb(82.352942%,88.627452%,94.901961%);fill-opacity:1;stroke-width:1;stroke-linecap:butt;stroke-linejoin:miter;stroke:rgb(82.352942%,88.627452%,94.901961%);stroke-opacity:1;stroke-miterlimit:4;" d="M 711.5 566 L 714.5 570 Z M 711.5 566 " transform="matrix(0.125,0,0,0.125,0,0)"/>
<path style="fill-rule:nonzero;fill:rgb(82.352942%,88.627452%,94.901961%);fill-opacity:1;stroke-width:1;stroke-linecap:butt;stroke-linejoin:miter;stroke:rgb(82.352942%,88.627452%,94.901961%);stroke-opacity:1;stroke-miterlimit:4;" d="M 716.5 572 L 717.5 574 Z M 716.5 572 " transform="matrix(0.125,0,0,0.125,0,0)"/>
<path style="fill-rule:nonzero;fill:rgb(82.352942%,88.627452%,94.901961%);fill-opacity:1;stroke-width:1;stroke-linecap:butt;stroke-linejoin:miter;stroke:rgb(82.352942%,88.627452%,94.901961%);stroke-opacity:1;stroke-miterlimit:4;" d="M 614.5 594 L 615.5 596 Z M 614.5 594 " transform="matrix(0.125,0,0,0.125,0,0)"/>
<path style="fill-rule:nonzero;fill:rgb(82.352942%,88.627452%,94.901961%);fill-opacity:1;stroke-width:1;stroke-linecap:butt;stroke-linejoin:miter;stroke:rgb(82.352942%,88.627452%,94.901961%);stroke-opacity:1;stroke-miterlimit:4;" d="M 623.5 599 L 624.5 601 Z M 623.5 599 " transform="matrix(0.125,0,0,0.125,0,0)"/>
<path style="fill-rule:nonzero;fill:rgb(82.352942%,88.627452%,94.901961%);fill-opacity:1;stroke-width:1;stroke-linecap:butt;stroke-linejoin:miter;stroke:rgb(82.352942%,88.627452%,94.901961%);stroke-opacity:1;stroke-miterlimit:4;" d="M 626.5 601 L 627.5 603 Z M 626.5 601 " transform="matrix(0.125,0,0,0.125,0,0)"/>
<path style="fill-rule:nonzero;fill:rgb(82.352942%,88.627452%,94.901961%);fill-opacity:1;stroke-width:1;stroke-linecap:butt;stroke-linejoin:miter;stroke:rgb(82.352942%,88.627452%,94.901961%);stroke-opacity:1;stroke-miterlimit:4;" d="M 629.5 603 L 630.5 605 Z M 629.5 603 " transform="matrix(0.125,0,0,0.125,0,0)"/>
<path style="fill-rule:nonzero;fill:rgb(82.352942%,88.627452%,94.901961%);fill-opacity:1;stroke-width:1;stroke-linecap:butt;stroke-linejoin:miter;stroke:rgb(82.352942%,88.627452%,94.901961%);stroke-opacity:1;stroke-miterlimit:4;" d="M 632.5 605 L 634.5 608 Z M 632.5 605 " transform="matrix(0.125,0,0,0.125,0,0)"/>
<path style="fill-rule:nonzero;fill:rgb(82.352942%,88.627452%,94.901961%);fill-opacity:1;stroke-width:1;stroke-linecap:butt;stroke-linejoin:miter;stroke:rgb(82.352942%,88.627452%,94.901961%);stroke-opacity:1;stroke-miterlimit:4;" d="M 637.5 609 L 642.5 615 Z M 637.5 609 " transform="matrix(0.125,0,0,0.125,0,0)"/>
<path style="fill-rule:nonzero;fill:rgb(82.352942%,88.627452%,94.901961%);fill-opacity:1;stroke-width:1;stroke-linecap:butt;stroke-linejoin:miter;stroke:rgb(82.352942%,88.627452%,94.901961%);stroke-opacity:1;stroke-miterlimit:4;" d="M 733.5 614 L 734 618.5 L 733 618.5 Z M 733.5 614 " transform="matrix(0.125,0,0,0.125,0,0)"/>
<path style="fill-rule:nonzero;fill:rgb(82.352942%,88.627452%,94.901961%);fill-opacity:1;stroke-width:1;stroke-linecap:butt;stroke-linejoin:miter;stroke:rgb(82.352942%,88.627452%,94.901961%);stroke-opacity:1;stroke-miterlimit:4;" d="M 644.5 617 L 645.5 619 Z M 644.5 617 " transform="matrix(0.125,0,0,0.125,0,0)"/>
<path style="fill-rule:nonzero;fill:rgb(82.352942%,88.627452%,94.901961%);fill-opacity:1;stroke-width:1;stroke-linecap:butt;stroke-linejoin:miter;stroke:rgb(82.352942%,88.627452%,94.901961%);stroke-opacity:1;stroke-miterlimit:4;" d="M 650.5 628 L 651 630.5 L 650 630.5 Z M 650.5 628 " transform="matrix(0.125,0,0,0.125,0,0)"/>
<path style="fill-rule:nonzero;fill:rgb(82.352942%,88.627452%,94.901961%);fill-opacity:1;stroke-width:1;stroke-linecap:butt;stroke-linejoin:miter;stroke:rgb(82.352942%,88.627452%,94.901961%);stroke-opacity:1;stroke-miterlimit:4;" d="M 651.5 634 L 652 638.5 L 651 638.5 Z M 651.5 634 " transform="matrix(0.125,0,0,0.125,0,0)"/>
<path style="fill-rule:nonzero;fill:rgb(82.352942%,88.627452%,94.901961%);fill-opacity:1;stroke-width:1;stroke-linecap:butt;stroke-linejoin:miter;stroke:rgb(82.352942%,88.627452%,94.901961%);stroke-opacity:1;stroke-miterlimit:4;" d="M 495 637 L 500 640.5 L 496 638.5 L 496 714.5 L 497 715.5 L 495 714.5 Z M 495 637 " transform="matrix(0.125,0,0,0.125,0,0)"/>
<path style="fill-rule:nonzero;fill:rgb(82.352942%,88.627452%,94.901961%);fill-opacity:1;stroke-width:1;stroke-linecap:butt;stroke-linejoin:miter;stroke:rgb(82.352942%,88.627452%,94.901961%);stroke-opacity:1;stroke-miterlimit:4;" d="M 501.5 641 L 503.5 644 Z M 501.5 641 " transform="matrix(0.125,0,0,0.125,0,0)"/>
<path style="fill-rule:nonzero;fill:rgb(82.352942%,88.627452%,94.901961%);fill-opacity:1;stroke-width:1;stroke-linecap:butt;stroke-linejoin:miter;stroke:rgb(82.352942%,88.627452%,94.901961%);stroke-opacity:1;stroke-miterlimit:4;" d="M 733.5 641 L 734 645.5 L 733 645.5 Z M 733.5 641 " transform="matrix(0.125,0,0,0.125,0,0)"/>
<path style="fill-rule:nonzero;fill:rgb(82.352942%,88.627452%,94.901961%);fill-opacity:1;stroke-width:1;stroke-linecap:butt;stroke-linejoin:miter;stroke:rgb(82.352942%,88.627452%,94.901961%);stroke-opacity:1;stroke-miterlimit:4;" d="M 505.5 644 L 506.5 646 Z M 505.5 644 " transform="matrix(0.125,0,0,0.125,0,0)"/>
<path style="fill-rule:nonzero;fill:rgb(82.352942%,88.627452%,94.901961%);fill-opacity:1;stroke-width:1;stroke-linecap:butt;stroke-linejoin:miter;stroke:rgb(82.352942%,88.627452%,94.901961%);stroke-opacity:1;stroke-miterlimit:4;" d="M 508.5 646 L 509.5 648 Z M 508.5 646 " transform="matrix(0.125,0,0,0.125,0,0)"/>
<path style="fill-rule:nonzero;fill:rgb(82.352942%,88.627452%,94.901961%);fill-opacity:1;stroke-width:1;stroke-linecap:butt;stroke-linejoin:miter;stroke:rgb(82.352942%,88.627452%,94.901961%);stroke-opacity:1;stroke-miterlimit:4;" d="M 511.5 648 L 512.5 650 Z M 511.5 648 " transform="matrix(0.125,0,0,0.125,0,0)"/>
<path style="fill-rule:nonzero;fill:rgb(82.352942%,88.627452%,94.901961%);fill-opacity:1;stroke-width:1;stroke-linecap:butt;stroke-linejoin:miter;stroke:rgb(82.352942%,88.627452%,94.901961%);stroke-opacity:1;stroke-miterlimit:4;" d="M 732.5 650 L 733 652.5 L 732 652.5 Z M 732.5 650 " transform="matrix(0.125,0,0,0.125,0,0)"/>
<path style="fill-rule:nonzero;fill:rgb(82.352942%,88.627452%,94.901961%);fill-opacity:1;stroke-width:1;stroke-linecap:butt;stroke-linejoin:miter;stroke:rgb(82.352942%,88.627452%,94.901961%);stroke-opacity:1;stroke-miterlimit:4;" d="M 647.5 651 L 646.5 653 Z M 647.5 651 " transform="matrix(0.125,0,0,0.125,0,0)"/>
<path style="fill-rule:nonzero;fill:rgb(82.352942%,88.627452%,94.901961%);fill-opacity:1;stroke-width:1;stroke-linecap:butt;stroke-linejoin:miter;stroke:rgb(82.352942%,88.627452%,94.901961%);stroke-opacity:1;stroke-miterlimit:4;" d="M 645.5 654 L 640.5 660 Z M 645.5 654 " transform="matrix(0.125,0,0,0.125,0,0)"/>
<path style="fill-rule:nonzero;fill:rgb(82.352942%,88.627452%,94.901961%);fill-opacity:1;stroke-width:1;stroke-linecap:butt;stroke-linejoin:miter;stroke:rgb(82.352942%,88.627452%,94.901961%);stroke-opacity:1;stroke-miterlimit:4;" d="M 731.5 655 L 732 657.5 L 731 657.5 Z M 731.5 655 " transform="matrix(0.125,0,0,0.125,0,0)"/>
<path style="fill-rule:nonzero;fill:rgb(82.352942%,88.627452%,94.901961%);fill-opacity:1;stroke-width:1;stroke-linecap:butt;stroke-linejoin:miter;stroke:rgb(82.352942%,88.627452%,94.901961%);stroke-opacity:1;stroke-miterlimit:4;" d="M 637.5 661 L 636.5 663 Z M 637.5 661 " transform="matrix(0.125,0,0,0.125,0,0)"/>
<path style="fill-rule:nonzero;fill:rgb(82.352942%,88.627452%,94.901961%);fill-opacity:1;stroke-width:1;stroke-linecap:butt;stroke-linejoin:miter;stroke:rgb(82.352942%,88.627452%,94.901961%);stroke-opacity:1;stroke-miterlimit:4;" d="M 567.5 670 L 570 670.5 L 567.5 671 Z M 567.5 670 " transform="matrix(0.125,0,0,0.125,0,0)"/>
<path style="fill-rule:nonzero;fill:rgb(82.352942%,88.627452%,94.901961%);fill-opacity:1;stroke-width:1;stroke-linecap:butt;stroke-linejoin:miter;stroke:rgb(82.352942%,88.627452%,94.901961%);stroke-opacity:1;stroke-miterlimit:4;" d="M 574.5 671 L 578 671.5 L 574.5 672 Z M 574.5 671 " transform="matrix(0.125,0,0,0.125,0,0)"/>
<path style="fill-rule:nonzero;fill:rgb(82.352942%,88.627452%,94.901961%);fill-opacity:1;stroke-width:1;stroke-linecap:butt;stroke-linejoin:miter;stroke:rgb(82.352942%,88.627452%,94.901961%);stroke-opacity:1;stroke-miterlimit:4;" d="M 606.5 671 L 609 671.5 L 606.5 672 Z M 606.5 671 " transform="matrix(0.125,0,0,0.125,0,0)"/>
<path style="fill-rule:nonzero;fill:rgb(82.352942%,88.627452%,94.901961%);fill-opacity:1;stroke-width:1;stroke-linecap:butt;stroke-linejoin:miter;stroke:rgb(82.352942%,88.627452%,94.901961%);stroke-opacity:1;stroke-miterlimit:4;" d="M 585.5 672 L 599 672.5 L 585.5 673 Z M 585.5 672 " transform="matrix(0.125,0,0,0.125,0,0)"/>
<path style="fill-rule:nonzero;fill:rgb(82.352942%,88.627452%,94.901961%);fill-opacity:1;stroke-width:1;stroke-linecap:butt;stroke-linejoin:miter;stroke:rgb(82.352942%,88.627452%,94.901961%);stroke-opacity:1;stroke-miterlimit:4;" d="M 720.5 683 L 719.5 685 Z M 720.5 683 " transform="matrix(0.125,0,0,0.125,0,0)"/>
<path style="fill-rule:nonzero;fill:rgb(82.352942%,88.627452%,94.901961%);fill-opacity:1;stroke-width:1;stroke-linecap:butt;stroke-linejoin:miter;stroke:rgb(82.352942%,88.627452%,94.901961%);stroke-opacity:1;stroke-miterlimit:4;" d="M 718.5 686 L 717.5 688 Z M 718.5 686 " transform="matrix(0.125,0,0,0.125,0,0)"/>
<path style="fill-rule:nonzero;fill:rgb(82.352942%,88.627452%,94.901961%);fill-opacity:1;stroke-width:1;stroke-linecap:butt;stroke-linejoin:miter;stroke:rgb(82.352942%,88.627452%,94.901961%);stroke-opacity:1;stroke-miterlimit:4;" d="M 716.5 689 L 714.5 692 Z M 716.5 689 " transform="matrix(0.125,0,0,0.125,0,0)"/>
<path style="fill-rule:nonzero;fill:rgb(82.352942%,88.627452%,94.901961%);fill-opacity:1;stroke-width:1;stroke-linecap:butt;stroke-linejoin:miter;stroke:rgb(82.352942%,88.627452%,94.901961%);stroke-opacity:1;stroke-miterlimit:4;" d="M 711.5 695 L 703.5 704 Z M 711.5 695 " transform="matrix(0.125,0,0,0.125,0,0)"/>
<path style="fill-rule:nonzero;fill:rgb(82.352942%,88.627452%,94.901961%);fill-opacity:1;stroke-width:1;stroke-linecap:butt;stroke-linejoin:miter;stroke:rgb(82.352942%,88.627452%,94.901961%);stroke-opacity:1;stroke-miterlimit:4;" d="M 700.5 705 L 698.5 708 Z M 700.5 705 " transform="matrix(0.125,0,0,0.125,0,0)"/>
<path style="fill-rule:nonzero;fill:rgb(82.352942%,88.627452%,94.901961%);fill-opacity:1;stroke-width:1;stroke-linecap:butt;stroke-linejoin:miter;stroke:rgb(82.352942%,88.627452%,94.901961%);stroke-opacity:1;stroke-miterlimit:4;" d="M 696.5 708 L 695.5 710 Z M 696.5 708 " transform="matrix(0.125,0,0,0.125,0,0)"/>
<path style="fill-rule:nonzero;fill:rgb(82.352942%,88.627452%,94.901961%);fill-opacity:1;stroke-width:1;stroke-linecap:butt;stroke-linejoin:miter;stroke:rgb(82.352942%,88.627452%,94.901961%);stroke-opacity:1;stroke-miterlimit:4;" d="M 690.5 712 L 689.5 714 Z M 690.5 712 " transform="matrix(0.125,0,0,0.125,0,0)"/>
<path style="fill-rule:nonzero;fill:rgb(82.352942%,88.627452%,94.901961%);fill-opacity:1;stroke-width:1;stroke-linecap:butt;stroke-linejoin:miter;stroke:rgb(82.352942%,88.627452%,94.901961%);stroke-opacity:1;stroke-miterlimit:4;" d="M 540.5 729 L 543 729.5 L 540.5 730 Z M 540.5 729 " transform="matrix(0.125,0,0,0.125,0,0)"/>
<path style="fill-rule:nonzero;fill:rgb(82.352942%,88.627452%,94.901961%);fill-opacity:1;stroke-width:1;stroke-linecap:butt;stroke-linejoin:miter;stroke:rgb(82.352942%,88.627452%,94.901961%);stroke-opacity:1;stroke-miterlimit:4;" d="M 644.5 729 L 647 729.5 L 644.5 730 Z M 644.5 729 " transform="matrix(0.125,0,0,0.125,0,0)"/>
<path style="fill-rule:nonzero;fill:rgb(82.352942%,88.627452%,94.901961%);fill-opacity:1;stroke-width:1;stroke-linecap:butt;stroke-linejoin:miter;stroke:rgb(82.352942%,88.627452%,94.901961%);stroke-opacity:1;stroke-miterlimit:4;" d="M 545.5 730 L 549 730.5 L 545.5 731 Z M 545.5 730 " transform="matrix(0.125,0,0,0.125,0,0)"/>
<path style="fill-rule:nonzero;fill:rgb(82.352942%,88.627452%,94.901961%);fill-opacity:1;stroke-width:1;stroke-linecap:butt;stroke-linejoin:miter;stroke:rgb(82.352942%,88.627452%,94.901961%);stroke-opacity:1;stroke-miterlimit:4;" d="M 639.5 730 L 642 730.5 L 639.5 731 Z M 639.5 730 " transform="matrix(0.125,0,0,0.125,0,0)"/>
<path style="fill-rule:nonzero;fill:rgb(82.352942%,88.627452%,94.901961%);fill-opacity:1;stroke-width:1;stroke-linecap:butt;stroke-linejoin:miter;stroke:rgb(82.352942%,88.627452%,94.901961%);stroke-opacity:1;stroke-miterlimit:4;" d="M 552.5 731 L 556 731.5 L 552.5 732 Z M 552.5 731 " transform="matrix(0.125,0,0,0.125,0,0)"/>
<path style="fill-rule:nonzero;fill:rgb(82.352942%,88.627452%,94.901961%);fill-opacity:1;stroke-width:1;stroke-linecap:butt;stroke-linejoin:miter;stroke:rgb(82.352942%,88.627452%,94.901961%);stroke-opacity:1;stroke-miterlimit:4;" d="M 632.5 731 L 636 731.5 L 632.5 732 Z M 632.5 731 " transform="matrix(0.125,0,0,0.125,0,0)"/>
<path style="fill-rule:nonzero;fill:rgb(82.352942%,88.627452%,94.901961%);fill-opacity:1;stroke-width:1;stroke-linecap:butt;stroke-linejoin:miter;stroke:rgb(82.352942%,88.627452%,94.901961%);stroke-opacity:1;stroke-miterlimit:4;" d="M 560.5 732 L 564 732.5 L 560.5 733 Z M 560.5 732 " transform="matrix(0.125,0,0,0.125,0,0)"/>
<path style="fill-rule:nonzero;fill:rgb(82.352942%,88.627452%,94.901961%);fill-opacity:1;stroke-width:1;stroke-linecap:butt;stroke-linejoin:miter;stroke:rgb(82.352942%,88.627452%,94.901961%);stroke-opacity:1;stroke-miterlimit:4;" d="M 624.5 732 L 628 732.5 L 624.5 733 Z M 624.5 732 " transform="matrix(0.125,0,0,0.125,0,0)"/>
<path style="fill-rule:nonzero;fill:rgb(82.352942%,88.627452%,94.901961%);fill-opacity:1;stroke-width:1;stroke-linecap:butt;stroke-linejoin:miter;stroke:rgb(82.352942%,88.627452%,94.901961%);stroke-opacity:1;stroke-miterlimit:4;" d="M 570.5 733 L 578 733.5 L 570.5 734 Z M 570.5 733 " transform="matrix(0.125,0,0,0.125,0,0)"/>
<path style="fill-rule:nonzero;fill:rgb(82.352942%,88.627452%,94.901961%);fill-opacity:1;stroke-width:1;stroke-linecap:butt;stroke-linejoin:miter;stroke:rgb(82.352942%,88.627452%,94.901961%);stroke-opacity:1;stroke-miterlimit:4;" d="M 612.5 733 L 619 733.5 L 612.5 734 Z M 612.5 733 " transform="matrix(0.125,0,0,0.125,0,0)"/>
<path style="fill-rule:nonzero;fill:rgb(100%,100%,100%);fill-opacity:1;stroke-width:1;stroke-linecap:butt;stroke-linejoin:miter;stroke:rgb(100%,100%,100%);stroke-opacity:1;stroke-miterlimit:4;" d="M 621.5 372 L 644.5 372 L 645.5 373 L 661.5 373 L 662.5 374 L 679.5 375 L 709.5 382 L 719 386.5 L 718.5 458 C 705.09375 448.0625 688.78125 441.0625 669.5 437 L 652.5 435 L 651.5 434 L 621.5 434 L 606.5 437 L 598.5 440 C 591.78125 442.9375 586.28125 447.09375 582 452.5 C 577.125 457.3125 575.46875 465.3125 577 476.5 C 579.65625 484.84375 584.15625 491.34375 590.5 496 L 603.5 505 C 618.6875 513.46875 635.03125 520.8125 652.5 527 L 681.5 542 C 692.625 548.53125 702.46875 556.375 711 565.5 C 720.125 575.03125 726.8125 587.03125 731 601.5 L 733 610.5 L 733 618.5 L 734 619.5 L 734 640.5 L 730 662.5 L 723 679.5 C 717.28125 689.4375 710.09375 697.9375 701.5 705 C 687.375 716.53125 669.6875 724.53125 648.5 729 L 631.5 732 L 624.5 732 L 623.5 733 L 612.5 733 L 611.5 734 L 578.5 734 L 577.5 733 L 556.5 732 L 528.5 727 L 506.5 720 L 496 714.5 L 496.5 638 C 508.375 648.46875 522.375 656.8125 538.5 663 L 567.5 671 L 584.5 672 L 585.5 673 L 598.5 673 L 599.5 672 L 614.5 671 L 628.5 667 C 635.6875 664.1875 641.53125 660.03125 646 654.5 L 651 644.5 L 652 634.5 L 648 621.5 L 637.5 609 L 614.5 594 L 569.5 575 L 546.5 563 C 533.96875 555.53125 523.125 546.375 514 535.5 C 506.28125 526.5625 500.59375 515.5625 497 502.5 L 495 492.5 L 495 485.5 L 494 484.5 L 494 467.5 L 495 466.5 L 495 458.5 L 497 448.5 L 505 428.5 C 511 418.15625 518.5 409.34375 527.5 402 C 539.5 392.34375 553.84375 385 570.5 380 L 598.5 374 L 620.5 373 Z M 621.5 372 " transform="matrix(0.125,0,0,0.125,0,0)"/>
<path style="fill-rule:nonzero;fill:rgb(100%,100%,100%);fill-opacity:1;stroke-width:1;stroke-linecap:butt;stroke-linejoin:miter;stroke:rgb(100%,100%,100%);stroke-opacity:1;stroke-miterlimit:4;" d="M 185 380 L 463.5 380 L 464 380.5 L 464 443 L 364.5 443 L 363 444.5 L 363 728.5 L 362.5 729 L 285 729 L 285 444.5 L 283.5 443 L 185 443 Z M 185 380 " transform="matrix(0.125,0,0,0.125,0,0)"/>
</g>
</svg>
