<svg width="800" height="800" version="1.1" xmlns="http://www.w3.org/2000/svg" desc="Created with imagetracer.js version 1.2.6" ><path fill="rgb(2,6,12)" stroke="rgb(2,6,12)" stroke-width="1" opacity="0.023529411764705882" d="M 0 0 L 66 0.5 Q 36.8 5.3 21 23.5 Q 11.9 32.9 6 45.5 L 0.5 65 L 0 0 Z " /><path fill="rgb(2,6,12)" stroke="rgb(2,6,12)" stroke-width="1" opacity="0.023529411764705882" d="M 734.5 0 L 800 0 L 800 64.5 L 799 64.5 Q 794.3 36.2 776.5 21 L 758.5 8 Q 748.8 2.2 734.5 1 L 734.5 0 Z " /><path fill="rgb(2,6,12)" stroke="rgb(2,6,12)" stroke-width="1" opacity="0.023529411764705882" d="M 0.5 734 L 1 739.5 L 6 754.5 L 20 776 L 22 776 Q 20.9 778.7 23.5 778 Q 38.1 794.9 65 799.5 L 0 800 L 0.5 734 Z " /><path fill="rgb(2,6,12)" stroke="rgb(2,6,12)" stroke-width="1" opacity="0.023529411764705882" d="M 799.5 735 L 800 800 L 735 799.5 Q 763.3 794.3 779 776.5 Q 788.1 767.1 794 754.5 L 799.5 735 Z " /><path fill="rgb(45,121,199)" stroke="rgb(45,121,199)" stroke-width="1" opacity="0.996078431372549" d="M 66.5 0 L 77 0.5 L 66.5 1 L 66.5 0 Z " /><path fill="rgb(45,121,199)" stroke="rgb(45,121,199)" stroke-width="1" opacity="0.996078431372549" d="M 723.5 0 L 734 0.5 L 723.5 1 L 723.5 0 Z " /><path fill="rgb(45,121,199)" stroke="rgb(45,121,199)" stroke-width="1" opacity="0.996078431372549" d="M 60.5 1 L 65 1.5 Q 34.2 7.7 18 28.5 Q 9.2 39.2 4 53.5 L 1 65.5 L 0.5 76 L 0 65.5 Q 5.6 37.1 23.5 21 Q 37.7 6.7 60.5 1 Z " /><path fill="rgb(45,121,199)" stroke="rgb(45,121,199)" stroke-width="1" opacity="0.996078431372549" d="M 735.5 1 Q 763.8 5.7 779 23.5 Q 788.1 32.9 794 45.5 L 799 60.5 L 800 75.5 L 799 75.5 L 799 65.5 L 794 48.5 Q 786 30 771.5 18 L 751.5 6 L 739.5 2 L 735.5 2 L 735.5 1 Z " /><path fill="rgb(45,121,199)" stroke="rgb(45,121,199)" stroke-width="1" opacity="0.996078431372549" d="M 0.5 724 L 1 733.5 L 0 733.5 L 0.5 724 Z " /><path fill="rgb(45,121,199)" stroke="rgb(45,121,199)" stroke-width="1" opacity="0.996078431372549" d="M 799.5 724 L 800 734.5 Q 794.2 763.7 775.5 780 Q 764.5 790 749.5 796 L 734.5 800 L 723.5 800 L 723.5 799 L 734.5 799 L 751.5 794 Q 770 786 782 771.5 Q 790.8 760.8 796 746.5 L 799 734.5 L 799.5 724 Z " /><path fill="rgb(45,121,199)" stroke="rgb(45,121,199)" stroke-width="1" opacity="0.996078431372549" d="M 1.5 735 Q 7.7 765.8 28.5 782 Q 39.2 790.8 53.5 796 L 65.5 799 L 77 799.5 L 65.5 800 Q 52 797.5 41.5 792 L 22 778 L 22 776 Q 19.3 777.1 20 774.5 L 15 769.5 L 6 754.5 L 1 739.5 L 1.5 735 Z " /><path fill="rgb(45,121,199)" stroke="rgb(45,121,199)" stroke-width="1" opacity="1" d="M 77.5 0 L 722.5 0 L 723.5 1 L 739.5 2 L 751.5 6 Q 770 14 782 28.5 Q 790.8 39.2 796 53.5 L 799 65.5 L 799 75.5 L 800 76.5 L 800 723.5 L 799 724.5 L 798 739.5 L 794 751.5 Q 786 770 771.5 782 Q 760.8 790.8 746.5 796 L 734.5 799 L 723.5 799 L 722.5 800 L 77.5 800 L 76.5 799 L 60.5 798 L 48.5 794 Q 30 786 18 771.5 Q 9.2 760.8 4 746.5 L 1 734.5 L 1 724.5 L 0 723.5 L 0 76.5 L 1 75.5 L 2 60.5 L 6 48.5 Q 14 30 28.5 18 Q 39.2 9.2 53.5 4 L 65.5 1 L 76.5 1 L 77.5 0 Z M 613 372 L 612 373 L 603 373 L 602 374 L 585 376 L 558 384 Q 539 391 526 403 Q 513 413 505 428 L 497 447 L 494 462 L 494 490 L 497 505 Q 503 524 515 538 Q 531 555 553 567 L 612 593 L 636 608 L 647 621 L 651 632 L 651 643 L 646 654 Q 640 662 630 666 L 618 670 L 607 671 L 606 672 L 579 672 L 549 666 Q 517 657 497 637 L 495 638 L 495 715 L 511 722 L 536 729 L 553 732 L 560 732 L 561 733 L 570 733 L 571 734 L 595 734 L 596 735 L 597 734 L 619 734 L 620 733 L 636 732 L 666 725 Q 688 718 704 704 Q 716 693 724 679 L 730 665 L 734 646 L 734 615 L 731 600 Q 725 582 715 570 Q 701 553 683 542 L 652 526 Q 626 517 605 505 L 592 496 Q 581 489 577 475 L 577 465 L 581 455 Q 587 446 598 441 L 613 436 L 626 435 L 627 434 Q 685 433 718 458 L 719 458 L 719 385 L 693 377 L 676 374 L 669 374 L 668 373 L 657 373 L 656 372 L 613 372 Z M 184 380 L 184 444 L 284 444 L 284 445 L 284 730 L 364 730 L 364 730 L 364 444 L 464 444 L 464 381 L 464 380 L 184 380 Z " /><path fill="rgb(210,226,242)" stroke="rgb(210,226,242)" stroke-width="1" opacity="1" d="M 612.5 372 L 621 372.5 L 612.5 373 L 612.5 372 Z " /><path fill="rgb(210,226,242)" stroke="rgb(210,226,242)" stroke-width="1" opacity="1" d="M 645.5 372 L 656 372.5 L 645.5 373 L 645.5 372 Z " /><path fill="rgb(210,226,242)" stroke="rgb(210,226,242)" stroke-width="1" opacity="1" d="M 602.5 373 L 607 373.5 L 602.5 374 L 602.5 373 Z " /><path fill="rgb(210,226,242)" stroke="rgb(210,226,242)" stroke-width="1" opacity="1" d="M 662.5 373 L 668 373.5 L 662.5 374 L 662.5 373 Z " /><path fill="rgb(210,226,242)" stroke="rgb(210,226,242)" stroke-width="1" opacity="1" d="M 595.5 374 L 598 374.5 L 595.5 375 L 595.5 374 Z " /><path fill="rgb(210,226,242)" stroke="rgb(210,226,242)" stroke-width="1" opacity="1" d="M 672.5 374 L 676 374.5 L 672.5 375 L 672.5 374 Z " /><path fill="rgb(210,226,242)" stroke="rgb(210,226,242)" stroke-width="1" opacity="1" d="M 589.5 375 L 592 375.5 L 589.5 376 L 589.5 375 Z " /><path fill="rgb(210,226,242)" stroke="rgb(210,226,242)" stroke-width="1" opacity="1" d="M 584.5 376 L 587 376.5 L 584.5 377 L 584.5 376 Z " /><path fill="rgb(210,226,242)" stroke="rgb(210,226,242)" stroke-width="1" opacity="1" d="M 685.5 376 L 688 376.5 L 685.5 377 L 685.5 376 Z " /><path fill="rgb(210,226,242)" stroke="rgb(210,226,242)" stroke-width="1" opacity="1" d="M 184.5 380 L 185 443 L 283.5 443 L 285 444.5 L 285 728.5 L 285.5 729 L 363 729 L 363 444.5 L 364.5 443 L 464 443.5 L 364 444 L 364 729.5 L 363.5 730 L 284 730 L 284 444.5 L 283.5 444 L 184 444 L 184.5 380 Z " /><path fill="rgb(210,226,242)" stroke="rgb(210,226,242)" stroke-width="1" opacity="1" d="M 539.5 393 L 538.5 395 L 539.5 393 Z " /><path fill="rgb(210,226,242)" stroke="rgb(210,226,242)" stroke-width="1" opacity="1" d="M 533.5 397 L 532.5 399 L 533.5 397 Z " /><path fill="rgb(210,226,242)" stroke="rgb(210,226,242)" stroke-width="1" opacity="1" d="M 530.5 399 L 528.5 402 L 530.5 399 Z " /><path fill="rgb(210,226,242)" stroke="rgb(210,226,242)" stroke-width="1" opacity="1" d="M 525.5 403 L 515.5 414 L 525.5 403 Z " /><path fill="rgb(210,226,242)" stroke="rgb(210,226,242)" stroke-width="1" opacity="1" d="M 513.5 416 L 511.5 419 L 513.5 416 Z " /><path fill="rgb(210,226,242)" stroke="rgb(210,226,242)" stroke-width="1" opacity="1" d="M 510.5 420 L 509.5 422 L 510.5 420 Z " /><path fill="rgb(210,226,242)" stroke="rgb(210,226,242)" stroke-width="1" opacity="1" d="M 508.5 423 L 507.5 425 L 508.5 423 Z " /><path fill="rgb(210,226,242)" stroke="rgb(210,226,242)" stroke-width="1" opacity="1" d="M 506.5 426 L 505.5 428 L 506.5 426 Z " /><path fill="rgb(210,226,242)" stroke="rgb(210,226,242)" stroke-width="1" opacity="1" d="M 621.5 434 L 626 434.5 L 621.5 435 L 621.5 434 Z " /><path fill="rgb(210,226,242)" stroke="rgb(210,226,242)" stroke-width="1" opacity="1" d="M 646.5 434 L 652 434.5 L 646.5 435 L 646.5 434 Z " /><path fill="rgb(210,226,242)" stroke="rgb(210,226,242)" stroke-width="1" opacity="1" d="M 656.5 435 L 659 435.5 L 656.5 436 L 656.5 435 Z " /><path fill="rgb(210,226,242)" stroke="rgb(210,226,242)" stroke-width="1" opacity="1" d="M 592.5 443 L 591.5 445 L 592.5 443 Z " /><path fill="rgb(210,226,242)" stroke="rgb(210,226,242)" stroke-width="1" opacity="1" d="M 588.5 446 L 582.5 453 L 588.5 446 Z " /><path fill="rgb(210,226,242)" stroke="rgb(210,226,242)" stroke-width="1" opacity="1" d="M 704.5 449 L 705.5 451 L 704.5 449 Z " /><path fill="rgb(210,226,242)" stroke="rgb(210,226,242)" stroke-width="1" opacity="1" d="M 713.5 454 L 714.5 456 L 713.5 454 Z " /><path fill="rgb(210,226,242)" stroke="rgb(210,226,242)" stroke-width="1" opacity="1" d="M 495.5 455 L 496 457.5 L 495 457.5 L 495.5 455 Z " /><path fill="rgb(210,226,242)" stroke="rgb(210,226,242)" stroke-width="1" opacity="1" d="M 716.5 456 L 717.5 458 L 716.5 456 Z " /><path fill="rgb(210,226,242)" stroke="rgb(210,226,242)" stroke-width="1" opacity="1" d="M 494.5 461 L 495 466.5 L 494 466.5 L 494.5 461 Z " /><path fill="rgb(210,226,242)" stroke="rgb(210,226,242)" stroke-width="1" opacity="1" d="M 494.5 485 L 495 489.5 L 494 489.5 L 494.5 485 Z " /><path fill="rgb(210,226,242)" stroke="rgb(210,226,242)" stroke-width="1" opacity="1" d="M 581.5 485 L 582.5 487 L 581.5 485 Z " /><path fill="rgb(210,226,242)" stroke="rgb(210,226,242)" stroke-width="1" opacity="1" d="M 584.5 489 L 590.5 496 L 584.5 489 Z " /><path fill="rgb(210,226,242)" stroke="rgb(210,226,242)" stroke-width="1" opacity="1" d="M 495.5 493 L 496 495.5 L 495 495.5 L 495.5 493 Z " /><path fill="rgb(210,226,242)" stroke="rgb(210,226,242)" stroke-width="1" opacity="1" d="M 592.5 496 L 594.5 499 L 592.5 496 Z " /><path fill="rgb(210,226,242)" stroke="rgb(210,226,242)" stroke-width="1" opacity="1" d="M 596.5 499 L 597.5 501 L 596.5 499 Z " /><path fill="rgb(210,226,242)" stroke="rgb(210,226,242)" stroke-width="1" opacity="1" d="M 602.5 503 L 603.5 505 L 602.5 503 Z " /><path fill="rgb(210,226,242)" stroke="rgb(210,226,242)" stroke-width="1" opacity="1" d="M 505.5 523 L 506.5 525 L 505.5 523 Z " /><path fill="rgb(210,226,242)" stroke="rgb(210,226,242)" stroke-width="1" opacity="1" d="M 509.5 529 L 510.5 531 L 509.5 529 Z " /><path fill="rgb(210,226,242)" stroke="rgb(210,226,242)" stroke-width="1" opacity="1" d="M 511.5 532 L 513.5 535 L 511.5 532 Z " /><path fill="rgb(210,226,242)" stroke="rgb(210,226,242)" stroke-width="1" opacity="1" d="M 515.5 537 L 526.5 549 L 515.5 537 Z " /><path fill="rgb(210,226,242)" stroke="rgb(210,226,242)" stroke-width="1" opacity="1" d="M 675.5 538 L 676.5 540 L 675.5 538 Z " /><path fill="rgb(210,226,242)" stroke="rgb(210,226,242)" stroke-width="1" opacity="1" d="M 682.5 542 L 683.5 544 L 682.5 542 Z " /><path fill="rgb(210,226,242)" stroke="rgb(210,226,242)" stroke-width="1" opacity="1" d="M 685.5 544 L 686.5 546 L 685.5 544 Z " /><path fill="rgb(210,226,242)" stroke="rgb(210,226,242)" stroke-width="1" opacity="1" d="M 688.5 546 L 689.5 548 L 688.5 546 Z " /><path fill="rgb(210,226,242)" stroke="rgb(210,226,242)" stroke-width="1" opacity="1" d="M 691.5 548 L 692.5 550 L 691.5 548 Z " /><path fill="rgb(210,226,242)" stroke="rgb(210,226,242)" stroke-width="1" opacity="1" d="M 530.5 551 L 532.5 554 L 530.5 551 Z " /><path fill="rgb(210,226,242)" stroke="rgb(210,226,242)" stroke-width="1" opacity="1" d="M 695.5 551 L 696.5 553 L 695.5 551 Z " /><path fill="rgb(210,226,242)" stroke="rgb(210,226,242)" stroke-width="1" opacity="1" d="M 534.5 554 L 535.5 556 L 534.5 554 Z " /><path fill="rgb(210,226,242)" stroke="rgb(210,226,242)" stroke-width="1" opacity="1" d="M 699.5 554 L 703.5 559 L 699.5 554 Z " /><path fill="rgb(210,226,242)" stroke="rgb(210,226,242)" stroke-width="1" opacity="1" d="M 538.5 557 L 539.5 559 L 538.5 557 Z " /><path fill="rgb(210,226,242)" stroke="rgb(210,226,242)" stroke-width="1" opacity="1" d="M 541.5 559 L 542.5 561 L 541.5 559 Z " /><path fill="rgb(210,226,242)" stroke="rgb(210,226,242)" stroke-width="1" opacity="1" d="M 551.5 565 L 552.5 567 L 551.5 565 Z " /><path fill="rgb(210,226,242)" stroke="rgb(210,226,242)" stroke-width="1" opacity="1" d="M 711.5 566 L 714.5 570 L 711.5 566 Z " /><path fill="rgb(210,226,242)" stroke="rgb(210,226,242)" stroke-width="1" opacity="1" d="M 716.5 572 L 717.5 574 L 716.5 572 Z " /><path fill="rgb(210,226,242)" stroke="rgb(210,226,242)" stroke-width="1" opacity="1" d="M 614.5 594 L 615.5 596 L 614.5 594 Z " /><path fill="rgb(210,226,242)" stroke="rgb(210,226,242)" stroke-width="1" opacity="1" d="M 623.5 599 L 624.5 601 L 623.5 599 Z " /><path fill="rgb(210,226,242)" stroke="rgb(210,226,242)" stroke-width="1" opacity="1" d="M 626.5 601 L 627.5 603 L 626.5 601 Z " /><path fill="rgb(210,226,242)" stroke="rgb(210,226,242)" stroke-width="1" opacity="1" d="M 629.5 603 L 630.5 605 L 629.5 603 Z " /><path fill="rgb(210,226,242)" stroke="rgb(210,226,242)" stroke-width="1" opacity="1" d="M 632.5 605 L 634.5 608 L 632.5 605 Z " /><path fill="rgb(210,226,242)" stroke="rgb(210,226,242)" stroke-width="1" opacity="1" d="M 637.5 609 L 642.5 615 L 637.5 609 Z " /><path fill="rgb(210,226,242)" stroke="rgb(210,226,242)" stroke-width="1" opacity="1" d="M 733.5 614 L 734 618.5 L 733 618.5 L 733.5 614 Z " /><path fill="rgb(210,226,242)" stroke="rgb(210,226,242)" stroke-width="1" opacity="1" d="M 644.5 617 L 645.5 619 L 644.5 617 Z " /><path fill="rgb(210,226,242)" stroke="rgb(210,226,242)" stroke-width="1" opacity="1" d="M 650.5 628 L 651 630.5 L 650 630.5 L 650.5 628 Z " /><path fill="rgb(210,226,242)" stroke="rgb(210,226,242)" stroke-width="1" opacity="1" d="M 651.5 634 L 652 638.5 L 651 638.5 L 651.5 634 Z " /><path fill="rgb(210,226,242)" stroke="rgb(210,226,242)" stroke-width="1" opacity="1" d="M 495 637 L 500 640.5 L 496 638.5 L 496 714.5 L 497 715.5 L 495 714.5 L 495 637 Z " /><path fill="rgb(210,226,242)" stroke="rgb(210,226,242)" stroke-width="1" opacity="1" d="M 501.5 641 L 503.5 644 L 501.5 641 Z " /><path fill="rgb(210,226,242)" stroke="rgb(210,226,242)" stroke-width="1" opacity="1" d="M 733.5 641 L 734 645.5 L 733 645.5 L 733.5 641 Z " /><path fill="rgb(210,226,242)" stroke="rgb(210,226,242)" stroke-width="1" opacity="1" d="M 505.5 644 L 506.5 646 L 505.5 644 Z " /><path fill="rgb(210,226,242)" stroke="rgb(210,226,242)" stroke-width="1" opacity="1" d="M 508.5 646 L 509.5 648 L 508.5 646 Z " /><path fill="rgb(210,226,242)" stroke="rgb(210,226,242)" stroke-width="1" opacity="1" d="M 511.5 648 L 512.5 650 L 511.5 648 Z " /><path fill="rgb(210,226,242)" stroke="rgb(210,226,242)" stroke-width="1" opacity="1" d="M 732.5 650 L 733 652.5 L 732 652.5 L 732.5 650 Z " /><path fill="rgb(210,226,242)" stroke="rgb(210,226,242)" stroke-width="1" opacity="1" d="M 647.5 651 L 646.5 653 L 647.5 651 Z " /><path fill="rgb(210,226,242)" stroke="rgb(210,226,242)" stroke-width="1" opacity="1" d="M 645.5 654 L 640.5 660 L 645.5 654 Z " /><path fill="rgb(210,226,242)" stroke="rgb(210,226,242)" stroke-width="1" opacity="1" d="M 731.5 655 L 732 657.5 L 731 657.5 L 731.5 655 Z " /><path fill="rgb(210,226,242)" stroke="rgb(210,226,242)" stroke-width="1" opacity="1" d="M 637.5 661 L 636.5 663 L 637.5 661 Z " /><path fill="rgb(210,226,242)" stroke="rgb(210,226,242)" stroke-width="1" opacity="1" d="M 567.5 670 L 570 670.5 L 567.5 671 L 567.5 670 Z " /><path fill="rgb(210,226,242)" stroke="rgb(210,226,242)" stroke-width="1" opacity="1" d="M 574.5 671 L 578 671.5 L 574.5 672 L 574.5 671 Z " /><path fill="rgb(210,226,242)" stroke="rgb(210,226,242)" stroke-width="1" opacity="1" d="M 606.5 671 L 609 671.5 L 606.5 672 L 606.5 671 Z " /><path fill="rgb(210,226,242)" stroke="rgb(210,226,242)" stroke-width="1" opacity="1" d="M 585.5 672 L 599 672.5 L 585.5 673 L 585.5 672 Z " /><path fill="rgb(210,226,242)" stroke="rgb(210,226,242)" stroke-width="1" opacity="1" d="M 720.5 683 L 719.5 685 L 720.5 683 Z " /><path fill="rgb(210,226,242)" stroke="rgb(210,226,242)" stroke-width="1" opacity="1" d="M 718.5 686 L 717.5 688 L 718.5 686 Z " /><path fill="rgb(210,226,242)" stroke="rgb(210,226,242)" stroke-width="1" opacity="1" d="M 716.5 689 L 714.5 692 L 716.5 689 Z " /><path fill="rgb(210,226,242)" stroke="rgb(210,226,242)" stroke-width="1" opacity="1" d="M 711.5 695 L 703.5 704 L 711.5 695 Z " /><path fill="rgb(210,226,242)" stroke="rgb(210,226,242)" stroke-width="1" opacity="1" d="M 700.5 705 L 698.5 708 L 700.5 705 Z " /><path fill="rgb(210,226,242)" stroke="rgb(210,226,242)" stroke-width="1" opacity="1" d="M 696.5 708 L 695.5 710 L 696.5 708 Z " /><path fill="rgb(210,226,242)" stroke="rgb(210,226,242)" stroke-width="1" opacity="1" d="M 690.5 712 L 689.5 714 L 690.5 712 Z " /><path fill="rgb(210,226,242)" stroke="rgb(210,226,242)" stroke-width="1" opacity="1" d="M 540.5 729 L 543 729.5 L 540.5 730 L 540.5 729 Z " /><path fill="rgb(210,226,242)" stroke="rgb(210,226,242)" stroke-width="1" opacity="1" d="M 644.5 729 L 647 729.5 L 644.5 730 L 644.5 729 Z " /><path fill="rgb(210,226,242)" stroke="rgb(210,226,242)" stroke-width="1" opacity="1" d="M 545.5 730 L 549 730.5 L 545.5 731 L 545.5 730 Z " /><path fill="rgb(210,226,242)" stroke="rgb(210,226,242)" stroke-width="1" opacity="1" d="M 639.5 730 L 642 730.5 L 639.5 731 L 639.5 730 Z " /><path fill="rgb(210,226,242)" stroke="rgb(210,226,242)" stroke-width="1" opacity="1" d="M 552.5 731 L 556 731.5 L 552.5 732 L 552.5 731 Z " /><path fill="rgb(210,226,242)" stroke="rgb(210,226,242)" stroke-width="1" opacity="1" d="M 632.5 731 L 636 731.5 L 632.5 732 L 632.5 731 Z " /><path fill="rgb(210,226,242)" stroke="rgb(210,226,242)" stroke-width="1" opacity="1" d="M 560.5 732 L 564 732.5 L 560.5 733 L 560.5 732 Z " /><path fill="rgb(210,226,242)" stroke="rgb(210,226,242)" stroke-width="1" opacity="1" d="M 624.5 732 L 628 732.5 L 624.5 733 L 624.5 732 Z " /><path fill="rgb(210,226,242)" stroke="rgb(210,226,242)" stroke-width="1" opacity="1" d="M 570.5 733 L 578 733.5 L 570.5 734 L 570.5 733 Z " /><path fill="rgb(210,226,242)" stroke="rgb(210,226,242)" stroke-width="1" opacity="1" d="M 612.5 733 L 619 733.5 L 612.5 734 L 612.5 733 Z " /><path fill="rgb(255,255,255)" stroke="rgb(255,255,255)" stroke-width="1" opacity="1" d="M 621.5 372 L 644.5 372 L 645.5 373 L 661.5 373 L 662.5 374 L 679.5 375 L 709.5 382 L 719 386.5 L 718.5 458 Q 698.4 443.1 669.5 437 L 652.5 435 L 651.5 434 L 621.5 434 L 606.5 437 L 598.5 440 Q 588.4 444.4 582 452.5 Q 574.7 459.7 577 476.5 Q 581 489 590.5 496 L 603.5 505 Q 626.3 517.7 652.5 527 L 681.5 542 Q 698.2 551.8 711 565.5 Q 724.7 579.8 731 601.5 L 733 610.5 L 733 618.5 L 734 619.5 L 734 640.5 L 730 662.5 L 723 679.5 Q 714.4 694.4 701.5 705 Q 680.3 722.3 648.5 729 L 631.5 732 L 624.5 732 L 623.5 733 L 612.5 733 L 611.5 734 L 578.5 734 L 577.5 733 L 556.5 732 L 528.5 727 L 506.5 720 L 496 714.5 L 496.5 638 Q 514.3 653.7 538.5 663 L 567.5 671 L 584.5 672 L 585.5 673 L 598.5 673 L 599.5 672 L 614.5 671 L 628.5 667 Q 639.3 662.8 646 654.5 L 651 644.5 L 652 634.5 L 648 621.5 L 637.5 609 L 614.5 594 L 569.5 575 L 546.5 563 Q 527.7 551.8 514 535.5 Q 502.4 522.1 497 502.5 L 495 492.5 L 495 485.5 L 494 484.5 L 494 467.5 L 495 466.5 L 495 458.5 L 497 448.5 L 505 428.5 Q 514 413 527.5 402 Q 545.5 387.5 570.5 380 L 598.5 374 L 620.5 373 L 621.5 372 Z " /><path fill="rgb(255,255,255)" stroke="rgb(255,255,255)" stroke-width="1" opacity="1" d="M 185 380 L 463.5 380 L 464 380.5 L 464 443 L 364.5 443 L 363 444.5 L 363 728.5 L 362.5 729 L 285 729 L 285 444.5 L 283.5 443 L 185 443 L 185 380 Z " /></svg>