<?xml version="1.0" encoding="UTF-8"?>
<svg xmlns="http://www.w3.org/2000/svg" xmlns:xlink="http://www.w3.org/1999/xlink" width="100px" height="100px" viewBox="0 0 100 100" version="1.1">
<g id="surface1">
<path style=" stroke:none;fill-rule:nonzero;fill:rgb(0%,0%,0%);fill-opacity:1;" d="M 45.117188 0.214844 C 35.3125 1.289062 26.09375 5.078125 18.652344 11.074219 C 16.132812 13.105469 12.011719 17.34375 10.195312 19.765625 C 5.019531 26.679688 1.71875 34.570312 0.46875 43.066406 C 0.0390625 45.9375 -0.0976562 51.425781 0.175781 54.296875 C 0.996094 62.753906 3.691406 70.566406 8.085938 77.226562 C 16.171875 89.511719 28.535156 97.382812 43.066406 99.53125 C 45.9375 99.960938 51.425781 100.097656 54.296875 99.824219 C 62.753906 99.003906 70.566406 96.308594 77.226562 91.914062 C 89.511719 83.828125 97.382812 71.464844 99.53125 56.933594 C 99.960938 54.0625 100.097656 48.574219 99.824219 45.703125 C 98.828125 35.46875 95.175781 26.40625 88.925781 18.652344 C 86.894531 16.132812 82.65625 12.011719 80.234375 10.195312 C 73.320312 5.019531 65.488281 1.757812 56.933594 0.46875 C 54.570312 0.117188 47.421875 -0.0390625 45.117188 0.214844 Z M 62.871094 46.074219 C 69.648438 57.929688 75.195312 67.65625 75.195312 67.695312 C 75.195312 67.734375 64.082031 67.773438 50.488281 67.773438 C 36.894531 67.773438 25.78125 67.734375 25.78125 67.675781 C 25.78125 67.519531 50.449219 24.394531 50.507812 24.472656 C 50.527344 24.492188 56.113281 34.21875 62.871094 46.074219 Z M 62.871094 46.074219 "/>
</g>
</svg>
