<?xml version="1.0" encoding="UTF-8"?>
<svg xmlns="http://www.w3.org/2000/svg" xmlns:xlink="http://www.w3.org/1999/xlink" width="100px" height="100px" viewBox="0 0 100 98" version="1.1">
<defs>
<linearGradient id="linear0" gradientUnits="userSpaceOnUse" x1="6.00017" y1="32.999901" x2="235" y2="344" gradientTransform="matrix(0.243902,0,0,0.242574,0,0)">
<stop offset="0" style="stop-color:rgb(25.490196%,81.960784%,100%);stop-opacity:1;"/>
<stop offset="1" style="stop-color:rgb(74.117647%,20.392157%,99.607843%);stop-opacity:1;"/>
</linearGradient>
<linearGradient id="linear1" gradientUnits="userSpaceOnUse" x1="194.651001" y1="8.81818" x2="236.076004" y2="292.989014" gradientTransform="matrix(0.243902,0,0,0.242574,0,0)">
<stop offset="0" style="stop-color:rgb(100%,91.764706%,51.372549%);stop-opacity:1;"/>
<stop offset="0.0833333" style="stop-color:rgb(100%,86.666667%,20.784314%);stop-opacity:1;"/>
<stop offset="1" style="stop-color:rgb(100%,65.882353%,0%);stop-opacity:1;"/>
</linearGradient>
</defs>
<g id="surface1">
<path style=" stroke:none;fill-rule:nonzero;fill:url(#linear0);" d="M 97.472656 14.4375 L 52.597656 94.25 C 51.667969 95.898438 49.289062 95.910156 48.347656 94.269531 L 2.582031 14.445312 C 1.554688 12.660156 3.09375 10.496094 5.128906 10.855469 L 50.054688 18.84375 C 50.339844 18.894531 50.632812 18.894531 50.921875 18.84375 L 94.90625 10.867188 C 96.9375 10.5 98.480469 12.648438 97.472656 14.4375 Z M 97.472656 14.4375 "/>
<path style=" stroke:none;fill-rule:nonzero;fill:url(#linear1);" d="M 71.453125 0.382812 L 38.246094 6.855469 C 37.699219 6.960938 37.292969 7.421875 37.261719 7.972656 L 35.21875 42.289062 C 35.171875 43.097656 35.917969 43.722656 36.710938 43.542969 L 45.957031 41.417969 C 46.820312 41.222656 47.601562 41.980469 47.425781 42.84375 L 44.679688 56.222656 C 44.492188 57.125 45.34375 57.894531 46.226562 57.625 L 51.9375 55.898438 C 52.824219 55.632812 53.675781 56.40625 53.488281 57.304688 L 49.121094 78.320312 C 48.847656 79.636719 50.605469 80.351562 51.339844 79.226562 L 51.828125 78.472656 L 78.890625 24.761719 C 79.34375 23.859375 78.5625 22.835938 77.570312 23.027344 L 68.050781 24.851562 C 67.15625 25.023438 66.398438 24.195312 66.648438 23.324219 L 72.859375 1.910156 C 73.113281 1.035156 72.351562 0.207031 71.453125 0.382812 Z M 71.453125 0.382812 "/>
</g>
</svg>
